<svg width="508" height="388" viewBox="0 0 508 388" fill="none" xmlns="http://www.w3.org/2000/svg">
<g clip-path="url(#clip0)">
<path d="M436.305 53.2778H437.465V149.925H436.305V53.2778Z" fill="#F2F2F2"/>
<path d="M397.419 53.2778H398.58V149.925H397.419V53.2778Z" fill="#F2F2F2"/>
<path d="M5.74399 193.739C-8.20505 273.666 0.297949 352.274 64.4259 379.076C128.554 405.878 206.253 366.354 237.972 290.798C269.691 215.241 207.075 175.141 179.29 105.461C122.868 -36.0376 49.0624 -54.4727 5.74399 193.739Z" fill="#F2F2F2"/>
<path d="M58.9156 328.645C56.8207 328.645 55.1225 326.951 55.1225 324.86C55.1225 322.77 56.8207 321.076 58.9156 321.076C61.0104 321.076 62.7086 322.77 62.7086 324.86C62.7086 326.951 61.0104 328.645 58.9156 328.645Z" fill="#FF6584"/>
<path d="M39.7518 344.586H40.9126V387.678H39.7518V344.586Z" fill="#3F3D56"/>
<path d="M40.3324 350.679C36.9594 350.679 34.225 347.951 34.225 344.585C34.225 341.22 36.9594 338.492 40.3324 338.492C43.7054 338.492 46.4398 341.22 46.4398 344.585C46.4398 347.951 43.7054 350.679 40.3324 350.679Z" fill="#3F3D56"/>
<path d="M40.3322 371.144C40.3322 371.144 41.2047 352.42 59.0906 354.597Z" fill="#3F3D56"/>
<path d="M311.248 52.6987H486.526V53.8569H311.248V52.6987Z" fill="#F2F2F2"/>
<path d="M311.248 106.555H486.526V107.713H311.248V106.555Z" fill="#F2F2F2"/>
<path d="M311.248 149.409H486.526V150.567H311.248V149.409Z" fill="#F2F2F2"/>
<path d="M318.503 201.818H474.628V202.976H318.503V201.818Z" fill="#3F3D56"/>
<path d="M483.624 211.952C485.575 211.952 487.483 211.375 489.105 210.293C490.728 209.211 491.993 207.673 492.739 205.875C493.486 204.076 493.681 202.096 493.301 200.187C492.92 198.277 491.98 196.523 490.6 195.146C489.221 193.769 487.463 192.831 485.549 192.452C483.635 192.072 481.651 192.267 479.848 193.012C478.045 193.757 476.504 195.019 475.42 196.638C474.336 198.257 473.757 200.16 473.757 202.107C473.76 204.717 474.8 207.22 476.65 209.065C478.5 210.911 481.008 211.949 483.624 211.952V211.952ZM483.624 193.421C485.346 193.421 487.029 193.93 488.46 194.885C489.892 195.839 491.008 197.196 491.667 198.783C492.326 200.37 492.498 202.117 492.162 203.802C491.826 205.487 490.997 207.035 489.78 208.249C488.562 209.464 487.011 210.292 485.322 210.627C483.633 210.962 481.883 210.79 480.292 210.132C478.701 209.475 477.342 208.362 476.385 206.933C475.428 205.505 474.918 203.825 474.918 202.107C474.92 199.804 475.838 197.596 477.471 195.968C479.103 194.339 481.316 193.423 483.624 193.421V193.421Z" fill="#3F3D56"/>
<path d="M436.288 149.988H437.448V202.107H436.288V149.988Z" fill="#3F3D56"/>
<path d="M397.402 107.134H398.563V202.107H397.402V107.134Z" fill="#3F3D56"/>
<path d="M357.935 53.2778H359.096V202.107H357.935V53.2778Z" fill="#3F3D56"/>
<path d="M436.885 210.555C432.209 210.555 428.418 206.773 428.418 202.107C428.418 197.442 432.209 193.659 436.885 193.659C441.561 193.659 445.352 197.442 445.352 202.107C445.352 206.773 441.561 210.555 436.885 210.555Z" fill="#4665AF"/>
<path d="M397.726 210.555C393.05 210.555 389.259 206.773 389.259 202.107C389.259 197.442 393.05 193.659 397.726 193.659C402.402 193.659 406.193 197.442 406.193 202.107C406.193 206.773 402.402 210.555 397.726 210.555Z" fill="#4665AF"/>
<path d="M358.567 210.555C353.891 210.555 350.1 206.773 350.1 202.107C350.1 197.442 353.891 193.659 358.567 193.659C363.243 193.659 367.034 197.442 367.034 202.107C367.034 206.773 363.243 210.555 358.567 210.555Z" fill="#4665AF"/>
<path d="M358.26 61.3851C353.772 61.3851 350.134 57.7552 350.134 53.2776C350.134 48.8 353.772 45.1702 358.26 45.1702C362.747 45.1702 366.385 48.8 366.385 53.2776C366.385 57.7552 362.747 61.3851 358.26 61.3851Z" fill="#4665AF"/>
<path d="M358.47 115.178C353.982 115.178 350.345 111.548 350.345 107.071C350.345 102.593 353.982 98.9633 358.47 98.9633C362.958 98.9633 366.596 102.593 366.596 107.071C366.596 111.548 362.958 115.178 358.47 115.178Z" fill="#4665AF"/>
<path d="M397.726 115.242C393.238 115.242 389.6 111.612 389.6 107.134C389.6 102.657 393.238 99.027 397.726 99.027C402.213 99.027 405.851 102.657 405.851 107.134C405.851 111.612 402.213 115.242 397.726 115.242Z" fill="#4665AF"/>
<path d="M397.936 158.032C393.449 158.032 389.811 154.402 389.811 149.925C389.811 145.447 393.449 141.817 397.936 141.817C402.424 141.817 406.062 145.447 406.062 149.925C406.062 154.402 402.424 158.032 397.936 158.032Z" fill="#4665AF"/>
<path d="M436.612 158.095C432.125 158.095 428.487 154.466 428.487 149.988C428.487 145.51 432.125 141.88 436.612 141.88C441.1 141.88 444.738 145.51 444.738 149.988C444.738 154.466 441.1 158.095 436.612 158.095Z" fill="#4665AF"/>
<path d="M500.455 60.806C496.288 60.806 492.91 57.4354 492.91 53.2776C492.91 49.1198 496.288 45.7493 500.455 45.7493C504.622 45.7493 508 49.1198 508 53.2776C508 57.4354 504.622 60.806 500.455 60.806Z" fill="#F2F2F2"/>
<path d="M500.455 114.084C496.288 114.084 492.91 110.713 492.91 106.555C492.91 102.398 496.288 99.027 500.455 99.027C504.622 99.027 508 102.398 508 106.555C508 110.713 504.622 114.084 500.455 114.084Z" fill="#F2F2F2"/>
<path d="M500.455 157.516C496.288 157.516 492.91 154.146 492.91 149.988C492.91 145.83 496.288 142.459 500.455 142.459C504.622 142.459 508 145.83 508 149.988C508 154.146 504.622 157.516 500.455 157.516Z" fill="#F2F2F2"/>
<path d="M459.828 0H500.455V3.7905H459.828V0Z" fill="#3F3D56"/>
<path d="M459.828 8.52869H500.455V12.3192H459.828V8.52869Z" fill="#3F3D56"/>
<path d="M459.828 17.0571H500.455V20.8476H459.828V17.0571Z" fill="#3F3D56"/>
<path d="M137.965 57.9282C137.965 57.9282 126.994 71.9543 128.365 81.8751C129.736 91.7959 105.737 68.1912 105.737 68.1912C105.737 68.1912 113.965 51.0863 109.508 42.8759C105.051 34.6656 137.965 57.9282 137.965 57.9282Z" fill="#9F616A"/>
<path d="M99.5652 341.87C99.5652 341.87 85.1651 357.606 87.5651 361.027C89.9651 364.448 132.137 377.448 136.937 376.764C141.737 376.079 144.137 372.658 142.422 371.632C140.708 370.606 129.737 364.79 129.737 364.79L120.479 354.185C120.479 354.185 113.622 350.422 113.622 348.369C113.622 346.317 99.5652 341.87 99.5652 341.87Z" fill="#2F2E41"/>
<path d="M123.908 359.317C123.908 359.317 129.394 368.211 130.422 368.553C131.451 368.895 125.279 381.211 125.279 381.211L110.88 376.764L102.994 370.264L104.708 361.369L123.908 359.317Z" fill="#9F616A"/>
<path d="M138.651 189.636L145.508 220.083C145.508 220.083 169.165 273.108 152.708 282.344L116.708 351.106L97.5082 342.554L129.737 272.082L114.994 191.004L138.651 189.636Z" fill="#D0CDE1"/>
<path opacity="0.1" d="M138.651 189.636L145.508 220.083C145.508 220.083 169.165 273.108 152.708 282.344L116.708 351.106L97.5082 342.554L129.737 272.082L114.994 191.004L138.651 189.636Z" fill="black"/>
<path d="M136.251 194.426H139.73C140.001 204.947 139.411 215.473 137.965 225.899C135.565 243.346 129.394 283.371 129.394 283.371C129.394 283.371 130.079 290.897 128.022 293.292C125.965 295.687 125.622 292.608 125.279 298.081C124.937 303.555 121.679 341.611 121.679 341.611C121.679 341.611 119.451 349.396 121.851 351.106C124.251 352.817 129.051 362.054 125.622 363.422C122.194 364.79 98.5366 366.501 97.508 365.475C96.4794 364.448 97.508 300.134 97.508 300.134C97.508 300.134 98.1937 287.134 98.8795 286.45C99.5652 285.766 102.651 276.529 101.622 274.476C100.594 272.424 101.279 266.266 101.279 265.24C101.279 264.214 104.365 265.24 101.622 260.793C98.8794 256.345 98.5366 220.767 98.5366 220.767C98.5366 220.767 83.7937 198.189 88.2509 192.373L136.251 194.426Z" fill="#D0CDE1"/>
<path d="M128.365 63.0599C115.867 63.0599 105.736 52.9512 105.736 40.4814C105.736 28.0117 115.867 17.903 128.365 17.903C140.862 17.903 150.993 28.0117 150.993 40.4814C150.993 52.9512 140.862 63.0599 128.365 63.0599Z" fill="#9F616A"/>
<path d="M105.737 64.4281C105.737 64.4281 119.451 67.8491 124.937 76.0594L129.737 77.0857V81.8751C129.737 81.8751 138.651 110.269 136.594 122.585C134.537 134.9 136.594 158.847 140.022 165.347C143.451 171.847 144.48 173.215 142.765 175.952C141.051 178.689 138.651 187.925 140.365 192.031C142.08 196.136 140.365 200.241 124.594 201.267C108.822 202.294 86.5368 202.294 86.5368 196.82C86.5368 191.346 87.9082 175.952 86.5368 171.847C85.1653 167.742 84.4796 165.005 85.1654 161.242C85.8511 157.479 83.7939 115.401 83.7939 115.401C83.7939 115.401 83.4511 73.3226 105.737 64.4281Z" fill="#2F2E41"/>
<path d="M137.965 170.136L156.822 198.188C156.822 198.188 176.708 216.32 169.508 224.53C162.308 232.74 143.451 200.583 143.451 200.583L122.879 177.32L137.965 170.136Z" fill="#9F616A"/>
<path d="M125.965 370.264C125.965 370.264 126.651 365.817 129.051 365.817C131.451 365.817 147.565 376.764 147.565 376.764C147.565 376.764 169.687 386.259 160.347 386.842C151.06 387.421 101.965 388.737 101.622 387.027C101.279 385.316 100.594 368.448 102.994 368.501C105.394 368.553 124.594 372.316 124.594 372.316L125.965 370.264Z" fill="#2F2E41"/>
<path d="M126.756 28.817C127.56 29.2123 128.446 29.4121 129.342 29.4C130.267 29.4525 131.371 29.3954 131.863 28.6122C132.095 28.0967 132.203 27.5339 132.177 26.9693C132.274 26.2442 132.518 25.5462 132.893 24.9176C133.268 24.289 133.767 23.7428 134.359 23.3119C134.952 22.881 135.625 22.5745 136.34 22.4107C137.055 22.247 137.795 22.2295 138.516 22.3593C138.418 23.4901 138.074 24.5857 137.506 25.5695C138.509 25.9088 139.576 26.0129 140.625 25.8735C141.674 25.7342 142.677 25.3553 143.555 24.7662L143.904 29.3743C145.133 29.9608 146.709 30.0832 147.782 29.2438C148.854 28.4043 148.94 26.4343 147.727 25.814C149.225 25.5022 151.058 24.8323 151.169 23.3088C151.269 21.9188 149.79 20.9013 149.518 19.5344C149.296 18.4195 149.908 17.2077 149.475 16.1566C148.905 14.7756 146.838 14.4211 146.423 12.9863C146.211 12.2556 146.515 11.474 146.443 10.717C146.253 8.7348 143.755 7.91183 141.763 8.02449C139.771 8.13715 137.596 8.66509 135.903 7.61033C135.083 7.09891 134.509 6.28035 133.788 5.63664C132.791 4.7835 131.551 4.26362 130.243 4.15009C128.935 4.03657 127.623 4.33512 126.494 5.00375C125.693 5.50095 124.993 6.18996 124.1 6.49216C122.271 7.1106 120.363 5.94045 118.451 5.67071C117.752 5.5512 117.034 5.59144 116.353 5.7884C115.671 5.98536 115.044 6.33392 114.517 6.80787C114.005 7.29864 113.67 7.94427 113.564 8.64444C113.458 9.34461 113.587 10.0601 113.93 10.6798C112.809 10.4907 111.62 10.3079 110.563 10.7271C109.506 11.1463 108.698 12.4094 109.187 13.4343C109.369 13.703 109.512 13.9955 109.613 14.3036C109.713 14.8999 109.137 15.4096 108.556 15.5806C107.975 15.7516 107.345 15.7196 106.776 15.9273C104.426 16.7855 104.99 20.5342 103.14 22.2161C102.505 22.6766 101.835 23.0857 101.135 23.4397C100.216 24.0751 99.5442 25.0058 99.231 26.0764C98.9179 27.1469 98.9826 28.2922 99.4143 29.3208C99.7851 30.1401 100.406 30.9219 100.332 31.8176C100.227 33.074 98.8774 33.7622 97.9305 34.597C97.0669 35.3917 96.4763 36.4379 96.2429 37.5868C96.0094 38.7357 96.145 39.9287 96.6302 40.9963C97.5006 42.8078 99.3854 44.1811 99.5768 46.1809C99.6599 47.0502 99.3982 47.918 99.4131 48.7912C99.4683 49.5982 99.7054 50.3825 100.106 51.0855C100.508 51.7885 101.063 52.3922 101.73 52.8516C103.073 53.7594 104.586 54.3875 106.177 54.6981C106.925 54.8766 107.817 55.156 107.998 55.9013C108.212 56.7849 107.224 57.589 107.326 58.4924C107.39 58.885 107.608 59.2362 107.931 59.469C109.268 60.5127 111.385 59.6179 112.203 58.1332C113.021 56.6485 112.916 54.8493 112.789 53.1599L112.328 47.0166C112.185 45.1051 112.198 42.8352 113.76 41.7188C115.487 40.4847 118.001 41.4838 119.954 40.6499C121.988 39.7809 122.718 37.2378 122.636 35.0312C122.554 32.8246 121.92 30.6146 122.284 28.4363C122.736 25.737 125.142 23.9228 127.572 25.672C125.437 25.3818 125.068 27.827 126.756 28.817Z" fill="#2F2E41"/>
<path opacity="0.1" d="M107.794 80.849C107.794 80.849 121.508 86.3226 121.508 97.9539C121.508 109.585 120.822 124.98 123.222 130.111C125.622 135.243 127.679 136.953 126.308 141.058C124.936 145.163 122.536 144.479 126.308 147.558C130.079 150.637 129.736 145.506 130.079 150.637C130.422 155.768 126.651 156.453 130.079 158.847C133.508 161.242 142.422 170.821 138.651 173.9C134.879 176.979 124.936 186.899 121.508 183.136C118.079 179.373 116.365 169.794 111.565 170.479C106.765 171.163 106.079 171.505 106.765 168.084C107.451 164.663 110.536 164.663 106.422 163.637C102.308 162.61 100.594 165.005 101.965 161.584C103.336 158.163 104.365 156.795 101.622 153.032C98.8793 149.269 97.5079 148.242 97.8508 144.479C98.1936 140.716 90.3079 106.848 90.3079 106.848C90.3079 106.848 87.9079 78.1122 107.794 80.849Z" fill="black"/>
<path opacity="0.1" d="M111.565 80.1648C111.565 80.1648 125.28 85.6384 125.28 97.2697C125.28 108.901 124.594 124.295 126.994 129.427C129.394 134.558 131.451 136.269 130.08 140.374C128.708 144.479 126.308 143.795 130.08 146.874C133.851 149.953 133.508 144.821 133.851 149.953C134.194 155.084 130.422 155.768 133.851 158.163C137.28 160.558 146.194 170.137 142.422 173.215C138.651 176.294 128.708 186.215 125.28 182.452C121.851 178.689 120.137 169.11 115.337 169.794C110.537 170.479 109.851 170.821 110.537 167.4C111.222 163.979 114.308 163.979 110.194 162.952C106.08 161.926 104.365 164.321 105.737 160.9C107.108 157.479 108.137 156.111 105.394 152.347C102.651 148.584 101.28 147.558 101.622 143.795C101.965 140.032 94.0795 106.164 94.0795 106.164C94.0795 106.164 91.6795 77.428 111.565 80.1648Z" fill="black"/>
<path d="M109.851 79.1384C109.851 79.1384 123.565 84.6119 123.565 96.2433C123.565 107.875 122.879 123.269 125.279 128.4C127.679 133.532 129.737 135.242 128.365 139.348C126.994 143.453 124.594 142.769 128.365 145.847C132.136 148.926 131.794 143.795 132.137 148.926C132.479 154.058 128.708 154.742 132.137 157.137C135.565 159.531 144.479 169.11 140.708 172.189C136.936 175.268 126.994 185.189 123.565 181.426C120.136 177.663 118.422 168.084 113.622 168.768C108.822 169.452 108.136 169.794 108.822 166.373C109.508 162.952 112.594 162.952 108.479 161.926C104.365 160.9 102.651 163.294 104.022 159.873C105.394 156.452 106.422 155.084 103.679 151.321C100.936 147.558 99.5651 146.532 99.9079 142.769C100.251 139.005 92.3651 105.138 92.3651 105.138C92.3651 105.138 89.9651 76.4016 109.851 79.1384Z" fill="#2F2E41"/>
<path d="M34.4018 387.421H347.812" stroke="#3F3D56" stroke-width="2" stroke-miterlimit="10"/>
<path d="M294.997 276.812H335.624V280.602H294.997V276.812Z" fill="#3F3D56"/>
<path d="M294.997 285.34H335.624V289.131H294.997V285.34Z" fill="#3F3D56"/>
<path d="M294.997 293.869H335.624V297.66H294.997V293.869Z" fill="#3F3D56"/>
<path d="M272.053 387.692C281.849 387.67 291.469 385.094 299.96 380.22C308.451 375.347 315.519 368.344 320.463 359.905L320.756 359.403L272.489 331.637V275.963L271.907 275.965C257.071 276.004 242.857 281.916 232.387 292.404C221.917 302.892 216.047 317.098 216.066 331.901C216.085 346.704 221.992 360.895 232.49 371.355C242.987 381.816 257.216 387.692 272.053 387.692V387.692ZM319.163 359.824C314.271 368.021 307.314 374.8 298.985 379.486C290.655 384.172 281.242 386.603 271.68 386.538C262.118 386.473 252.739 383.914 244.474 379.114C236.21 374.315 229.347 367.443 224.567 359.179C219.787 350.915 217.256 341.548 217.225 332.007C217.194 322.466 219.665 313.082 224.392 304.788C229.119 296.494 235.937 289.578 244.171 284.726C252.404 279.873 261.766 277.254 271.328 277.128V332.307L271.618 332.473L319.163 359.824Z" fill="#2F2E41"/>
<path d="M272.052 352.848C260.418 352.848 250.986 343.437 250.986 331.828C250.986 320.219 260.418 310.808 272.052 310.808C283.687 310.808 293.119 320.219 293.119 331.828C293.119 343.437 283.687 352.848 272.052 352.848Z" fill="#4665AF"/>
<path d="M272.053 342.312C266.25 342.312 261.545 337.618 261.545 331.828C261.545 326.037 266.25 321.344 272.053 321.344C277.856 321.344 282.56 326.037 282.56 331.828C282.56 337.618 277.856 342.312 272.053 342.312Z" fill="#2F2E41"/>
<path d="M304.494 46.2647H318.424V60.1632H304.494V46.2647Z" fill="#4665AF"/>
<path d="M304.494 99.5424H318.424V113.441H304.494V99.5424Z" fill="#4665AF"/>
<path d="M304.494 142.975H318.424V156.874H304.494V142.975Z" fill="#4665AF"/>
<path d="M303.914 209.572H319.004V194.516H303.914V209.572ZM317.843 208.414H305.074V195.674H317.843V208.414Z" fill="#3F3D56"/>
</g>
<defs>
<clipPath id="clip0">
<rect width="508" height="388" fill="white" transform="matrix(-1 0 0 1 508 0)"/>
</clipPath>
</defs>
</svg>
