<svg width="320" height="210" viewBox="0 0 320 210" fill="none" xmlns="http://www.w3.org/2000/svg">
<g clip-path="url(#clip0)">
<path opacity="0.1" d="M296.748 172.317C295.749 173.194 294.728 174.045 293.684 174.872C293.509 175.013 293.328 175.15 293.15 175.294C289.428 178.175 285.521 180.81 281.454 183.18L280.694 183.622C280.51 183.733 280.329 183.836 280.137 183.939C275.887 186.387 271.479 188.642 267.018 190.776L266.97 190.801L266.633 190.96C263.035 192.681 259.384 194.329 255.678 195.902L255.589 195.935C253.918 196.638 252.247 197.321 250.577 197.987C249.894 198.265 249.209 198.523 248.524 198.787C247.235 199.279 245.943 199.763 244.64 200.227L244.478 200.288L244.2 200.385L243.851 200.513C240.452 201.725 237.007 202.844 233.517 203.871L233.456 203.888C231.022 204.596 228.572 205.251 226.107 205.853L225.77 205.936C222.15 206.809 218.471 207.559 214.77 208.16L213.918 208.296C211.212 208.72 208.486 209.067 205.742 209.336C190.318 210.823 174.709 209.614 159.379 207.54C128.424 203.348 97.8782 195.491 70.0196 183.174C64.6729 180.812 59.4302 178.282 54.2914 175.586C54.2497 175.564 54.2135 175.542 54.1717 175.522C51.0955 173.908 48.061 172.226 45.0684 170.477C44.1912 169.971 43.3196 169.454 42.4535 168.934C41.3879 168.293 40.3269 167.645 39.2705 166.989C37.8782 166.122 36.4858 165.232 35.0934 164.323L34.4418 163.89L34.1912 163.72C33.8375 163.484 33.4894 163.247 33.1385 163.008C20.0503 154.114 8.37943 143.335 2.86565 129.845C-3.50584 114.28 0.571024 94.5446 16.3521 85.3442C21.7768 82.1754 28.0815 80.4549 34.4529 79.0345L35.1046 78.89C36.1823 78.6537 37.26 78.4258 38.3321 78.1979C42.0887 77.4029 45.8648 76.6135 49.6047 75.7324C51.554 75.2737 53.4839 74.7929 55.4025 74.2731L56.1878 74.0563C60.8151 72.8172 65.3405 71.2263 69.7245 69.2976H69.7523C70.2229 69.0892 70.688 68.8724 71.1447 68.65C71.4399 68.511 71.735 68.372 72.0302 68.2192C76.7643 65.8676 81.7768 62.6072 85.6337 58.7213C85.9428 58.41 86.2435 58.0932 86.5359 57.7763C86.7615 57.5289 86.9843 57.2787 87.1987 57.0286C89.9027 53.8821 91.774 50.3882 92.1305 46.6802C92.2505 45.4342 92.1942 44.1776 91.9634 42.9472C91.5262 40.6152 91.1029 38.3331 90.791 36.1067C90.209 31.9234 90.0113 27.9236 90.8189 24.0683C91.6404 20.138 93.5033 16.355 97.0595 12.6859C97.596 12.13 98.1743 11.5741 98.7943 11.0182C101.67 8.49979 104.924 6.44757 108.438 4.93648C108.872 4.75118 109.31 4.56587 109.75 4.38057C119.518 0.433563 131.256 -0.389192 142.222 0.155606C152.468 0.681886 162.648 2.09552 172.648 4.38057C173.442 4.55846 174.236 4.74469 175.024 4.93648C183.531 6.9934 191.901 9.57692 200.086 12.6721C221.356 20.6578 241.432 31.7455 260.187 43.9812C260.371 44.1008 260.554 44.2203 260.744 44.3426C261.527 44.8522 262.306 45.3636 263.08 45.8769C264.578 46.8683 266.063 47.8662 267.536 48.8705L268.53 49.546C269.02 49.8795 269.507 50.214 269.992 50.5494L271.484 51.5806C271.555 51.6228 271.622 51.6702 271.685 51.7224L272.955 52.6007C273.69 53.1122 274.42 53.6264 275.152 54.1434L276.723 55.2552C277.048 55.4887 277.377 55.7194 277.703 55.9557L279.374 57.1731L279.747 57.4511C279.825 57.5067 279.903 57.5623 279.978 57.6234L280.025 57.654C284.553 60.97 288.973 64.4084 293.113 68.0524L293.648 68.5249L293.704 68.575C294.155 68.9752 294.606 69.381 295.049 69.7896C300.457 74.7039 305.302 79.9851 309.262 85.8222C327.452 112.784 322.052 150.117 296.748 172.317Z" fill="#4665AF"/>
<path d="M225.998 98.3304C225.998 98.3304 227.619 89.8527 232.827 89.8082L236.636 97.63L234.074 99.3672C234.074 99.3672 228.571 99.5423 225.998 98.3304Z" fill="#65617D"/>
<path opacity="0.1" d="M236.625 97.6188L234.074 99.3672C234.074 99.3672 230.192 99.4895 227.419 98.8113C226.93 98.6981 226.455 98.537 225.998 98.3304C225.998 98.3304 225.998 98.2832 226.026 98.1942C226.025 98.1831 226.025 98.172 226.026 98.1609C226.266 97.0972 226.596 96.0558 227.012 95.0477C227.171 94.6669 227.355 94.275 227.549 93.8831C228.312 92.4182 229.385 90.9812 230.852 90.2696C231.394 90.0044 231.984 89.8503 232.587 89.8166H232.743H232.818L232.904 89.9889L234.191 92.6323L236.625 97.6188Z" fill="black"/>
<path d="M279.877 132.839C279.877 132.839 285.349 132.316 285.831 132.708C286.313 133.1 289.421 135.113 291.261 133.845C293.102 132.578 291.874 128.164 291.874 127.989C291.874 127.813 291.699 121.565 291.699 121.565L288.415 117.151L284.3 109.418L275.895 108.584L276.113 120.864L276.071 127.157L279.877 132.839Z" fill="#65617D"/>
<path opacity="0.1" d="M279.877 132.839C279.877 132.839 285.349 132.316 285.831 132.708C286.313 133.1 289.421 135.113 291.261 133.845C293.102 132.578 291.874 128.164 291.874 127.989C291.874 127.813 291.699 121.565 291.699 121.565L288.415 117.151L284.3 109.418L275.895 108.584L276.113 120.864L276.071 127.157L279.877 132.839Z" fill="black"/>
<path d="M231.721 89.5803C231.721 89.5803 231.289 94.9115 227.948 94.9949C227.948 94.9949 227.006 94.439 225.737 93.48C222.813 91.298 218.176 87.1009 219.457 83.1956C221.295 77.6031 230.226 87.9208 230.226 87.9208L230.913 88.688L231.721 89.5803Z" fill="#A5636D"/>
<path opacity="0.1" d="M231.721 89.5803C231.721 89.5803 231.289 94.9115 227.948 94.9949C227.948 94.9949 227.006 94.439 225.737 93.48L225.458 93.1159C226.023 93.4113 226.645 93.5793 227.282 93.6079C228.118 93.6246 229.059 93.3299 229.663 92.1097C230.012 91.4236 230.32 90.7172 230.585 89.9944C230.743 89.5702 230.855 89.1304 230.919 88.6825L231.721 89.5803Z" fill="black"/>
<path d="M230.276 99.2366L229.527 98.2748L227.02 95.0366L225.72 93.3828C226.284 93.6769 226.905 93.8439 227.541 93.872C228.376 93.8914 229.318 93.594 229.922 92.3738C230.272 91.6882 230.58 90.9818 230.844 90.2585C231.259 89.08 231.25 88.474 231.103 88.2683C230.955 88.0626 232.033 89.0605 232.551 89.5525L232.57 89.5692L232.81 89.7971L232.902 89.975L234.169 92.5072C234.169 92.5072 234.169 92.5433 234.169 92.6128C234.286 93.4161 234.712 98.5139 230.276 99.2366Z" fill="#E7EFFD"/>
<path d="M278.652 64.5836L272.172 71.4908C272.172 71.4908 263.857 68.1553 264.731 67.0435C265.071 66.6043 265.01 65.2173 264.82 63.6858C264.514 61.2647 263.857 58.4768 263.857 58.4768C263.857 58.4768 278.39 56.117 277.162 58.5658C276.717 59.458 276.792 60.5115 277.07 61.4677C277.428 62.5837 277.962 63.6356 278.652 64.5836Z" fill="#A5636D"/>
<path opacity="0.1" d="M277.162 58.5546C276.717 59.4469 276.502 59.5331 276.781 60.5003C274.882 62.535 272.464 64.7614 269.46 64.7614C267.85 64.7644 266.262 64.3933 264.82 63.6774C264.514 61.2564 263.857 58.4685 263.857 58.4685C263.857 58.4685 278.39 56.1058 277.162 58.5546Z" fill="black"/>
<path d="M279.88 54.0962C279.88 56.8547 278.782 59.5003 276.828 61.4509C274.874 63.4015 272.223 64.4974 269.46 64.4974C266.696 64.4974 264.046 63.4015 262.091 61.4509C260.137 59.5003 259.039 56.8547 259.039 54.0962C259.039 54.0462 259.039 53.9961 259.039 53.9461C259.099 51.2146 260.233 48.6163 262.197 46.7127C264.16 44.8091 266.795 43.7531 269.532 43.7728C272.27 43.7925 274.889 44.8864 276.825 46.8181C278.761 48.7498 279.857 51.3641 279.877 54.0962H279.88Z" fill="#A5636D"/>
<path opacity="0.1" d="M281.387 122.707C279.994 122.707 275.411 122.757 270.276 122.838H270.212L268.516 122.866H268.463C262.373 122.963 256.371 121.776 253.963 122.001C248.839 122.482 255.801 117.276 255.801 117.276C259.618 118.2 263.544 118.597 267.469 118.455L268.942 118.377C273.595 118.115 278.273 117.679 280.718 116.945C280.888 118.302 281.136 120.267 281.387 122.707Z" fill="black"/>
<path d="M281.387 122.446C279.994 122.446 275.411 122.493 270.276 122.577H270.212L268.516 122.604H268.463C262.373 122.702 256.371 121.515 253.963 121.74C248.839 122.218 255.801 117.015 255.801 117.015C259.618 117.939 263.544 118.335 267.469 118.19L268.942 118.115C273.595 117.854 278.273 117.415 280.718 116.684C280.888 118.04 281.136 120.011 281.387 122.446Z" fill="#5F5D7E"/>
<path opacity="0.1" d="M266.656 67.4771L258.599 71.235L252.386 119.205C252.386 119.205 256.062 117.537 258.165 118.594C260.267 119.65 266.745 118.682 266.745 118.682C266.745 118.682 271.479 118.404 272.172 118.944C272.866 119.483 281.106 116.759 281.106 116.759C281.106 116.759 282.593 113.437 281.454 112.915C280.315 112.392 281.805 107.225 281.805 107.225L281.106 72.6165L279.713 68.1692L275.948 65.8983L272.097 68.9558L270.259 69.2198L266.656 67.4771Z" fill="black"/>
<path d="M266.656 66.9434L258.602 70.7014L252.386 118.682C252.386 118.682 256.062 117.015 258.165 118.071C260.267 119.127 266.745 118.157 266.745 118.157C266.745 118.157 271.479 117.896 272.172 118.418C272.866 118.941 281.106 116.234 281.106 116.234C281.106 116.234 282.593 112.915 281.454 112.389C280.315 111.864 281.805 106.708 281.805 106.708L281.106 72.0995L279.713 67.6522L275.948 65.3785L272.097 68.436L270.259 68.6973L266.656 66.9434Z" fill="#E7EFFD"/>
<path opacity="0.1" d="M266.525 69.1726C266.525 69.1726 268.847 71.9244 268.803 72.4942C268.758 73.064 268.672 74.4149 268.672 74.4149L266.934 77.9561C266.934 77.9561 265.97 82.3701 265.97 83.2873C265.97 84.2046 264.439 92.157 264.439 92.157L262.601 104.387L260.278 120.425L262.643 124.489L265.444 122.129L269.162 93.5551L269.95 87.9181C269.95 87.9181 270.785 77.781 270.785 76.7331C270.785 75.6852 270.303 72.9306 270.303 72.9306C270.303 72.9306 270.874 70.3095 273.239 69.698C275.603 69.0865 273.063 69.5645 273.063 69.5645L271.707 68.4722L270.523 68.953C270.523 68.953 267.226 67.9496 266.525 69.1726Z" fill="black"/>
<path d="M266.263 68.9113C266.263 68.9113 268.583 71.6631 268.541 72.2301C268.499 72.7972 268.407 74.1536 268.407 74.1536L266.656 77.6948C266.656 77.6948 265.692 82.106 265.692 83.0232C265.692 83.9405 264.16 91.8957 264.16 91.8957L262.32 104.126L260 120.161L262.364 124.225L265.166 121.865L268.883 93.2938L269.671 87.6568C269.671 87.6568 270.507 77.5197 270.507 76.469C270.507 75.4183 270.025 72.6693 270.025 72.6693C270.025 72.6693 270.582 70.0454 272.957 69.4339C275.333 68.8224 272.785 69.3032 272.785 69.3032L271.426 68.2109L270.245 68.6917C270.245 68.6917 266.965 67.6855 266.263 68.9113Z" fill="#4665AF"/>
<path opacity="0.1" d="M264.731 64.3223C264.731 64.3223 264.38 64.5835 264.294 66.3319C264.208 68.0803 262.98 72.0134 262.98 72.0134C262.98 72.0134 267.533 68.8669 269.811 69.2171L264.731 64.3223Z" fill="black"/>
<path d="M264.731 63.7969C264.731 63.7969 264.38 64.0609 264.294 65.8065C264.208 67.5521 262.98 71.488 262.98 71.488C262.98 71.488 267.533 68.3415 269.811 68.6917L264.731 63.7969Z" fill="#E7EFFD"/>
<path opacity="0.1" d="M277.165 62.9241L269.997 69.2171C269.997 69.2171 276.04 72.8 276.828 73.6644C277.616 74.5289 278.404 65.1005 278.404 65.1005L277.165 62.9241Z" fill="black"/>
<path d="M277.427 62.3988L270.248 68.6918C270.248 68.6918 276.288 72.2746 277.076 73.1391C277.864 74.0035 278.652 64.5724 278.652 64.5724L277.427 62.3988Z" fill="#E7EFFD"/>
<path opacity="0.1" d="M264.985 64.3223C264.985 64.3223 264.197 63.9276 263.453 65.0644C262.71 66.2013 261.309 66.7322 261.309 66.7322C261.309 66.7322 253.339 67.9997 253.033 69.0476L249.312 69.2644C249.312 69.2644 247.998 69.4228 247.875 72.2024C247.753 74.982 247.04 75.2154 247.04 75.2154C247.04 75.2154 245.505 77.9255 245.647 79.3237C245.789 80.7218 244.464 81.4222 244.464 81.4222L249.947 95.6092C249.947 95.6092 250.123 101.466 249.112 103.606C248.101 105.746 246.221 115.23 246.221 115.23C246.221 115.23 247.009 115.055 246.965 115.58C246.92 116.106 246.001 121.829 246.001 121.829C246.001 121.829 245.739 124.1 245.302 124.886C244.865 125.673 244.82 129.781 244.82 129.781L244.099 132.753C244.099 132.753 245.77 136.466 248.304 135.941C250.838 135.416 255.439 125.498 255.439 125.498L258.371 114.794L260.649 104.218L261.306 97.0518L262.356 81.1887L263.887 70.7014C263.887 70.7014 265.606 65.0644 264.985 64.3223Z" fill="black"/>
<path d="M264.731 63.7969C264.731 63.7969 263.943 63.405 263.2 64.5418C262.456 65.6787 261.053 66.2096 261.053 66.2096C261.053 66.2096 253.086 67.4771 252.779 68.525L249.059 68.7445C249.059 68.7445 247.744 68.9197 247.613 71.6714C247.483 74.4232 246.778 74.6873 246.778 74.6873C246.778 74.6873 245.246 77.3974 245.386 78.7955C245.525 80.1936 244.205 80.8913 244.205 80.8913L249.669 95.0838C249.669 95.0838 249.844 100.94 248.833 103.081C247.822 105.221 245.945 114.705 245.945 114.705C245.945 114.705 246.734 114.53 246.689 115.055C246.644 115.58 245.725 121.304 245.725 121.304C245.725 121.304 245.464 123.575 245.026 124.361C244.589 125.148 244.545 129.256 244.545 129.256L243.849 132.241C243.849 132.241 245.519 135.955 248.051 135.432C250.582 134.91 255.188 124.987 255.188 124.987L258.12 114.282L260.398 103.72L261.053 96.5542L262.105 80.694L263.637 70.2066C263.637 70.2066 265.344 64.5418 264.731 63.7969Z" fill="#65617D"/>
<path opacity="0.1" d="M236.625 97.6188L234.074 99.3672C234.074 99.3672 230.192 99.4895 227.419 98.8113L226.004 98.1859L225.725 98.0608L226.018 98.1525C227.483 98.5861 228.627 98.5778 229.521 98.2776C233.116 97.0712 232.718 91.148 232.584 89.8082C232.584 89.6748 232.562 89.5886 232.556 89.5553C232.556 89.5497 232.556 89.5441 232.556 89.5386L232.579 89.5719C232.626 89.6536 232.681 89.7308 232.743 89.8026C232.793 89.8625 232.847 89.9191 232.904 89.9722L234.172 92.5044C234.172 92.5044 234.172 92.5405 234.172 92.61L236.625 97.6188Z" fill="black"/>
<path d="M245.425 80.5411L244.199 80.8914L244.024 83.393C244.024 83.393 242.579 83.1762 242.186 84.8801C241.793 86.5839 241.092 87.3817 241.092 87.3817C241.092 87.3817 238.683 89.3913 238.552 91.0952L237.062 92.0125C237.062 92.0125 233.603 91.2258 232.815 89.8277C232.815 89.8277 234.392 101.102 225.987 98.3499C225.987 98.3499 235.4 102.458 235.837 103.025C236.274 103.592 239.165 105.249 241.791 103.859C244.417 102.469 244.987 100.276 244.987 100.276C244.987 100.276 247.527 96.7377 247.613 96.2124C247.7 95.6871 249.671 95.0756 249.671 95.0756L253.436 85.9891L245.425 80.5411Z" fill="#65617D"/>
<path opacity="0.1" d="M276.157 68.1664L277.427 62.3988C277.427 62.3988 277.984 64.2778 278.566 64.7142C279.148 65.1506 280.448 66.1568 280.448 66.1568C280.448 66.1568 282.331 67.0324 282.985 67.0324C283.64 67.0324 287.19 67.9496 287.627 68.4221C288.065 68.8947 289.816 68.5528 289.816 68.5528C289.816 68.5528 291.262 69.0337 292.531 69.3394C293.801 69.6452 294.414 71.7437 294.149 72.5721C294.044 72.9851 294.044 73.418 294.152 73.8306C294.259 74.2432 294.469 74.6221 294.762 74.9319C295.288 75.4573 295.55 77.1556 295.55 77.1556C296.195 77.3651 296.73 77.8208 297.04 78.4231C297.477 79.3848 297.346 81.4806 297.346 81.4806L290.824 90.6532C290.824 90.6532 290.911 94.1916 290.649 94.9782C290.387 95.7649 291.568 109.137 291.568 109.137L292.924 132.122C292.924 132.122 291.131 133.651 290.735 133.826C290.34 134.001 289.947 125.698 289.947 125.392C289.947 125.087 279.836 110.271 279.836 110.271C279.836 110.271 278.477 108.087 278.477 107.606C278.477 107.125 277.207 102.714 277.207 102.714L275.288 94.2111L276.157 68.1664Z" fill="black"/>
<path d="M297.889 80.9942C297.889 81.2944 297.872 81.4945 297.872 81.4945L291.353 90.6671C291.353 90.6671 291.442 94.2083 291.181 94.9949C291.028 95.4508 291.362 100.154 291.671 104.015C291.891 106.794 292.1 109.151 292.1 109.151L292.673 118.902L293.453 132.138C293.453 132.138 291.66 133.667 291.267 133.842C290.874 134.017 290.479 125.715 290.479 125.406C290.479 125.098 280.359 110.283 280.359 110.283C280.359 110.283 279.003 108.095 279.003 107.614C279.003 107.133 277.733 102.719 277.733 102.719L275.809 94.2L276.683 68.1553L277.427 62.3877C277.427 62.3877 278.521 64.2695 279.098 64.7031C279.674 65.1367 280.977 66.1457 280.977 66.1457C280.977 66.1457 282.86 67.0212 283.517 67.0212C284.174 67.0212 287.719 67.9385 288.159 68.411C288.599 68.8836 290.348 68.5417 290.348 68.5417C290.348 68.5417 291.791 69.0226 293.06 69.3283C294.33 69.6341 294.943 71.7326 294.681 72.561C294.575 72.9739 294.575 73.4071 294.682 73.8198C294.789 74.2326 295 74.6114 295.294 74.9208C295.817 75.4434 296.082 77.1445 296.082 77.1445C296.726 77.3548 297.262 77.8102 297.572 78.412C297.87 79.1013 297.898 80.3132 297.889 80.9942Z" fill="#65617D"/>
<path opacity="0.1" d="M250.579 197.987C249.897 198.265 249.212 198.523 248.527 198.787C246.38 198.162 244.375 197.425 244.375 197.425C246.452 197.499 248.523 197.687 250.579 197.987Z" fill="black"/>
<path opacity="0.1" d="M271.298 174.658C271.298 174.658 276.508 175.881 276.814 176.712L271.298 174.658Z" fill="black"/>
<path opacity="0.1" d="M251.203 178.416C251.203 178.416 248.488 179.202 251.117 180.776C253.745 182.349 251.203 178.416 251.203 178.416Z" fill="black"/>
<path opacity="0.1" d="M263.241 136.411C263.548 136.411 268.321 134.837 269.983 135.538C271.646 136.238 273.707 136.236 273.707 136.236L263.241 136.411Z" fill="black"/>
<path opacity="0.1" d="M263.871 141.414L263.823 141.848L259.741 152.504C259.741 152.504 259.084 155.737 258.513 157.572C258.155 158.819 257.87 160.085 257.661 161.366L261.281 139.001L263.871 141.414Z" fill="black"/>
<path d="M270.212 122.577L268.516 122.604H268.463L267.469 118.199C267.956 118.177 268.449 118.152 268.942 118.121L270.212 122.577Z" fill="#3F3D56"/>
<path d="M290.866 117.232L289.777 118.129L286.149 121.123C286.149 121.123 276.299 126.368 273.587 121.384C271.195 116.995 282.361 113.863 285.051 113.179C285.416 113.087 285.625 113.04 285.625 113.04L290.866 117.232Z" fill="#A5636D"/>
<path opacity="0.1" d="M248.797 74.2842C248.797 74.2842 250.721 75.1598 251.158 76.3828C251.596 77.6058 248.797 74.2842 248.797 74.2842Z" fill="black"/>
<path opacity="0.1" d="M242.84 87.3955C242.84 87.3955 240.039 90.8033 241.17 92.1208C242.3 93.4384 242.84 87.3955 242.84 87.3955Z" fill="black"/>
<path opacity="0.1" d="M292.924 76.2077C292.924 76.2077 290.298 76.469 290.209 78.7427L292.924 76.2077Z" fill="black"/>
<path opacity="0.1" d="M268.583 112.039C268.861 111.778 274.887 102.867 276.288 103.651L268.583 112.039Z" fill="black"/>
<path opacity="0.1" d="M279.88 54.0962C279.882 55.809 279.458 57.4955 278.647 59.0049H278.569C277.909 58.8659 277.566 58.0988 277.062 57.6151C276.752 57.3208 276.357 57.1306 275.933 57.0713C275.509 57.012 275.077 57.0865 274.698 57.2843C274.314 57.513 274.002 57.8443 273.797 58.2406C273.592 58.637 273.501 59.0827 273.537 59.5275C273.202 58.1377 273.308 56.6395 272.98 55.2386C272.651 53.8377 271.674 52.4173 270.331 52.3923C269.752 52.3923 269.078 52.6063 268.661 52.1727C268.407 51.9114 268.357 51.5001 268.168 51.1832C267.207 49.635 264.289 50.4188 263.097 51.2138C261.905 52.0087 260.521 53.2762 259.039 53.9572C259.099 51.2257 260.233 48.6274 262.197 46.7238C264.16 44.8202 266.795 43.7642 269.532 43.7839C272.27 43.8036 274.889 44.8975 276.825 46.8292C278.761 48.7609 279.857 51.3752 279.877 54.1073L279.88 54.0962Z" fill="black"/>
<path d="M268.17 50.9108C268.36 51.2277 268.41 51.6391 268.663 51.9003C269.081 52.3312 269.755 52.1088 270.334 52.1199C271.676 52.1422 272.657 53.5625 272.982 54.9634C273.308 56.3643 273.202 57.8542 273.539 59.2523C273.505 58.808 273.595 58.3629 273.8 57.967C274.005 57.5712 274.317 57.2405 274.701 57.012C275.08 56.8139 275.511 56.7393 275.935 56.7987C276.358 56.858 276.752 57.0483 277.062 57.3428C277.566 57.8208 277.898 58.588 278.571 58.7325C279.245 58.8771 279.869 58.2378 280.109 57.5429C280.348 56.848 280.329 56.0864 280.485 55.3665C280.783 54.0017 281.674 52.8843 282.155 51.589C282.743 50.012 282.727 48.2742 282.111 46.7081C281.782 45.8742 281.295 45.1487 280.961 44.3288C280.46 43.0835 280.326 41.6798 279.713 40.4929C278.683 38.5055 276.255 37.5132 274.261 38.2693C273.308 38.6278 272.481 39.32 271.515 39.6285C270.223 40.0426 268.839 39.7313 267.499 39.5451C266.16 39.3589 264.678 39.3422 263.601 40.2205C262.361 41.2323 262.022 43.1335 260.858 44.2454C260.368 44.7123 259.761 45.0098 259.245 45.4406C258.73 45.8714 258.285 46.5135 258.343 47.214C258.421 48.1201 259.309 48.9429 258.981 49.7795C258.863 50.0229 258.697 50.2403 258.493 50.4188C257.519 51.4401 256.794 52.6719 256.374 54.0184C258.719 54.7494 261.253 52.17 263.088 50.9608C264.294 50.1464 267.212 49.3598 268.17 50.9108Z" fill="#4C3E42"/>
<path opacity="0.1" d="M290.866 117.232L289.777 118.129C288.817 116.531 284.871 113.34 284.871 113.34L285.04 113.176C285.405 113.084 285.614 113.037 285.614 113.037L290.866 117.232Z" fill="black"/>
<path d="M291.919 115.622C291.919 115.622 291.526 116.595 291.122 117.437C290.719 118.279 290.287 119.041 290.253 118.421C290.209 117.195 285.132 113.087 285.132 113.087L285.82 112.42L286.619 111.645L291.919 115.622Z" fill="#E7EFFD"/>
<path opacity="0.1" d="M292.094 109.154L292.668 118.905C291.309 116.795 287.575 111.383 285.174 111.558L290.997 104.887C291.24 104.619 291.464 104.332 291.665 104.031C291.885 106.805 292.094 109.154 292.094 109.154Z" fill="black"/>
<path opacity="0.1" d="M291.919 115.622C291.919 115.622 291.526 116.595 291.122 117.437C289.596 115.347 287.502 112.882 285.831 112.42L286.63 111.645L291.919 115.622Z" fill="black"/>
<path d="M296.296 80.2631L297.872 81.4861C297.872 81.4861 300.498 81.5306 300.76 83.7098C301.022 85.889 303.431 86.9008 303.431 86.9008C303.431 86.9008 305.227 88.6908 305.227 89.5219C305.227 90.353 306.583 91.8373 306.583 91.9679C306.583 92.0986 307.898 94.7642 307.722 95.245C307.547 95.7259 309.114 97.8245 308.641 98.6111C308.246 99.3167 307.895 100.046 307.591 100.796C307.591 100.796 305.533 104.729 304.481 105.471C303.428 106.213 298.616 112.462 298.616 112.462C298.616 112.462 293.45 118.404 293.45 120.245C293.45 120.245 288.415 111.853 285.439 112.073L291.261 105.388C291.261 105.388 292.267 104.295 292.311 103.639C292.356 102.983 295.113 99.9676 296.427 99.8369C296.427 99.8369 296.644 98.0441 296.076 98.0024C295.508 97.9607 295.026 96.5598 295.026 96.5598C295.026 96.5598 291.172 92.0152 291.128 89.13C291.083 86.2448 296.296 80.2631 296.296 80.2631Z" fill="#65617D"/>
<path opacity="0.1" d="M298.616 84.4325C298.616 84.4325 294.937 87.1398 295.725 88.0154C296.514 88.891 298.616 84.4325 298.616 84.4325Z" fill="black"/>
<path opacity="0.1" d="M298.792 95.6092C298.792 95.6092 305.62 93.4245 306.31 95.6092H298.792Z" fill="black"/>
<path opacity="0.1" d="M250.613 83.8988C250.613 83.8988 250.613 93.8609 249.758 94.8448C248.903 95.8288 250.613 83.8988 250.613 83.8988Z" fill="black"/>
<path opacity="0.1" d="M290.078 87.1093L291.348 90.6699C291.348 90.6699 291.852 87.176 290.078 87.1093Z" fill="black"/>
<g opacity="0.1">
<path opacity="0.1" d="M259.137 48.915C259.457 48.095 258.619 47.2917 258.507 46.4134C258.397 46.6613 258.35 46.9323 258.368 47.2028C258.424 47.8671 258.925 48.4842 259.045 49.0985C259.081 49.0403 259.112 48.9789 259.137 48.915Z" fill="black"/>
<path opacity="0.1" d="M273.654 58.3267C273.339 56.9369 273.431 55.4887 273.113 54.1128C272.796 52.7369 271.807 51.2888 270.465 51.2665C269.886 51.2665 269.212 51.4778 268.794 51.0469C268.541 50.7857 268.491 50.3743 268.301 50.0574C267.343 48.5092 264.425 49.293 263.23 50.088C261.44 51.2749 258.981 53.7598 256.683 53.1983C256.575 53.4624 256.472 53.7292 256.385 54.0044C258.73 54.7354 261.264 52.156 263.099 50.9469C264.294 50.1547 267.21 49.3681 268.17 50.9191C268.36 51.236 268.41 51.6473 268.663 51.9086C269.081 52.3394 269.755 52.1171 270.334 52.1282C271.676 52.1504 272.657 53.5708 272.982 54.9717C273.308 56.3726 273.202 57.8625 273.539 59.2606C273.515 58.9448 273.553 58.6272 273.654 58.3267Z" fill="black"/>
<path opacity="0.1" d="M280.237 56.6867C279.997 57.3816 279.373 58.0181 278.7 57.8763C278.026 57.7346 277.697 56.9702 277.193 56.4865C276.882 56.193 276.487 56.0036 276.063 55.9448C275.64 55.886 275.208 55.9607 274.829 56.1586C274.464 56.3756 274.164 56.6863 273.959 57.0582C273.755 57.4302 273.654 57.8499 273.668 58.2738C273.843 57.74 274.21 57.2897 274.698 57.0091C275.077 56.8111 275.508 56.7365 275.932 56.7958C276.355 56.8551 276.75 57.0454 277.059 57.3399C277.563 57.818 277.895 58.5851 278.569 58.7297C279.243 58.8742 279.866 58.2349 280.106 57.54C280.229 57.1307 280.31 56.7096 280.345 56.2836C280.316 56.4198 280.28 56.5544 280.237 56.6867Z" fill="black"/>
<path opacity="0.1" d="M282.295 50.7357C281.802 52.031 280.902 53.1483 280.624 54.5103C280.563 54.7883 280.529 55.0663 280.496 55.3442C280.794 53.9878 281.682 52.8732 282.167 51.5807C282.386 50.9986 282.522 50.3885 282.57 49.7684C282.504 50.0976 282.412 50.421 282.295 50.7357Z" fill="black"/>
</g>
<path d="M219.028 82.3756C219.088 82.3756 219.137 82.3271 219.137 82.2672C219.137 82.2074 219.088 82.1588 219.028 82.1588C218.968 82.1588 218.919 82.2074 218.919 82.2672C218.919 82.3271 218.968 82.3756 219.028 82.3756Z" fill="#E6E8EC"/>
<path d="M131.512 143.257C131.512 143.257 134.575 141.064 137.758 142.423C137.758 142.423 136.867 144.307 132.913 144.282L131.512 143.257Z" fill="#4665AF"/>
<path d="M131.131 143.385C131.131 143.385 130.312 147.062 132.801 149.447C132.801 149.447 134.194 147.89 132.615 144.269L131.131 143.385Z" fill="#4665AF"/>
<path d="M127.07 140.038C127.07 140.038 127.185 136.933 134.227 137.692C134.227 137.692 134.339 139.691 131.916 140.73C129.493 141.77 128.337 141.016 127.07 140.038Z" fill="#4665AF"/>
<path d="M126.639 140.024C126.639 140.024 123.715 141.086 126.605 147.543C126.605 147.543 128.555 147.031 128.789 144.41C129.023 141.789 127.959 140.936 126.639 140.024Z" fill="#4665AF"/>
<path d="M122.506 135.794C122.506 135.794 121.91 130.715 129.089 130.963C129.089 130.963 129.774 135.555 123.818 136.969L122.506 135.794Z" fill="#4665AF"/>
<path d="M117.555 130.223C117.555 130.223 118.315 124.411 125.536 125.859C125.536 125.859 125.753 130.863 118.775 131.555L117.555 130.223Z" fill="#4665AF"/>
<path d="M113.871 124.408C113.871 124.408 115.297 118.71 122.451 120.136C122.451 120.136 120.958 125.256 114.375 125.417L113.871 124.408Z" fill="#4665AF"/>
<path d="M110.365 118.727C110.365 118.727 111.757 112.829 118.655 114.321C118.655 114.321 116.583 119.953 110.858 119.705L110.365 118.727Z" fill="#4665AF"/>
<path d="M108.034 113.293C108.034 113.293 108.995 106.113 115.444 107.442C115.444 107.442 113.84 114.007 108.549 114.313L108.034 113.293Z" fill="#4665AF"/>
<path d="M105.795 106.702C105.795 106.702 107.001 99.4505 113.531 101.296C113.531 101.296 111.261 108.192 106.291 107.689L105.795 106.702Z" fill="#4665AF"/>
<path d="M104.327 100.554C104.327 100.554 106.405 93.2688 111.406 93.2716C111.406 93.2716 109.29 100.963 104.801 101.98L104.327 100.554Z" fill="#4665AF"/>
<path d="M103.317 94.5252C103.317 94.5252 105.544 85.7667 109.632 86.2781C109.632 86.2781 108.115 92.9658 103.506 95.8677L103.317 94.5252Z" fill="#4665AF"/>
<path d="M102.595 87.3121C102.595 87.3121 104.717 80.0019 108.722 79.5627C108.722 79.5627 107.36 86.7257 102.76 89.1828L102.595 87.3121Z" fill="#4665AF"/>
<path d="M101.852 80.5995C101.852 80.5995 104.567 73.2614 107.213 72.9973C107.213 72.9973 106.185 80.1603 102.161 81.7752L101.852 80.5995Z" fill="#4665AF"/>
<path d="M101.278 74.3454C101.278 74.3454 102.818 66.4264 105.439 65.6759C105.439 65.6759 105.324 72.1079 101.568 74.9208L101.278 74.3454Z" fill="#4665AF"/>
<path d="M99.9666 66.1818C99.9666 66.1818 101.663 59.8527 103.771 58.8187C103.771 58.8187 103.629 66.2068 100.524 67.6911L99.9666 66.1818Z" fill="#4665AF"/>
<path d="M98.9334 60.8255L98.1203 49.8101C98.1203 49.8101 102.439 57.982 99.2927 62.7518L98.9334 60.8255Z" fill="#4665AF"/>
<path d="M95.4163 49.9824C95.4163 49.9824 92.225 42.0411 91.5177 41.6187C91.5177 41.6187 97.3656 46.6219 97.0872 53.3679L95.4163 49.9824Z" fill="#4665AF"/>
<path d="M122.309 135.763C122.309 135.763 117.207 135.296 117.633 142.451C117.633 142.451 122.25 143.007 123.52 137.042L122.309 135.763Z" fill="#4665AF"/>
<path d="M117.307 130.04C117.307 130.04 111.44 130.246 112.2 137.545C112.2 137.545 117.157 138.234 118.519 131.368L117.307 130.04Z" fill="#4665AF"/>
<path d="M113.832 124.887C113.832 124.887 108.41 122.596 105.249 129.159C105.249 129.159 110.248 131.049 114.341 125.907L113.832 124.887Z" fill="#4665AF"/>
<path d="M110.248 118.785C110.248 118.785 104.692 116.342 101.732 122.749C101.732 122.749 107.488 124.483 110.735 119.764L110.248 118.785Z" fill="#4665AF"/>
<path d="M108.109 113.446C108.109 113.446 102.671 108.643 98.6772 113.863C98.6772 113.863 104.197 117.774 108.393 114.549L108.109 113.446Z" fill="#4665AF"/>
<path d="M106.087 106.522C106.087 106.522 100.61 101.605 96.6611 107.117C96.6611 107.117 102.749 111.089 106.316 107.586L106.087 106.522Z" fill="#4665AF"/>
<path d="M104.862 100.323C104.862 100.323 100.549 94.0915 95.8173 95.6981C95.8173 95.6981 100.295 102.302 104.873 101.813L104.862 100.323Z" fill="#4665AF"/>
<path d="M103.434 94.4807C103.434 94.4807 99.0254 86.5867 95.2047 88.1321C95.2047 88.1321 98.396 94.2055 103.592 95.8288L103.434 94.4807Z" fill="#4665AF"/>
<path d="M102.86 86.8897C102.86 86.8897 98.4044 80.7162 94.489 81.6418C94.489 81.6418 98.176 87.932 103.339 88.7075L102.86 86.8897Z" fill="#4665AF"/>
<path d="M102.292 80.441C102.292 80.441 98.7553 73.4587 96.0958 73.4921C96.0958 73.4921 97.9365 80.491 102.116 81.639L102.292 80.441Z" fill="#4665AF"/>
<path d="M101.404 74.1842C101.404 74.1842 97.5049 67.1241 94.7703 67.2158C94.7703 67.2158 96.8644 73.3003 101.306 74.8235L101.404 74.1842Z" fill="#4665AF"/>
<path d="M100.565 66.5987C100.565 66.5987 97.6218 60.7449 95.3495 60.1584C95.3495 60.1584 96.9841 67.3659 100.329 68.1914L100.565 66.5987Z" fill="#4665AF"/>
<path d="M98.602 60.6281L92.1804 51.6334C92.1804 51.6334 94.0852 60.6726 99.5544 62.3487L98.602 60.6281Z" fill="#4665AF"/>
<path d="M94.0546 50.7773C94.0546 50.7773 86.8143 46.1882 86.5358 45.4155C86.5358 45.4155 90.3955 52.0865 97.09 53.0288L94.0546 50.7773Z" fill="#4665AF"/>
<path d="M93.5477 48.6093C93.5477 48.6093 85.1545 41.1517 83.0883 41.2379C83.0883 41.2379 89.7716 41.2879 93.726 48.1868L93.5477 48.6093Z" fill="#4665AF"/>
<path d="M100.532 67.755L100.237 67.805C98.2595 55.9779 95.7811 49.0373 93.2331 48.2646L93.3194 47.9866C96.0123 48.7983 98.5046 55.6388 100.532 67.755Z" fill="#444053"/>
<path d="M103.857 96.0901L103.414 96.1457C103.278 95.0338 103.163 93.9053 103.069 92.7768C102.267 82.9538 101.262 73.9452 100.136 67.2047L100.382 66.8767C101.495 73.6283 102.712 82.9038 103.517 92.7268C103.606 93.8636 103.723 94.9949 103.857 96.0901Z" fill="#444053"/>
<path d="M140.045 148.599C139.964 148.566 131.986 145.372 123.523 137.342C118.568 132.643 114.39 127.191 111.145 121.187C107.087 113.682 104.431 104.365 103.311 95.259L103.784 95.4591C106.291 115.895 116.188 129.553 123.915 136.892C132.295 144.849 140.184 148.01 140.262 148.046L140.045 148.599Z" fill="#444053"/>
<g opacity="0.7">
<path opacity="0.7" d="M145.589 139.532C145.589 139.532 149.17 138.351 151.799 140.586C151.799 140.586 150.387 142.123 146.619 140.922L145.589 139.532Z" fill="#4665AF"/>
<path opacity="0.7" d="M145.185 139.538C145.185 139.538 143.308 142.806 144.979 145.825C144.979 145.825 146.77 144.749 146.344 140.822L145.185 139.538Z" fill="#4665AF"/>
<path opacity="0.7" d="M142.306 135.14C142.306 135.14 143.342 132.208 149.825 135.026C149.825 135.026 149.334 136.972 146.711 137.25C144.088 137.528 143.225 136.45 142.306 135.14Z" fill="#4665AF"/>
<path opacity="0.7" d="M141.899 135.021C141.899 135.021 138.789 135.168 139.627 142.189C139.627 142.189 141.626 142.278 142.643 139.849C143.659 137.42 142.888 136.261 141.899 135.021Z" fill="#4665AF"/>
<path opacity="0.7" d="M139.212 129.74C139.212 129.74 140.159 124.714 146.937 127.082C146.937 127.082 146.221 131.669 140.114 131.252L139.212 129.74Z" fill="#4665AF"/>
<path opacity="0.7" d="M136.146 122.944C136.146 122.944 138.605 117.621 145.057 121.148C145.057 121.148 143.779 125.976 136.906 124.575L136.146 122.944Z" fill="#4665AF"/>
<path opacity="0.7" d="M134.361 116.298C134.361 116.298 137.424 111.28 143.829 114.766C143.829 114.766 140.877 119.213 134.545 117.423L134.361 116.298Z" fill="#4665AF"/>
<path opacity="0.7" d="M132.71 109.832C132.71 109.832 135.789 104.612 141.941 108.087C141.941 108.087 138.285 112.848 132.885 110.911L132.71 109.832Z" fill="#4665AF"/>
<path opacity="0.7" d="M132.105 103.951C132.105 103.951 135.168 97.377 140.916 100.565C140.916 100.565 137.427 106.355 132.284 105.076L132.105 103.951Z" fill="#4665AF"/>
<path opacity="0.7" d="M131.93 96.9963C131.93 96.9963 135.244 90.4309 140.927 94.1333C140.927 94.1333 136.703 100.043 132.105 98.072L131.93 96.9963Z" fill="#4665AF"/>
<path opacity="0.7" d="M132.364 90.6838C132.364 90.6838 136.519 84.3464 141.292 85.8334C141.292 85.8334 136.979 92.5489 132.381 92.1876L132.364 90.6838Z" fill="#4665AF"/>
<path opacity="0.7" d="M133.194 84.6327C133.194 84.6327 137.928 76.9304 141.682 78.6371C141.682 78.6371 138.237 84.5687 132.98 85.9724L133.194 84.6327Z" fill="#4665AF"/>
<path opacity="0.7" d="M134.659 77.5308C134.659 77.5308 138.864 71.1851 142.813 71.9522C142.813 71.9522 139.379 78.3869 134.252 79.3681L134.659 77.5308Z" fill="#4665AF"/>
<path opacity="0.7" d="M135.945 70.9043C135.945 70.9043 140.727 64.7031 143.331 65.2367C143.331 65.2367 140.214 71.7687 135.893 72.119L135.945 70.9043Z" fill="#4665AF"/>
<path opacity="0.7" d="M137.263 64.7615C137.263 64.7615 141.092 57.6596 143.821 57.7208C143.821 57.7208 141.793 63.8359 137.366 65.398L137.263 64.7615Z" fill="#4665AF"/>
<path opacity="0.7" d="M138.446 56.5784C138.446 56.5784 141.949 51.0414 144.272 50.6773C144.272 50.6773 141.933 57.6902 138.527 58.1822L138.446 56.5784Z" fill="#4665AF"/>
<path opacity="0.7" d="M139.053 51.1554L141.559 40.4012C141.559 40.4012 143.25 49.4821 138.83 53.1122L139.053 51.1554Z" fill="#4665AF"/>
<path opacity="0.7" d="M138.928 39.7619C138.928 39.7619 138.248 31.2314 137.694 30.6171C137.694 30.6171 141.796 37.138 139.504 43.4865L138.928 39.7619Z" fill="#4665AF"/>
<path opacity="0.7" d="M139.034 129.645C139.034 129.645 134.3 127.68 132.579 134.648C132.579 134.648 136.814 136.564 139.819 131.232L139.034 129.645Z" fill="#4665AF"/>
<path opacity="0.7" d="M135.965 122.693C135.965 122.693 130.304 121.148 128.85 128.353C128.85 128.353 133.375 130.485 136.725 124.333L135.965 122.693Z" fill="#4665AF"/>
<path opacity="0.7" d="M134.183 116.742C134.183 116.742 129.691 112.945 124.715 118.274C124.715 118.274 128.922 121.562 134.364 117.868L134.183 116.742Z" fill="#4665AF"/>
<path opacity="0.7" d="M132.579 109.855C132.579 109.855 128.006 105.871 123.269 111.116C123.269 111.116 128.246 114.48 132.754 110.936L132.579 109.855Z" fill="#4665AF"/>
<path opacity="0.7" d="M132.13 104.12C132.13 104.12 128.368 97.9191 123.002 101.716C123.002 101.716 127.104 107.092 132.072 105.257L132.13 104.12Z" fill="#4665AF"/>
<path opacity="0.7" d="M132.264 96.9073C132.264 96.9073 128.499 90.5893 123.074 94.6836C123.074 94.6836 127.703 100.284 132.153 97.9997L132.264 96.9073Z" fill="#4665AF"/>
<path opacity="0.7" d="M132.938 90.6254C132.938 90.6254 130.679 83.3985 125.681 83.5236C125.681 83.5236 127.989 91.1619 132.503 92.0652L132.938 90.6254Z" fill="#4665AF"/>
<path opacity="0.7" d="M133.319 84.6243C133.319 84.6243 131.462 75.7797 127.354 76.1215C127.354 76.1215 128.591 82.8676 133.069 85.9585L133.319 84.6243Z" fill="#4665AF"/>
<path opacity="0.7" d="M135.035 77.2056C135.035 77.2056 132.62 69.9787 128.605 69.7007C128.605 69.7007 130.253 76.8054 134.948 79.0763L135.035 77.2056Z" fill="#4665AF"/>
<path opacity="0.7" d="M136.413 70.8821C136.413 70.8821 135.118 63.166 132.568 62.4127C132.568 62.4127 132.239 69.6396 135.89 71.98L136.413 70.8821Z" fill="#4665AF"/>
<path opacity="0.7" d="M137.444 64.6447C137.444 64.6447 135.82 56.7451 133.189 56.028C133.189 56.028 133.372 62.4572 137.162 65.2312L137.444 64.6447Z" fill="#4665AF"/>
<path opacity="0.7" d="M138.892 57.1565C138.892 57.1565 137.825 50.694 135.828 49.4543C135.828 49.4543 135.241 56.8229 138.187 58.6046L138.892 57.1565Z" fill="#4665AF"/>
<path opacity="0.7" d="M138.797 50.8719L135.347 40.379C135.347 40.379 134.47 49.5766 139.192 52.8009L138.797 50.8719Z" fill="#4665AF"/>
<path opacity="0.7" d="M137.391 40.1177C137.391 40.1177 131.846 33.5857 131.821 32.7629C131.821 32.7629 133.517 40.2678 139.618 43.1641L137.391 40.1177Z" fill="#4665AF"/>
<path opacity="0.7" d="M137.552 37.8968C137.552 37.8968 131.763 28.2822 129.755 27.7513C129.755 27.7513 136.126 29.786 137.831 37.5466L137.552 37.8968Z" fill="#4665AF"/>
<path opacity="0.7" d="M138.513 58.2489L138.218 58.2072C139.855 46.3301 139.549 38.9642 137.354 37.4715L137.524 37.2269C139.85 38.8085 140.192 46.0743 138.513 58.2489Z" fill="#444053"/>
<path opacity="0.7" d="M133.244 86.2893L132.804 86.2087C133.005 85.1108 133.23 83.9851 133.481 82.8899C135.642 73.2753 137.38 64.3751 138.301 57.5957L138.633 57.3567C137.697 64.1361 136.082 73.3504 133.915 82.9761C133.67 84.0879 133.442 85.1969 133.244 86.2893Z" fill="#444053"/>
<path opacity="0.7" d="M152.141 147.165C152.075 147.112 145.408 141.689 139.724 131.513C136.389 125.556 134.021 119.109 132.71 112.412C131.072 104.04 131.317 94.3445 132.957 85.3331L133.35 85.6639C129.66 105.921 135.021 121.898 140.22 131.199C145.848 141.283 152.437 146.648 152.503 146.701L152.141 147.165Z" fill="#444053"/>
</g>
<path d="M85.5917 121.559C84.937 121.829 84.257 122.032 83.5617 122.165C82.3467 122.392 81.1135 122.509 79.8774 122.513C79.9136 122.838 79.9415 123.141 79.9693 123.416C80.0362 124.172 80.0752 124.692 80.0752 124.692L78.7691 124.603L67.9977 123.869L61.6987 122.938C62.0027 123.345 62.3329 123.732 62.6872 124.097C63.0542 124.485 63.4787 124.814 63.946 125.073C63.946 125.073 69.6296 129.667 70.6126 129.709C70.7519 129.709 70.7964 129.848 70.7741 130.068C73.1662 130.068 80.6043 130.415 78.5408 134.548C78.1994 135.285 77.5974 135.87 76.8504 136.191C74.4639 137.2 70.8632 135.385 69.0086 134.27C68.8276 134.623 68.6549 134.951 68.5018 135.232C68.1871 135.824 67.9671 136.216 67.9671 136.216L67.7805 136.083L58.2233 129.289L56.1292 127.516C55.5141 127.488 54.9049 127.382 54.3163 127.202L54.0378 127.113C54.0257 127.137 54.0155 127.162 54.0072 127.188C53.931 127.405 53.8741 127.628 53.8373 127.855C53.8373 127.888 53.8373 127.922 53.8373 127.955C53.7983 128.214 53.7722 128.475 53.7594 128.736C53.7594 128.914 53.7454 129.103 53.7454 129.292C53.7287 133.078 55.2492 139.162 55.2492 139.162C55.2492 139.162 59.1896 149.194 57.7917 151.509C57.7196 151.627 57.625 151.729 57.5132 151.809C57.0203 152.165 56.7251 152.799 56.572 153.552C56.0512 156.009 56.9646 159.759 56.9646 159.759C56.9646 159.759 56.8811 159.898 56.739 160.115C56.4318 160.605 56.0853 161.07 55.7031 161.505C55.6446 161.571 55.5834 161.641 55.5193 161.705C55.3469 161.886 55.1607 162.053 54.9624 162.205C54.9986 162.314 55.0376 162.425 55.0766 162.544C55.1155 162.664 55.1657 162.85 55.2047 163.017C55.5148 164.383 55.3932 165.811 54.8566 167.106C54.4916 168.049 54.2555 169.037 54.1548 170.044C53.9737 171.886 54.0214 173.744 54.2968 175.575C54.2551 175.553 54.2189 175.53 54.1771 175.511C51.0972 173.904 48.0609 172.226 45.0682 170.477C44.191 169.971 43.3194 169.454 42.4533 168.934C41.3877 168.293 40.3267 167.645 39.2704 166.989C37.878 166.122 36.4856 165.232 35.0933 164.323L34.4416 163.89L34.191 163.72C33.8373 163.484 33.4893 163.247 33.1384 163.008C31.6987 161.151 30.3833 159.201 29.2008 157.171C29.003 156.818 28.8248 156.482 28.6772 156.173V156.157L28.5825 155.954L28.1899 155.815C27.4519 155.556 26.9841 155.376 26.9841 155.376C27.3247 154.135 27.4878 152.853 27.4686 151.568C27.4464 149.066 26.753 145.731 23.8958 143.057C19.6742 139.073 19.0922 135.14 19.0309 133.631C19.0309 133.525 19.0309 133.431 19.0309 133.353C19.0295 133.226 19.0351 133.099 19.0476 132.972L19.3706 132.664C18.5519 132.5 17.7833 132.425 17.7833 132.425C17.7833 132.425 20.5848 122.307 25.3021 118.93C27.6413 117.262 29.5878 114.483 30.9635 112.098C33.473 107.788 36.2911 103.664 39.3957 99.7591L40.245 98.6889L40.4929 98.3748L40.5458 98.3109L40.6126 98.222C40.4975 98.0478 40.3806 97.8754 40.2617 97.705L40.1838 97.591C39.8134 97.0351 39.4959 96.4792 39.5461 95.8149C39.5461 95.8149 39.5461 95.801 39.5461 95.7954C39.5461 95.7481 39.5461 95.7037 39.5461 95.6536C39.5579 95.5429 39.5784 95.4332 39.6073 95.3256C39.6168 95.3433 39.628 95.3601 39.6407 95.3757C40.039 94.2194 41.5734 93.7079 42.704 93.0686C45.369 91.5732 46.5051 88.3016 47.076 85.258C47.5188 82.8898 47.8864 80.2353 49.7243 78.7149C50.9106 77.7365 52.509 77.414 53.7092 76.444C54.4037 75.8315 54.9778 75.0953 55.4024 74.2731C55.6808 73.8006 55.9203 73.3114 56.1793 72.8388C57.3656 70.6986 58.9251 68.7084 60.9886 67.427C63.052 66.1456 65.6697 65.6481 67.9309 66.5097C68.8025 66.8405 69.6018 67.3436 70.4372 67.7133C70.953 67.9233 71.4859 68.0888 72.03 68.2081C73.7315 68.6055 75.5221 68.7084 77.1206 69.4172C79.7187 70.5679 81.4091 73.114 82.9518 75.5323C83.751 76.7831 85.0069 78.612 85.7198 80.4521C85.7198 80.3854 85.7198 80.3243 85.7198 80.2603C86.0636 81.0706 86.2525 81.9379 86.2768 82.8175C86.2907 83.192 86.2504 83.5664 86.157 83.9294C85.9008 84.8744 85.2464 85.472 84.4249 85.9112L84.294 85.9751C84.1184 86.0652 83.938 86.146 83.7538 86.217C83.726 86.3698 83.6953 86.5255 83.6619 86.6756C83.648 86.7395 83.6313 86.8062 83.6146 86.8702C83.5784 87.0258 83.5366 87.1787 83.492 87.3316C82.8968 89.3182 81.7358 91.0893 80.1504 92.4293C79.0524 93.3669 77.7835 94.0842 76.4132 94.5418C76.3158 94.5752 76.2127 94.6002 76.1153 94.6307C76.0324 94.8634 75.9141 95.0818 75.7644 95.2784C75.6559 95.4169 75.5284 95.5395 75.3857 95.6425C75.2967 95.7027 75.2037 95.7566 75.1072 95.8037C75.0836 95.8185 75.0583 95.8307 75.032 95.8399C74.0295 96.2902 72.6566 95.9372 71.6903 95.2645C71.6402 95.2311 71.5928 95.1922 71.5455 95.1561C71.5455 95.3145 71.5204 95.4813 71.4926 95.6536C71.4647 95.826 71.4453 95.9316 71.4146 96.0761C71.384 96.2207 71.3729 96.2902 71.3534 96.393C71.3339 96.4958 71.3199 96.5653 71.3032 96.6459L71.2698 96.7877C70.7182 99.4706 69.6658 102.026 68.1676 104.32C67.9504 104.649 67.7152 104.965 67.4631 105.268L66.7725 106.319V106.461C66.9033 108.879 66.1069 111.133 64.9819 113.073C64.6052 113.716 64.1914 114.337 63.7427 114.933L63.8986 115.025C65.4581 115.911 68.5324 117.487 70.4762 117.354C70.4762 117.354 77.8279 118.302 78.68 117.826C78.797 117.76 78.9111 117.851 79.017 118.049C80.206 117.326 82.9407 115.794 85.0988 115.592C86.6082 115.447 87.8362 115.95 88.0646 117.815C88.2929 119.68 87.1679 120.884 85.5917 121.559Z" fill="url(#paint0_linear)"/>
<path d="M45.3495 159.781C45.8202 160.583 46.101 161.481 46.1705 162.408C46.24 163.334 46.0964 164.264 45.7505 165.126C45.0738 166.819 44.9986 168.929 45.0682 170.477C44.1911 169.971 43.3194 169.454 42.4534 168.934C41.3878 168.293 40.3268 167.645 39.2704 166.989C37.8781 166.122 36.4857 165.232 35.0933 164.323L34.4417 163.89L34.1911 163.72C34.1692 163.68 34.142 163.642 34.1103 163.609C33.7371 163.214 31.5623 160.101 30.2701 157.738C30.0362 157.305 29.8329 156.904 29.6714 156.538V156.518C29.3929 155.901 29.2621 155.406 29.3456 155.181C29.4469 154.827 29.6186 154.496 29.8507 154.21C30.0828 153.923 30.3703 153.686 30.6962 153.513C32.3002 152.68 34.8733 153.449 37.4186 154.675C39.6085 155.78 41.7073 157.056 43.6954 158.492L43.9209 158.656L43.9432 158.672C44.7786 159.264 45.2632 159.656 45.2632 159.656C45.2632 159.656 45.2994 159.701 45.3495 159.781Z" fill="#FBBEBE"/>
<path opacity="0.05" d="M44.9262 159.412C45.3978 160.214 45.6791 161.113 45.7486 162.041C45.8181 162.968 45.674 163.899 45.3272 164.762C44.6505 166.455 44.5753 168.565 44.645 170.116C43.7687 169.606 42.8971 169.091 42.0301 168.57C40.9626 167.929 39.9016 167.281 38.8471 166.625C37.4548 165.755 36.0624 164.865 34.6839 163.956L34.0323 163.523L33.7817 163.353C33.7591 163.313 33.732 163.276 33.7009 163.242C33.3278 162.85 31.1529 159.737 29.8608 157.371C29.6269 156.938 29.4236 156.538 29.2621 156.171V156.154C28.9836 155.534 28.8527 155.042 28.9362 154.814C29.0379 154.46 29.2099 154.13 29.4419 153.843C29.6739 153.557 29.9613 153.32 30.2868 153.146C31.8909 152.313 34.464 153.083 37.0092 154.308C39.1991 155.413 41.2979 156.689 43.286 158.125L43.5116 158.289L43.5339 158.305C44.3693 158.897 44.8538 159.289 44.8538 159.289C44.8538 159.289 44.8761 159.331 44.9262 159.412Z" fill="black"/>
<path d="M55.1796 166.152C55.0986 166.628 54.967 167.094 54.787 167.542C54.4786 168.348 54.2664 169.188 54.1548 170.044C53.9355 171.86 53.943 173.696 54.1771 175.511C51.0972 173.904 48.0609 172.226 45.0682 170.477C44.191 169.971 43.3194 169.454 42.4534 168.934C42.2584 167.456 41.9799 166.155 41.6653 165.835C41.2531 165.402 38.9 162.044 37.438 159.395C37.2487 159.061 37.0844 158.739 36.9312 158.433V158.419C36.8727 158.297 36.817 158.18 36.7641 158.064C36.3882 157.257 36.1877 156.629 36.2879 156.326C36.4834 155.667 36.8855 155.089 37.4353 154.675C39.9053 152.874 45.0404 155.312 48.9836 157.733L49.081 157.791C49.8273 158.255 50.5347 158.714 51.1696 159.142L51.54 159.392C53.1718 160.504 54.2551 161.368 54.2551 161.368C54.5242 161.783 54.7403 162.229 54.8984 162.697C54.9914 162.961 55.0685 163.23 55.1295 163.503C55.3222 164.374 55.3392 165.275 55.1796 166.152Z" fill="#FBBEBE"/>
<path opacity="0.1" d="M30.284 157.738C32.3085 158.444 35.2965 159.381 36.9228 159.406C37.0912 159.411 37.2598 159.403 37.4269 159.381C38.5714 159.225 42.0997 159.476 45.3383 159.767C46.636 159.881 47.8864 160.001 48.9195 160.107L51.5149 160.385V159.384C50.7936 158.889 49.9554 158.339 49.0587 157.783C45.1016 155.342 39.9025 152.849 37.4129 154.664C33.907 152.974 30.3481 152.163 29.3372 155.17C29.2202 155.562 29.6463 156.557 30.284 157.738Z" fill="black"/>
<path d="M20.5569 134.443C20.6126 135.941 21.1752 139.83 25.2047 143.757C30.3453 148.76 28.1537 155.954 28.1537 155.954C28.1537 155.954 34.2801 158.355 36.9229 158.419C37.0913 158.425 37.2598 158.416 37.4269 158.394C39.0114 158.175 45.3105 158.756 48.9307 159.12L51.526 159.398V138.128L23.1384 131.246L20.5681 133.803C20.5507 134.016 20.547 134.23 20.5569 134.443Z" fill="#5C5C8E"/>
<g opacity="0.1">
<path opacity="0.1" d="M51.061 159.134L51.526 159.181V159.409L48.9307 159.131C46.3325 158.87 42.3615 158.497 39.741 158.389C41.5539 158.228 47.555 158.781 51.061 159.134Z" fill="black"/>
<path opacity="0.1" d="M20.5681 133.817L23.1384 131.26L24.8538 131.674L22.7123 133.817C22.6987 134.03 22.6987 134.244 22.7123 134.457C22.768 135.955 23.3306 139.841 27.3601 143.771C32.5007 148.774 30.3091 155.965 30.3091 155.965C30.3091 155.965 35.3773 157.952 38.2818 158.361C38.0026 158.36 37.7237 158.376 37.4464 158.408C37.2793 158.43 37.1108 158.438 36.9424 158.433C34.2996 158.367 28.1732 155.965 28.1732 155.965C28.1732 155.965 30.3648 148.774 25.2242 143.771C21.1752 139.841 20.6126 135.955 20.5569 134.465C20.5466 134.249 20.5504 134.033 20.5681 133.817Z" fill="black"/>
</g>
<path d="M77.2932 119.422C77.2932 119.422 85.8786 113.479 86.5051 118.827C87.1317 124.175 77.2932 123.424 77.2932 123.424V119.422Z" fill="#FBBEBE"/>
<path d="M62.4896 115.48C62.4896 115.48 67.1317 118.538 69.702 118.357C69.702 118.357 76.7196 119.297 77.5355 118.827C78.3514 118.357 78.8527 125.615 78.8527 125.615L67.3211 124.8L59.9248 123.675C59.9248 123.675 56.2267 121.423 56.2267 119.483C56.2267 117.543 62.4896 115.48 62.4896 115.48Z" fill="#F7CDDD"/>
<path d="M62.4896 115.48C62.4896 115.48 67.1317 118.538 69.702 118.357C69.702 118.357 76.7196 119.297 77.5355 118.827C78.3514 118.357 78.8527 125.615 78.8527 125.615L67.3211 124.8L59.9248 123.675C59.9248 123.675 56.2267 121.423 56.2267 119.483C56.2267 117.543 62.4896 115.48 62.4896 115.48Z" fill="#4665AF"/>
<path d="M69.2955 130.946C69.2955 130.946 79.7355 130.515 77.3963 135.368C75.0571 140.221 67.1484 134.329 67.1484 134.329L69.2955 130.946Z" fill="#FBBEBE"/>
<path d="M58.797 120.609C58.797 120.609 67.257 114.291 66.0679 106.597C64.8789 98.903 58.797 112.478 58.797 112.478V120.609Z" fill="#5C5C8E"/>
<path d="M61.1417 85.7278C61.1433 88.4954 62.2216 91.1543 64.1492 93.1437C65.1889 94.2151 66.4408 95.0586 67.8251 95.6203C68.2715 95.8066 68.7314 95.959 69.2008 96.0762C69.6994 96.2046 70.2066 96.2975 70.7184 96.3541C71.086 96.3902 71.4564 96.4097 71.8323 96.4097C73.029 96.4072 74.2165 96.2014 75.3439 95.801C77.1985 95.1579 78.84 94.0177 80.0884 92.5051C81.3368 90.9926 82.1439 89.1662 82.4213 87.2261C82.6986 85.2861 82.4355 83.3072 81.6608 81.5066C80.8861 79.7059 79.6296 78.1528 78.0292 77.0177C76.4287 75.8825 74.5461 75.2091 72.5876 75.0712C70.6291 74.9333 68.6704 75.3363 66.9262 76.2359C65.1819 77.1355 63.7195 78.4971 62.6991 80.1714C61.6788 81.8457 61.14 83.7681 61.1417 85.7278Z" fill="#FBBEBE"/>
<path opacity="0.1" d="M20.5569 134.443C21.5149 134.618 22.6984 134.94 22.6984 135.435C22.6984 136.269 36.0652 140.775 36.0652 140.775C36.0652 140.775 35.5639 141.939 36.9006 143.943C38.2373 145.947 49.1061 157.455 49.1061 157.455L49.0699 157.794L48.9307 159.12L48.2679 165.46C48.2679 165.46 52.445 163.959 53.7817 164.126C54.2133 164.179 54.6839 163.903 55.1156 163.503C54.9567 162.746 54.6614 162.023 54.2439 161.371C54.2439 161.371 53.1607 160.521 51.526 159.395V138.128L23.1384 131.246L20.5681 133.803C20.5507 134.016 20.547 134.23 20.5569 134.443Z" fill="black"/>
<path d="M19.3539 133.267C19.3539 133.267 22.6956 133.598 22.6956 134.434C22.6956 135.271 36.0624 139.774 36.0624 139.774C36.0624 139.774 35.5611 140.939 36.8978 142.943C38.2345 144.947 49.1033 156.454 49.1033 156.454L48.2679 164.459C48.2679 164.459 52.445 162.958 53.7817 163.125C54.3804 163.2 55.0404 162.647 55.5862 162.013C56.0389 161.479 56.4425 160.905 56.792 160.298C56.792 160.298 55.2854 153.955 57.2932 152.454C59.301 150.953 55.1211 139.946 55.1211 139.946C55.1211 139.946 53.2303 132.119 53.7872 128.761C53.8227 128.538 53.8767 128.317 53.9488 128.102C53.9488 128.077 53.9627 128.052 53.9738 128.027C55.1657 124.82 67.9866 97.9107 67.9866 97.9107C67.9784 97.1475 67.9245 96.3854 67.8251 95.6286C67.8001 95.4174 67.7666 95.1978 67.7249 94.9782C67.6602 94.5782 67.5737 94.182 67.4659 93.7913C67.3935 93.5356 67.3155 93.291 67.2236 93.0575C66.8282 92.0402 66.2211 91.2591 65.3133 91.2397C65.3133 91.2397 64.3108 90.1278 61.9716 89.8332C60.2451 89.6081 57.7945 89.8332 54.4528 91.2397C46.5998 94.5752 44.7619 94.7419 44.7619 94.7419L40.8131 99.9036L40 100.965C37.028 104.835 34.3376 108.912 31.9493 113.165C30.6349 115.522 28.7747 118.271 26.5441 119.922C22.0301 123.26 19.3539 133.267 19.3539 133.267Z" fill="#4665AF"/>
<path opacity="0.1" d="M48.6438 113.979C48.6438 113.979 37.4882 116.731 33.1635 123.675L48.6438 113.979Z" fill="black"/>
<path opacity="0.1" d="M45.1963 126.176C45.1963 126.176 43.0883 140.313 43.6731 141.378C44.2579 142.442 45.1963 126.176 45.1963 126.176Z" fill="black"/>
<path opacity="0.1" d="M45.951 133.434C46.7641 134.496 50.0585 142.692 50.0585 142.692L49.1061 156.454L48.2707 164.459C48.2707 164.459 52.4478 162.958 53.7872 163.125C54.3832 163.2 55.0459 162.65 55.5917 162.013C54.7229 157.324 52.8683 147.515 52.5285 147.326C52.0857 147.076 49.8301 139.193 49.7104 137.003C49.5906 134.812 46.4494 129.876 46.4494 129.876C46.4494 129.876 45.135 132.372 45.951 133.434Z" fill="black"/>
<path opacity="0.1" d="M49.1061 119.922C49.3094 120.548 49.6324 124.175 49.6324 124.175C49.8608 127.374 52.2835 128.419 53.7873 128.753C53.8227 128.529 53.8767 128.309 53.9488 128.094C54.9513 125.262 67.9866 97.9024 67.9866 97.9024C67.9732 96.5138 67.7984 95.1314 67.4659 93.783C64.6283 92.9491 60.1337 94.2333 60.1337 94.2333C58.836 94.0638 54.6004 102.472 54.6004 102.472C54.6004 102.472 51.7767 108.912 51.4676 109.788C51.1585 110.663 51.4676 112.106 51.3423 112.606C51.217 113.107 49.897 113.54 49.7104 114.232C49.5238 114.924 49.6464 116.292 49.521 116.542C49.3957 116.792 48.8889 119.297 49.1061 119.922Z" fill="black"/>
<path d="M50.1086 119.422C50.3147 120.047 50.6349 123.675 50.6349 123.675C50.8243 126.337 52.5397 127.508 53.9766 128.019C54.6219 128.249 55.2973 128.384 55.9816 128.419L57.9978 130.165L67.3016 137.017C67.3016 137.017 70.7714 130.624 69.8301 130.582C68.8889 130.54 63.4614 125.996 63.4614 125.996C61.7906 125.112 60.1365 122.154 59.3651 120.637C59.4106 120.454 59.4441 120.268 59.4653 120.081C59.8023 117.248 66.8198 106.405 66.8198 106.405C66.8198 106.405 69.5322 103.217 70.5904 97.3103C70.621 97.1769 70.6405 97.0323 70.6656 96.8961C70.6956 96.7121 70.7142 96.5265 70.7213 96.3402C70.8466 94.0693 69.1924 93.2438 67.2264 93.0464C66.2049 92.9671 65.1778 92.9988 64.1632 93.1409C63.1482 93.2675 62.1433 93.4644 61.1557 93.7302C60.3203 93.6218 58.2428 97.1102 56.8839 99.5812C56.1515 100.921 55.6252 101.969 55.6252 101.969C55.6252 101.969 52.7875 108.412 52.4701 109.287C52.1526 110.163 52.4701 111.603 52.3448 112.106C52.2194 112.609 50.8995 113.04 50.7157 113.732C50.5319 114.424 50.6488 115.792 50.5235 116.042C50.3982 116.292 49.897 118.796 50.1086 119.422Z" fill="#4665AF"/>
<path opacity="0.1" d="M39.3122 105.001C41.0777 106.814 43.9571 106.819 46.2573 105.899C48.5575 104.979 50.5096 103.3 52.6455 102.008C54.0379 101.174 55.4971 100.471 56.8616 99.6007C57.0621 99.47 57.2571 99.3394 57.4464 99.206C59.0226 98.0941 60.3843 96.6682 62.0134 95.6481C63.1052 94.9272 64.3754 94.5212 65.6837 94.4751C66.2873 94.4691 66.885 94.5943 67.4353 94.842C67.5314 94.8837 67.6244 94.932 67.7138 94.9866C68.2492 95.2959 68.7448 95.6693 69.1897 96.0984C69.6492 96.5126 70.0919 96.9545 70.582 97.3381C70.6127 97.2047 70.6322 97.0601 70.6572 96.9239C70.6872 96.74 70.7058 96.5543 70.7129 96.368C71.0805 96.4042 71.4509 96.4236 71.8268 96.4236C73.0261 96.4173 74.2156 96.2068 75.3439 95.801C75.3439 95.7565 75.3607 95.7093 75.369 95.6648C75.77 93.5634 76.4829 91.337 78.1872 90.1557C79.1702 89.4691 80.7408 89.1911 82.0997 88.6686C82.5711 87.0298 82.6423 85.3021 82.3074 83.6301C81.9725 81.9582 81.2411 80.3907 80.1746 79.0589C79.1081 77.727 77.7374 76.6695 76.1773 75.975C74.6173 75.2805 72.9132 74.9692 71.2078 75.067C69.5024 75.1649 67.8454 75.6691 66.3753 76.5375C64.9053 77.4059 63.6651 78.6132 62.7585 80.0583C61.8519 81.5033 61.3053 83.1442 61.1646 84.8434C61.0238 86.5426 61.2929 88.2508 61.9493 89.8249C60.2228 89.5997 57.7722 89.8249 54.4305 91.2314C46.5776 94.5669 44.7397 94.7336 44.7397 94.7336L40.8132 99.9037C41.2392 100.554 41.721 101.196 41.7656 101.955C41.8547 103.361 40.4957 104.332 39.3122 105.001Z" fill="black"/>
<path d="M78.201 89.1578C76.5051 90.3419 75.7839 92.5655 75.3829 94.6641C75.2576 95.3201 75.1378 96.0122 74.7368 96.532C73.8374 97.6967 72.0273 97.3659 70.8521 96.532C69.677 95.6981 68.7524 94.4306 67.4408 93.8386C65.6976 93.0548 63.6508 93.6273 62.0217 94.6475C60.3926 95.6676 59.0281 97.0935 57.452 98.2025C55.9287 99.2755 54.23 100.04 52.6427 101.004C50.5096 102.302 48.5603 103.979 46.2573 104.896C43.9543 105.813 41.0777 105.813 39.3149 104.001C40.4985 103.345 41.8574 102.375 41.7655 100.971C41.6736 99.5673 40.0334 98.5138 40.1448 97.0796C40.2562 95.6453 41.9521 95.0727 43.169 94.3667C45.7171 92.888 46.7892 89.6414 47.3461 86.6395C47.7694 84.2963 48.1175 81.6752 49.8747 80.1714C51.0053 79.2013 52.5397 78.8845 53.6786 77.9255C54.7591 77.0138 55.3495 75.6324 56.0401 74.3621C57.1735 72.2413 58.6605 70.2733 60.6293 69.0058C62.5982 67.7384 65.1016 67.2491 67.2626 68.1025C68.098 68.4277 68.8443 68.9364 69.663 69.2894C71.6959 70.1677 74.0267 70.051 76.0429 70.9738C78.5241 72.1134 80.1364 74.6317 81.6124 77.0221C82.8738 79.0651 85.3411 82.6814 84.6505 85.322C83.946 88.0154 80.0418 87.8708 78.201 89.1578Z" fill="#7C5C5C"/>
<g opacity="0.1">
<path opacity="0.1" d="M40.1449 96.9045C40.1539 96.7945 40.1735 96.6856 40.2033 96.5793C40.6517 97.2853 41.2114 97.9691 41.2643 98.8029C41.2771 98.9942 41.2611 99.1862 41.217 99.3727C40.7185 98.5722 40.0752 97.8245 40.1449 96.9045Z" fill="black"/>
<path opacity="0.1" d="M45.7561 102.725C48.0591 101.802 50.0084 100.126 52.1415 98.8335C53.7288 97.869 55.4275 97.1046 56.9507 96.0317C58.5269 94.9199 59.8914 93.4939 61.5205 92.4766C63.1496 91.4593 65.1964 90.8839 66.9396 91.6677C68.2512 92.2598 69.1674 93.5134 70.3509 94.3612C71.5344 95.2089 73.3361 95.5397 74.2356 94.3751C74.6394 93.8553 74.7564 93.1659 74.8817 92.51C75.2827 90.4086 75.9956 88.1849 77.6998 87.0008C79.5433 85.7167 83.4448 85.8612 84.1521 83.1511C84.2699 82.6703 84.301 82.1724 84.244 81.6807C84.6979 82.8843 84.929 84.0962 84.6561 85.1524C83.946 87.8625 80.0446 87.718 78.2011 89.0021C76.508 90.1862 75.7839 92.4099 75.3829 94.5113C75.2576 95.1672 75.1407 95.8593 74.7397 96.3763C73.8374 97.541 72.0273 97.2102 70.841 96.3625C69.6547 95.5147 68.7413 94.2611 67.4297 93.669C65.6865 92.8852 63.6397 93.4606 62.0106 94.4779C60.3815 95.4952 59.017 96.9239 57.4408 98.033C55.9176 99.1087 54.2189 99.8703 52.6316 100.835C50.4985 102.136 48.5492 103.809 46.2462 104.726C43.9432 105.643 41.0666 105.641 39.3038 103.828C39.7593 103.582 40.1918 103.296 40.596 102.972C42.2055 103.559 44.127 103.375 45.7561 102.725Z" fill="black"/>
</g>
<path d="M227.112 75.4378L215.695 63.9776C215.135 63.4063 214.467 62.9513 213.731 62.6389C212.994 62.3265 212.202 62.1629 211.402 62.1575C210.601 62.1521 209.808 62.3049 209.067 62.6073C208.325 62.9097 207.652 63.3556 207.084 63.9192L135.388 134.876L105.074 104.382C103.948 103.242 102.415 102.595 100.812 102.584C99.2086 102.572 97.6665 103.197 96.5246 104.32L84.9847 115.717C83.8442 116.854 83.1986 118.393 83.1876 120.002C83.1767 121.611 83.8013 123.159 84.9262 124.311L130.963 170.624C132.102 171.763 133.644 172.408 135.256 172.42C136.868 172.431 138.419 171.808 139.574 170.686L227.048 84.0295C227.62 83.4712 228.076 82.8053 228.39 82.0703C228.703 81.3353 228.867 80.5457 228.873 79.7469C228.879 78.9482 228.726 78.1562 228.424 77.4166C228.122 76.677 227.676 76.0045 227.112 75.4378Z" fill="#3ACC6C"/>
<g opacity="0.5">
<path opacity="0.5" d="M209.908 167.333C209.908 167.333 201.392 166.822 202.389 172.779C202.338 173.081 202.384 173.391 202.52 173.666C202.656 173.94 202.875 174.165 203.147 174.307C203.147 174.307 203.147 173.865 204.018 174.016C204.325 174.068 204.636 174.083 204.946 174.06C205.363 174.033 205.76 173.87 206.076 173.596C206.076 173.596 208.468 172.609 209.401 168.701C209.401 168.701 210.089 167.85 210.061 167.631L208.624 168.245C208.624 168.245 209.117 169.279 208.73 170.138C208.73 170.138 208.683 168.281 208.407 168.326C208.351 168.326 207.661 168.684 207.661 168.684C207.661 168.684 208.496 170.485 207.867 171.797C207.867 171.797 208.109 169.574 207.396 168.815L206.385 169.404C206.385 169.404 207.371 171.267 206.703 172.784C206.703 172.784 206.875 170.455 206.171 169.549L205.255 170.26C205.255 170.26 206.182 172.095 205.617 173.357C205.617 173.357 205.544 170.644 205.06 170.438C205.06 170.438 204.258 171.144 204.135 171.436C204.135 171.436 204.77 172.768 204.378 173.471C204.378 173.471 204.135 171.661 203.938 171.656C203.938 171.656 203.138 172.851 203.055 173.671C203.093 172.912 203.331 172.177 203.743 171.539C203.282 171.627 202.857 171.847 202.52 172.173C202.52 172.173 202.643 171.339 203.94 171.25C203.94 171.25 204.6 170.344 204.776 170.288C204.776 170.288 203.486 170.18 202.704 170.527C202.704 170.527 203.392 169.727 205.01 170.091L205.915 169.354C205.915 169.354 204.219 169.121 203.498 169.376C203.498 169.376 204.333 168.67 206.16 169.185L207.146 168.598C207.146 168.598 205.698 168.287 204.834 168.398C204.834 168.398 205.745 167.909 207.435 168.44L208.14 168.123C208.14 168.123 207.079 167.914 206.767 167.884C206.455 167.853 206.441 167.764 206.441 167.764C207.113 167.653 207.802 167.73 208.432 167.987C208.432 167.987 209.933 167.428 209.908 167.333Z" fill="#4665AF"/>
</g>
<g opacity="0.5">
<path opacity="0.5" d="M194.628 125.734C194.628 125.734 190.304 133.075 196.079 134.887C196.326 135.07 196.623 135.171 196.93 135.175C197.237 135.179 197.538 135.086 197.789 134.91C197.789 134.91 197.402 134.696 197.923 134.001C198.107 133.752 198.263 133.482 198.385 133.197C198.547 132.813 198.582 132.386 198.482 131.98C198.482 131.98 198.686 129.403 195.622 126.802C195.622 126.802 195.174 125.801 194.968 125.726L194.862 127.283C194.862 127.283 196.007 127.316 196.6 128.05C196.6 128.05 194.929 127.249 194.834 127.513C194.818 127.569 194.815 128.347 194.815 128.347C194.815 128.347 196.809 128.414 197.689 129.576C197.689 129.576 195.817 128.353 194.812 128.642L194.879 129.809C194.879 129.809 196.99 129.776 198.042 131.06C198.042 131.06 196.04 129.848 194.912 130.062L195.132 131.202C195.132 131.202 197.193 131.202 198.059 132.283C198.059 132.283 195.606 131.118 195.202 131.449C195.202 131.449 195.48 132.483 195.67 132.725C195.67 132.725 197.148 132.764 197.597 133.434C197.597 133.434 195.873 132.828 195.776 133C195.776 133 196.483 134.254 197.168 134.701C196.509 134.322 195.96 133.776 195.578 133.12C195.44 133.573 195.44 134.056 195.578 134.509C195.578 134.509 194.879 134.015 195.402 132.842C195.402 132.842 194.89 131.844 194.921 131.66C194.921 131.66 194.241 132.758 194.194 133.606C194.194 133.606 193.793 132.63 194.851 131.355L194.606 130.215C194.606 130.215 193.629 131.621 193.528 132.377C193.528 132.377 193.275 131.318 194.567 129.923L194.489 128.781C194.489 128.781 193.553 129.926 193.264 130.743C193.264 130.743 193.239 129.712 194.478 128.45L194.517 127.68C194.517 127.68 193.849 128.531 193.681 128.792C193.514 129.053 193.428 129.028 193.428 129.028C193.633 128.381 194.013 127.804 194.528 127.36C194.528 127.36 194.723 125.754 194.628 125.734Z" fill="#4665AF"/>
</g>
<g opacity="0.5">
<path opacity="0.5" d="M167.58 67.1657C167.58 67.1657 163.258 74.5094 169.031 76.3189C169.277 76.5024 169.575 76.6035 169.882 76.6075C170.189 76.6115 170.49 76.5182 170.741 76.3411C170.741 76.3411 170.354 76.1271 170.877 75.4322C171.061 75.1833 171.216 74.9137 171.337 74.6289C171.501 74.2444 171.535 73.8171 171.434 73.4114C171.434 73.4114 171.64 70.8348 168.574 68.2331C168.574 68.2331 168.126 67.2352 167.92 67.1602L167.814 68.7139C167.814 68.7139 168.961 68.7473 169.552 69.4811C169.552 69.4811 167.881 68.6806 167.789 68.9446C167.769 69.0002 167.769 69.7785 167.769 69.7785C167.769 69.7785 169.761 69.8452 170.641 71.0071C170.641 71.0071 168.769 69.7841 167.764 70.0732L167.834 71.2406C167.834 71.2406 169.942 71.2072 170.994 72.4914C170.994 72.4914 168.992 71.2823 167.864 71.4935L168.084 72.6331C168.084 72.6331 170.145 72.6331 171.014 73.7172C171.014 73.7172 168.558 72.5498 168.154 72.8833C168.154 72.8833 168.432 73.9145 168.624 74.1564C168.624 74.1564 170.1 74.1953 170.549 74.8651C170.549 74.8651 168.825 74.2592 168.73 74.4315C168.73 74.4315 169.435 75.6879 170.123 76.1326C169.463 75.7541 168.914 75.2098 168.53 74.5538C168.396 75.0019 168.396 75.4789 168.53 75.9269C168.53 75.9269 167.831 75.4322 168.354 74.2453C168.354 74.2453 167.842 73.2474 167.873 73.064C167.873 73.064 167.193 74.1619 167.146 75.0097C167.146 75.0097 166.745 74.0341 167.806 72.7582L167.558 71.6186C167.558 71.6186 166.58 73.0251 166.483 73.7811C166.483 73.7811 166.227 72.7221 167.519 71.3267L167.441 70.1843C167.441 70.1843 166.505 71.3295 166.216 72.1467C166.216 72.1467 166.191 71.1155 167.43 69.8563L167.469 69.0836C167.469 69.0836 166.8 69.9342 166.633 70.1955C166.466 70.4567 166.38 70.4317 166.38 70.4317C166.589 69.7835 166.975 69.2061 167.494 68.764C167.494 68.764 167.675 67.1991 167.58 67.1657Z" fill="#4665AF"/>
</g>
<g opacity="0.5">
<path opacity="0.5" d="M74.4695 11.5492C74.4695 11.5492 58.3737 23.2234 69.0281 32.4711C69.0281 32.4711 70.2339 34.6614 72.665 34.1083C72.665 34.1083 72.0356 33.2911 73.804 32.2904C74.4308 31.9309 75.0123 31.498 75.5361 31.0007C76.2446 30.3346 76.7167 29.4566 76.8811 28.4991C76.8811 28.4991 79.7271 23.179 75.6029 14.7679C75.6029 14.7679 75.5778 12.2135 75.2019 11.8605L73.5311 15.0904C73.5311 15.0904 75.951 16.2272 76.533 18.348C76.533 18.348 73.6898 15.0709 73.2582 15.5685C73.1718 15.6658 72.445 17.3196 72.445 17.3196C72.445 17.3196 76.6472 19.3153 77.4436 22.6175C77.4436 22.6175 74.5809 18.2591 72.1526 17.9422L71.2086 20.5022C71.2086 20.5022 75.7505 22.3951 76.8031 26.1198C76.8031 26.1198 73.6508 21.6724 71.0387 21.0748L70.4483 23.7182C70.4483 23.7182 74.8427 25.65 75.6976 28.7548C75.6976 28.7548 71.5205 23.9795 70.3537 24.3325C70.3537 24.3325 69.9582 26.7896 70.1671 27.4929C70.1671 27.4929 73.2916 28.9521 73.6257 30.8006C73.6257 30.8006 70.504 27.9042 70.1365 28.1822C70.1365 28.1822 70.4762 31.5177 71.5455 33.1215C71.5455 33.1215 69.7939 30.8728 69.6157 28.2628C69.6157 28.2628 68.4211 29.6526 68.3542 31.2119C68.3542 31.2119 67.3183 29.5025 69.5433 27.4512C69.5433 27.4512 69.3846 24.8384 69.6213 24.477C69.6213 24.477 67.1373 26.192 66.2434 27.9709C66.2434 27.9709 66.2963 25.5138 69.7522 23.771L70.2868 21.1054C70.2868 21.1054 66.8867 23.1984 65.9705 24.7188C65.9705 24.7188 66.4132 22.2172 70.4762 20.4327L71.3785 17.9172C71.3785 17.9172 68.3152 19.4988 66.9229 20.9747C66.9229 20.9747 67.8335 18.7511 71.6569 17.2029L72.4561 15.5907C72.4561 15.5907 70.2284 16.7859 69.6296 17.1862C69.0309 17.5864 68.8638 17.4641 68.8638 17.4641C69.907 16.2686 71.2626 15.3861 72.7792 14.9153C72.7792 14.9153 74.6561 11.6798 74.4695 11.5492Z" fill="#4665AF"/>
</g>
<g opacity="0.5">
<path opacity="0.5" d="M58.8332 50.0713C58.8332 50.0713 38.0117 41.3324 35.2827 57.0898C35.2827 57.0898 33.8597 59.5469 35.8396 61.576C35.8396 61.576 36.2657 60.4864 38.2791 61.6122C38.9972 62.0086 39.76 62.3184 40.5514 62.535C41.6202 62.8293 42.7559 62.7688 43.7873 62.3627C43.7873 62.3627 50.6322 61.993 56.3938 53.0511C56.3938 53.0511 58.8611 51.5278 58.9864 50.9553L54.8566 51.2332C54.8566 51.2332 55.1741 54.2491 53.4642 56.0586C53.4642 56.0586 54.9819 51.3777 54.2523 51.2471C54.1047 51.2193 52.0719 51.4862 52.0719 51.4862C52.0719 51.4862 52.5982 56.7312 49.8441 59.4441C49.8441 59.4441 52.4005 54.1101 51.2866 51.5807L48.2428 52.1672C48.2428 52.1672 49.0783 57.6846 46.0652 60.8923C46.0652 60.8923 48.5408 55.2219 47.5857 52.3423L44.6672 53.3207C44.6672 53.3207 45.3718 58.7158 42.8516 61.3815C42.8516 61.3815 45.0515 54.5409 44.0156 53.5986C44.0156 53.5986 41.3924 54.6604 40.8299 55.2664C40.8299 55.2664 41.2476 59.1578 39.6436 60.5615C39.6436 60.5615 40.6294 55.8362 40.142 55.6416C40.142 55.6416 37.0928 57.932 36.1627 59.9083C36.1627 59.9083 37.3239 56.8897 39.7578 55.183C39.7578 55.183 37.7138 54.8355 36.1376 55.6917C36.1376 55.6917 37.193 53.6876 40.4957 54.6382C40.4957 54.6382 42.9435 52.9454 43.4336 52.9704C43.4336 52.9704 40.3091 51.5807 38.0507 51.753C38.0507 51.753 40.4706 50.3632 44.1966 52.6842L47.1011 51.6335C47.1011 51.6335 43.066 49.5682 41.0415 49.5766C41.0415 49.5766 43.7316 48.537 47.8586 51.4278L50.8382 50.8135C50.8382 50.8135 47.4965 48.7705 45.2409 48.298C45.2409 48.298 47.9449 47.8699 51.6959 50.6745L53.7344 50.505C53.7344 50.505 51.2671 49.054 50.5208 48.701C49.7745 48.348 49.8079 48.1201 49.8079 48.1201C51.5842 48.4279 53.2397 49.2229 54.5893 50.416C54.5893 50.416 58.8137 50.3299 58.8332 50.0713Z" fill="#4665AF"/>
</g>
<g opacity="0.5">
<path opacity="0.5" d="M46.3659 28.007C46.3659 28.007 38.9836 10.9766 28.3709 18.7872C28.3709 18.7872 26.1236 19.4376 26.1431 21.7613C26.1431 21.7613 27.0175 21.3555 27.5689 23.1706C27.7745 23.8135 28.0549 24.4301 28.4043 25.0079C28.8708 25.7912 29.5807 26.4011 30.4261 26.7451C30.4261 26.7451 34.7034 30.4197 43.2359 28.3823C43.2359 28.3823 45.5723 28.8798 45.9733 28.613L43.364 26.4255C43.364 26.4255 41.8324 28.399 39.7772 28.4935C39.7772 28.4935 43.35 26.5756 42.9908 26.0836C42.9184 25.9835 41.5594 24.9884 41.5594 24.9884C41.5594 24.9884 38.8777 28.4017 35.7115 28.4546C35.7115 28.4546 40.2757 26.7368 41.0554 24.6048L38.9112 23.215C38.9112 23.215 36.2183 26.9758 32.6009 27.1732C32.6009 27.1732 37.3072 25.2136 38.3848 22.9565L36.093 21.892C36.093 21.892 33.4308 25.5054 30.4205 25.6416C30.4205 25.6416 35.6307 22.8287 35.55 21.6807C35.55 21.6807 33.3862 20.8191 32.7012 20.8691C32.7012 20.8691 30.7324 23.4124 28.9752 23.3401C28.9752 23.3401 32.2584 21.0915 32.0774 20.6995C32.0774 20.6995 28.9585 20.3271 27.2793 20.9775C27.2793 20.9775 29.6909 19.8434 32.1108 20.2159C32.1108 20.2159 31.0944 18.8455 29.6742 18.4647C29.6742 18.4647 31.4481 17.8727 32.8655 20.3132C32.8655 20.3132 35.2854 20.7023 35.5667 20.9914C35.5667 20.9914 34.5085 18.3814 33.0604 17.2056C33.0604 17.2056 35.2882 17.7615 36.1821 21.2554L38.5074 22.2867C38.5074 22.2867 37.2904 18.7622 36.0819 17.6198C36.0819 17.6198 38.2735 18.5315 39.0755 22.5952L41.1891 23.9266C41.1891 23.9266 40.3704 20.8135 39.3038 19.2486C39.3038 19.2486 41.1529 20.5328 41.7822 24.3324L43.0911 25.3887C43.0911 25.3887 42.4506 23.1261 42.2083 22.4924C41.966 21.8586 42.1192 21.7419 42.1192 21.7419C42.9975 22.9344 43.5268 24.3471 43.648 25.8223C43.648 25.8223 46.21 28.1544 46.3659 28.007Z" fill="#4665AF"/>
</g>
<g opacity="0.5">
<path opacity="0.5" d="M190.248 36.8684C190.248 36.8684 188.507 28.5296 183.008 31.0618C182.702 31.091 182.413 31.2162 182.183 31.4195C181.953 31.6228 181.793 31.8936 181.727 32.1931C181.727 32.1931 182.158 32.0903 182.239 32.9575C182.27 33.2652 182.336 33.5684 182.437 33.8608C182.576 34.2552 182.838 34.5944 183.186 34.8281C183.186 34.8281 184.767 36.8739 188.786 36.7461C188.786 36.7461 189.791 37.1852 189.997 37.1018L189.025 35.8788C189.025 35.8788 188.154 36.6237 187.224 36.4764C187.224 36.4764 189.006 35.9455 188.894 35.6898C188.869 35.637 188.351 35.0644 188.351 35.0644C188.351 35.0644 186.831 36.3514 185.397 36.0817C185.397 36.0817 187.605 35.7315 188.157 34.8448L187.321 34.0248C187.321 34.0248 185.778 35.4647 184.135 35.2173C184.135 35.2173 186.433 34.7726 187.126 33.8581L186.196 33.1632C186.196 33.1632 184.664 34.5363 183.297 34.3223C183.297 34.3223 185.901 33.5384 185.97 33.0159C185.97 33.0159 185.079 32.4294 184.765 32.3877C184.765 32.3877 183.651 33.3494 182.863 33.1548C182.863 33.1548 184.534 32.4488 184.503 32.2543C184.503 32.2543 183.136 31.7984 182.32 31.9346C183.063 31.7738 183.836 31.8092 184.561 32.0374C184.357 31.6161 184.032 31.2642 183.629 31.0257C183.629 31.0257 184.481 30.9228 184.893 32.1375C184.893 32.1375 185.943 32.535 186.043 32.6934C186.043 32.6934 185.809 31.4232 185.269 30.7477C185.269 30.7477 186.221 31.2008 186.296 32.8574L187.246 33.5356C187.246 33.5356 187.026 31.8401 186.589 31.2119C186.589 31.2119 187.488 31.8262 187.471 33.7135L188.307 34.5085C188.307 34.5085 188.229 33.0325 187.895 32.232C187.895 32.232 188.605 32.9797 188.535 34.7336L189.025 35.3312C189.025 35.3312 188.95 34.2556 188.9 33.9415C188.85 33.6274 188.928 33.594 188.928 33.594C189.213 34.2124 189.32 34.8975 189.237 35.5731C189.237 35.5731 190.164 36.9184 190.248 36.8684Z" fill="#4665AF"/>
</g>
<g opacity="0.5">
<path opacity="0.5" d="M160.278 191.446C160.278 191.446 158.541 183.108 153.038 185.64C152.732 185.669 152.443 185.794 152.212 185.997C151.981 186.2 151.821 186.471 151.754 186.771C151.754 186.771 152.186 186.668 152.267 187.535C152.297 187.844 152.364 188.147 152.467 188.439C152.606 188.833 152.867 189.172 153.214 189.406C153.214 189.406 154.795 191.452 158.816 191.324C158.816 191.324 159.822 191.763 160.025 191.68L159.056 190.457C159.056 190.457 158.184 191.202 157.251 191.054C157.251 191.054 159.034 190.523 158.922 190.268C158.9 190.215 158.379 189.642 158.379 189.642C158.379 189.642 156.859 190.929 155.425 190.66C155.425 190.66 157.636 190.309 158.184 189.423L157.349 188.589C157.349 188.589 155.823 190.034 154.174 189.779C154.174 189.779 156.472 189.334 157.165 188.419L156.235 187.724C156.235 187.724 154.706 189.098 153.339 188.884C153.339 188.884 155.943 188.102 156.012 187.577C156.012 187.577 155.118 186.991 154.806 186.949C154.806 186.949 153.693 187.911 152.902 187.716C152.902 187.716 154.573 187.01 154.542 186.816C154.542 186.816 153.175 186.36 152.359 186.496C153.103 186.335 153.877 186.37 154.603 186.599C154.398 186.178 154.073 185.826 153.67 185.587C153.67 185.587 154.52 185.484 154.932 186.699C154.932 186.699 155.984 187.096 156.085 187.255C156.085 187.255 155.851 185.984 155.31 185.309C155.31 185.309 156.263 185.762 156.335 187.419L157.288 188.097C157.288 188.097 157.065 186.401 156.628 185.773C156.628 185.773 157.53 186.387 157.513 188.275L158.349 189.07C158.349 189.07 158.271 187.594 157.934 186.793C157.934 186.793 158.647 187.541 158.577 189.295L159.067 189.893C159.067 189.893 158.989 188.817 158.939 188.503C158.889 188.189 158.967 188.158 158.967 188.158C159.252 188.775 159.359 189.46 159.276 190.134C159.276 190.134 160.201 191.488 160.278 191.446Z" fill="#4665AF"/>
</g>
</g>
<defs>
<linearGradient id="paint0_linear" x1="15173.3" y1="77146.4" x2="15173.3" y2="34006.3" gradientUnits="userSpaceOnUse">
<stop stop-color="#808080" stop-opacity="0.25"/>
<stop offset="0.54" stop-color="#808080" stop-opacity="0.12"/>
<stop offset="1" stop-color="#808080" stop-opacity="0.1"/>
</linearGradient>
<clipPath id="clip0">
<rect width="320" height="210" fill="white"/>
</clipPath>
</defs>
</svg>
