<svg width="502" height="435" viewBox="0 0 502 435" fill="none" xmlns="http://www.w3.org/2000/svg">
<g clip-path="url(#clip0)">
<path d="M122.329 70.2802C108.384 70.2802 98.232 80.7096 94.8097 95.5998L90.5671 117.938H93.5857L100.126 99.6506L98.7491 117.938H102.138L104.654 108.517L104.124 117.938H144.902V95.1443C144.902 81.4122 134.796 70.2801 122.329 70.2802H122.329Z" fill="#2F2E41"/>
<path d="M103.9 190.189C103.9 190.189 83.2726 218.888 84.2788 230.468C85.285 242.048 98.3656 430.857 98.3656 430.857L129.055 432.367L119.999 296.425L127.545 259.67L146.16 430.857L183.893 431.864L150.185 209.825L143.645 190.189L103.9 190.189Z" fill="#2F2E41"/>
<path d="M110.943 102.581C110.943 102.581 117.483 114.665 108.931 122.721C100.378 130.777 96.353 152.427 96.353 152.427L144.651 148.902L140.626 121.714C140.626 121.714 130.061 115.169 132.576 103.588L110.943 102.581Z" fill="#9F616A"/>
<path d="M102.893 134.805C102.893 134.805 105.912 143.868 118.992 142.861C126.956 142.195 134.598 139.414 141.129 134.805V193.713L100.881 192.203V156.455L102.893 134.805Z" fill="#4665AF"/>
<path d="M105.409 193.713L108.427 183.643C108.427 183.643 107.421 159.979 103.396 150.413C103.396 150.413 111.087 125.196 112.273 117.917L108.427 120.707L85.2849 131.784L93.3345 173.573L98.8686 182.636L93.1345 206.447L105.409 193.713Z" fill="#3F3D56"/>
<path d="M125.03 191.699L136.601 128.763L133.426 113.155L142.639 122.218L160.75 127.756L152.198 175.084L147.167 185.154L149.655 207.748L125.03 191.699Z" fill="#3F3D56"/>
<path d="M171.315 233.992C171.315 233.992 176.346 255.642 166.284 258.16C156.222 260.677 159.744 233.992 159.744 233.992H171.315Z" fill="#9F616A"/>
<path d="M82.5737 211.521C82.5737 211.521 101.946 222.392 97.0235 231.528C92.1006 240.664 74.7751 220.076 74.7751 220.076L82.5737 211.521Z" fill="#9F616A"/>
<path d="M153.204 128.763L160.75 127.756C160.75 127.756 165.278 133.798 165.781 138.329C166.284 142.861 174.334 219.391 174.334 219.391C174.913 221.062 174.341 222.701 173.831 236.51L172.321 242.552C172.321 242.552 169.303 230.972 157.731 237.013L156.222 229.965C156.222 229.965 153.204 203.28 153.204 190.692C153.204 178.105 152.197 164.511 152.197 164.511L153.204 128.763Z" fill="#3F3D56"/>
<path d="M116.756 434.3C120.707 434.3 123.91 433.098 123.91 431.615C123.91 430.133 120.707 428.931 116.756 428.931C112.805 428.931 109.602 430.133 109.602 431.615C109.602 433.098 112.805 434.3 116.756 434.3Z" fill="#2F2E41"/>
<path d="M165.046 434.3C168.997 434.3 172.2 433.098 172.2 431.615C172.2 430.133 168.997 428.931 165.046 428.931C161.095 428.931 157.892 430.133 157.892 431.615C157.892 433.098 161.095 434.3 165.046 434.3Z" fill="#2F2E41"/>
<path d="M90.819 131.281L85.2849 131.784L72.7074 180.623C72.7074 180.623 71.1794 244.038 83.7756 231.979C83.7756 231.979 79.2477 218.888 90.819 214.356V187.671L94.8438 164.511L90.819 131.281Z" fill="#3F3D56"/>
<path d="M139.117 100.316C139.533 100.316 139.871 99.1886 139.871 97.7982C139.871 96.4079 139.533 95.2808 139.117 95.2808C138.7 95.2808 138.362 96.4079 138.362 97.7982C138.362 99.1886 138.7 100.316 139.117 100.316Z" fill="#9F616A"/>
<path d="M104.906 100.316C105.323 100.316 105.661 99.1886 105.661 97.7982C105.661 96.4079 105.323 95.2808 104.906 95.2808C104.489 95.2808 104.151 96.4079 104.151 97.7982C104.151 99.1886 104.489 100.316 104.906 100.316Z" fill="#9F616A"/>
<path d="M122.011 113.155C131.18 113.155 138.613 105.716 138.613 96.5398C138.613 87.3635 131.18 79.9247 122.011 79.9247C112.842 79.9247 105.409 87.3635 105.409 96.5398C105.409 105.716 112.842 113.155 122.011 113.155Z" fill="#9F616A"/>
<path d="M114.717 87.7289L114.292 91.7567H125.785L127.294 88.7354L126.976 91.7567H140.878L131.319 76.6522L110.189 77.1554L105.158 91.7567H112.705L114.717 87.7289Z" fill="#2F2E41"/>
<path d="M367.522 276.909C293.371 276.909 233.044 216.535 233.044 142.326C233.044 68.1174 293.371 7.74396 367.522 7.74396C441.674 7.74396 502 68.1174 502 142.326C502 216.535 441.674 276.909 367.522 276.909ZM367.522 9.04426C294.088 9.04426 234.344 68.8342 234.344 142.326C234.344 215.818 294.088 275.609 367.522 275.609C440.957 275.609 500.701 215.818 500.701 142.326C500.701 68.8342 440.957 9.04426 367.522 9.04426Z" fill="#E6E6E6"/>
<path d="M367.522 239.2C314.147 239.2 270.724 195.742 270.724 142.326C270.724 88.9099 314.147 45.4526 367.522 45.4526C420.897 45.4526 464.32 88.9099 464.32 142.326C464.32 195.742 420.897 239.2 367.522 239.2ZM367.522 46.7529C314.864 46.7529 272.023 89.6268 272.023 142.326C272.023 195.025 314.864 237.899 367.522 237.899C420.18 237.899 463.021 195.025 463.021 142.326C463.021 89.6268 420.18 46.7529 367.522 46.7529Z" fill="#E6E6E6"/>
<path d="M367.522 201.062C355.914 201.062 344.567 197.618 334.915 191.164C325.264 184.71 317.741 175.536 313.299 164.804C308.857 154.071 307.695 142.261 309.959 130.867C312.224 119.474 317.814 109.008 326.022 100.794C334.23 92.5793 344.687 86.9852 356.072 84.7188C367.457 82.4525 379.258 83.6157 389.982 88.0612C400.706 92.5068 409.873 100.035 416.322 109.694C422.771 119.353 426.213 130.709 426.213 142.326C426.195 157.899 420.006 172.828 409.003 183.84C398 194.851 383.082 201.045 367.522 201.062V201.062ZM367.522 84.8906C356.171 84.8906 345.075 88.2592 335.637 94.5703C326.199 100.881 318.843 109.852 314.5 120.347C310.156 130.842 309.019 142.39 311.234 153.532C313.448 164.673 318.914 174.907 326.941 182.94C334.967 190.972 345.193 196.442 356.326 198.659C367.459 200.875 378.998 199.737 389.485 195.39C399.972 191.043 408.935 183.681 415.242 174.236C421.548 164.791 424.914 153.686 424.914 142.326C424.896 127.099 418.844 112.5 408.085 101.732C397.326 90.9645 382.738 84.9077 367.522 84.8906V84.8906Z" fill="#E6E6E6"/>
<path d="M367.522 172.151C383.981 172.151 397.324 158.798 397.324 142.326C397.324 125.854 383.981 112.501 367.522 112.501C351.063 112.501 337.72 125.854 337.72 142.326C337.72 158.798 351.063 172.151 367.522 172.151Z" fill="#4665AF"/>
<path d="M388.842 18.9133C394.061 18.9133 398.292 14.6794 398.292 9.45667C398.292 4.23389 394.061 0 388.842 0C383.624 0 379.393 4.23389 379.393 9.45667C379.393 14.6794 383.624 18.9133 388.842 18.9133Z" fill="#4665AF"/>
<path d="M270.362 243.691C275.581 243.691 279.812 239.457 279.812 234.234C279.812 229.012 275.581 224.778 270.362 224.778C265.143 224.778 260.913 229.012 260.913 234.234C260.913 239.457 265.143 243.691 270.362 243.691Z" fill="#4665AF"/>
<path d="M271.661 162.422C276.88 162.422 281.111 158.188 281.111 152.965C281.111 147.742 276.88 143.508 271.661 143.508C266.443 143.508 262.212 147.742 262.212 152.965C262.212 158.188 266.443 162.422 271.661 162.422Z" fill="#E6E6E6"/>
<path d="M448.367 98.7061C453.585 98.7061 457.816 94.4722 457.816 89.2494C457.816 84.0266 453.585 79.7927 448.367 79.7927C443.148 79.7927 438.917 84.0266 438.917 89.2494C438.917 94.4722 443.148 98.7061 448.367 98.7061Z" fill="#E6E6E6"/>
<path d="M485.397 216.385C490.616 216.385 494.847 212.151 494.847 206.928C494.847 201.705 490.616 197.471 485.397 197.471C480.179 197.471 475.948 201.705 475.948 206.928C475.948 212.151 480.179 216.385 485.397 216.385Z" fill="#E6E6E6"/>
<path d="M457.895 174.585C463.114 174.585 467.344 170.351 467.344 165.128C467.344 159.905 463.114 155.671 457.895 155.671C452.676 155.671 448.446 159.905 448.446 165.128C448.446 170.351 452.676 174.585 457.895 174.585Z" fill="#4665AF"/>
<path d="M250.736 84.3826C255.955 84.3826 260.186 80.1487 260.186 74.9259C260.186 69.7031 255.955 65.4692 250.736 65.4692C245.517 65.4692 241.287 69.7031 241.287 74.9259C241.287 80.1487 245.517 84.3826 250.736 84.3826Z" fill="#4665AF"/>
<path d="M402.653 281.518C407.872 281.518 412.102 277.284 412.102 272.061C412.102 266.838 407.872 262.604 402.653 262.604C397.434 262.604 393.204 266.838 393.204 272.061C393.204 277.284 397.434 281.518 402.653 281.518Z" fill="#4665AF"/>
<path d="M6.07554 420.921C15.4433 433.477 34.8889 434.798 34.8889 434.798C34.8889 434.798 39.1464 415.764 29.7787 403.208C20.4109 390.653 0.965287 389.332 0.965287 389.332C0.965287 389.332 -3.29222 408.366 6.07554 420.921Z" fill="#E6E6E6"/>
<path d="M53.7969 425.641C47.6154 433.926 34.7838 434.798 34.7838 434.798C34.7838 434.798 31.9744 422.238 38.1559 413.953C44.3374 405.668 57.169 404.796 57.169 404.796C57.169 404.796 59.9784 417.357 53.7969 425.641Z" fill="#E6E6E6"/>
<path d="M436.68 433.543H5.31091V435H436.68V433.543Z" fill="#3F3D56"/>
</g>
<defs>
<clipPath id="clip0">
<rect width="502" height="435" fill="white"/>
</clipPath>
</defs>
</svg>
