<svg width="317" height="234" viewBox="0 0 317 234" fill="none" xmlns="http://www.w3.org/2000/svg">
<g clip-path="url(#clip0)">
<path opacity="0.1" d="M20.7477 91.7158H48.2989V129.229H22.7621C22.697 129.617 22.6318 130.002 22.5585 130.39H48.2989V160.638C48.2555 160.638 48.2121 160.606 48.1713 160.589C47.4474 160.302 46.7234 159.997 45.9994 159.676C45.8446 159.605 45.6926 159.532 45.5351 159.464C44.8111 159.122 44.0872 158.761 43.3632 158.379C43.1107 158.246 42.8582 158.108 42.6111 157.967C38.5918 155.727 34.9388 152.886 31.7785 149.544C31.6835 149.454 31.5966 149.357 31.507 149.273C31.0672 148.795 30.6355 148.313 30.2174 147.819C30.0599 147.637 29.9079 147.453 29.7531 147.277C29.259 146.675 28.7812 146.051 28.3196 145.425C28.2491 145.33 28.1839 145.237 28.116 145.153C26.2253 142.54 24.6574 139.708 23.4463 136.719C23.4083 136.63 23.373 136.532 23.3377 136.448C22.9631 135.499 22.6237 134.536 22.3305 133.555C22.2056 133.145 22.0834 132.741 21.9802 132.315C21.9422 132.193 21.9124 132.069 21.8798 131.947C20.354 125.94 20.1775 119.697 20.1775 113.484C20.1775 112.761 20.1775 112.038 20.1775 111.315C20.1992 108.778 20.2291 106.244 20.2671 103.713C20.2816 103.062 20.2952 102.409 20.3078 101.752C20.3458 100.091 20.4001 98.4259 20.4707 96.7572C20.487 96.2962 20.5087 95.8324 20.5332 95.3741C20.544 95.1084 20.5576 94.8426 20.5739 94.5768C20.6228 93.6168 20.6807 92.6631 20.7477 91.7158Z" fill="#4665AF"/>
<path opacity="0.1" d="M48.2989 49.9474H33.1848C35.6428 46.1087 38.3272 42.4195 41.2238 38.8992C43.4718 36.1439 45.8392 33.4592 48.2989 30.872V49.9474Z" fill="#4665AF"/>
<path opacity="0.1" d="M48.299 51.1027V90.5551H20.8345C20.8345 90.4412 20.8508 90.3246 20.8617 90.2107C20.8861 89.8988 20.9106 89.5897 20.9377 89.2778C20.9649 88.9144 21.0002 88.551 21.0354 88.193C21.0707 87.8351 21.106 87.4012 21.1495 87.0079C21.1929 86.6147 21.2282 86.2161 21.2716 85.8229C21.3151 85.4296 21.3585 85.0364 21.4074 84.6459C21.4563 84.2554 21.4997 83.8595 21.554 83.4689C21.5947 83.1462 21.6354 82.8208 21.6816 82.4954C21.744 82.0371 21.8092 81.5788 21.8771 81.1232C21.8771 81.0527 21.8988 80.9849 21.9097 80.9171C22.4059 77.5822 23.0801 74.2762 23.9296 71.0133C24.8216 67.5909 25.9604 64.2375 27.3368 60.9793C28.7995 57.5654 30.5128 54.2642 32.4627 51.1027H48.299Z" fill="#4665AF"/>
<path opacity="0.1" d="M54.88 91.7158V129.229H113.729V91.7158H54.88ZM54.88 130.39V162.607C55.2167 162.675 55.5479 162.743 55.8818 162.8C56.3298 162.886 56.7805 162.965 57.2393 163.033L57.5108 163.071C57.69 163.101 57.8719 163.125 58.0538 163.147C58.5072 163.212 58.9606 163.261 59.4113 163.304C59.623 163.326 59.8429 163.342 60.0574 163.361L60.5814 163.399C60.8665 163.421 61.1488 163.437 61.4312 163.448C61.6049 163.448 61.7787 163.461 61.9552 163.467C62.1316 163.472 62.2267 163.467 62.3678 163.467H62.881C63.1145 163.467 63.3479 163.467 63.5787 163.467H63.8774C64.1108 163.467 64.3443 163.467 64.5751 163.445H64.5887C64.7516 163.445 64.9118 163.445 65.0746 163.426C65.1208 163.429 65.167 163.429 65.2131 163.426C65.3489 163.426 65.4846 163.426 65.6149 163.41C65.6456 163.407 65.6765 163.407 65.7072 163.41C66.0086 163.391 66.3127 163.366 66.6195 163.339C66.9262 163.312 67.2167 163.28 67.5235 163.247L68.1398 163.171C70.6582 162.819 73.1486 162.29 75.5924 161.587C81.0847 160.058 86.4521 157.918 91.9418 156.353C99.0332 154.333 106.874 153.338 113.727 155.798V130.39H54.88ZM113.729 49.9474V0.00542581C107.287 -0.0653737 100.862 0.686483 94.6106 2.24273C79.7082 5.98241 66.3262 14.0936 54.88 24.453V49.9447H57.842V51.1027H54.88V90.5551H113.729V51.1027H69.9588V49.942L113.729 49.9474ZM189.335 33.0768C185.648 32.9466 181.983 31.7832 178.665 29.9798C172.329 26.5385 167.263 21.2178 161.605 16.7323C149.849 7.38445 135.27 1.74103 120.313 0.341699V49.9474H204.316L204.525 49.7277L189.335 33.0768ZM196.989 31.7209L205.103 40.6185V29.3805C202.372 29.7249 199.994 30.5249 196.989 31.71V31.7209ZM205.103 170.607V130.39H187.798C187.755 130.219 187.706 130.046 187.652 129.872C187.703 130.046 187.75 130.219 187.796 130.39H120.313V159.472C120.954 159.947 121.586 160.448 122.213 160.953C122.89 161.506 123.563 162.066 124.231 162.631L124.904 163.187C125.227 163.459 125.556 163.73 125.881 163.987C126.535 164.514 127.193 165.034 127.855 165.549C128.186 165.81 128.519 166.066 128.854 166.317C134.157 170.365 139.75 174.019 145.589 177.248C146.898 177.978 148.22 178.68 149.55 179.366C150.435 179.822 151.327 180.269 152.224 180.706C153.571 181.362 154.929 181.995 156.297 182.604C168.912 188.261 182.252 192.141 195.935 194.135C198.972 194.582 202.023 194.934 205.087 195.193V170.602H205.359L205.103 170.607ZM120.313 51.1027V90.5551H205.103V51.1027H120.313ZM120.313 91.7104V129.229H205.103V91.7158L120.313 91.7104ZM211.685 29.3263V41.8823L222.039 30.5276C218.608 29.9618 215.156 29.5613 211.685 29.3263ZM211.685 91.7158V129.229H294.151V91.7158H211.685ZM293.861 173.582L294.151 130.39H211.685V195.63C216.996 195.85 222.316 195.786 227.621 195.437H227.714C230.248 195.274 232.77 195.043 235.28 194.743H235.337C248.734 193.185 261.833 189.69 274.223 184.367L293.861 173.582ZM310.061 97.8772C309.748 97.154 309.426 96.4308 309.097 95.7077C308.483 94.3517 307.837 93.0338 307.169 91.7185H300.735V129.229H317C316.986 118.604 314.293 107.757 310.061 97.8772ZM300.735 130.39V167.543C305.315 163.158 309.189 158.138 311.975 152.4C315.328 145.487 316.862 138.008 316.989 130.387L300.735 130.39ZM300.735 80.7842V90.547H306.567C304.799 87.1909 302.852 83.932 300.735 80.7842ZM244.807 36.689C244.378 36.5236 243.946 36.3582 243.515 36.2009C238.963 34.5206 234.312 33.1241 229.587 32.0192L213.737 49.3915L213.428 49.725L213.631 49.9447H270.042C262.185 44.5443 253.714 40.0946 244.807 36.689ZM271.698 51.1027H212.841L211.685 52.1576V90.5551H221.825H294.151V71.9516C287.611 64.0517 280.063 57.0424 271.698 51.1027Z" fill="#4665AF"/>
<path opacity="0.1" d="M48.299 71.0052V90.5551H20.8345C20.8345 90.4412 20.8508 90.3246 20.8617 90.2107C20.8861 89.8989 20.9106 89.5897 20.9377 89.2778C20.9649 88.9144 21.0002 88.5511 21.0354 88.1931C21.0707 87.8351 21.106 87.4012 21.1495 87.008C21.1929 86.6148 21.2282 86.2161 21.2716 85.8229C21.3151 85.4297 21.3585 85.0365 21.4074 84.6459C21.4563 84.2554 21.4997 83.8595 21.554 83.469C21.5947 83.1463 21.6354 82.8209 21.6816 82.4954C21.744 82.0371 21.8092 81.5788 21.8771 81.1232C21.8771 81.0527 21.8988 80.9849 21.9097 80.9171C22.4059 77.5823 23.0801 74.2763 23.9296 71.0133L48.299 71.0052Z" fill="#4665AF"/>
<path opacity="0.1" d="M20.7477 91.7158H48.2989V129.229H22.7621C22.697 129.617 22.6318 130.002 22.5585 130.39H48.2989V160.638C48.2555 160.638 48.2121 160.606 48.1713 160.589C47.4474 160.302 46.7234 159.997 45.9994 159.676C45.8446 159.605 45.6926 159.532 45.5351 159.464C44.8111 159.122 44.0872 158.761 43.3632 158.379C43.1107 158.246 42.8582 158.108 42.6111 157.967C38.5918 155.727 34.9388 152.886 31.7785 149.544C31.6835 149.454 31.5966 149.357 31.507 149.273C31.0672 148.795 30.6355 148.313 30.2174 147.819C30.0599 147.637 29.9079 147.453 29.7531 147.277C29.259 146.675 28.7812 146.051 28.3196 145.425C28.2491 145.33 28.1839 145.237 28.116 145.153C26.2253 142.54 24.6574 139.708 23.4463 136.719C23.4083 136.63 23.373 136.532 23.3377 136.448C22.9631 135.499 22.6237 134.536 22.3305 133.555C22.2056 133.145 22.0834 132.741 21.9802 132.315C21.9422 132.193 21.9124 132.069 21.8798 131.947C20.354 125.94 20.1775 119.697 20.1775 113.484C20.1775 112.761 20.1775 112.038 20.1775 111.315C20.1992 108.778 20.2291 106.244 20.2671 103.713C20.2816 103.062 20.2952 102.409 20.3078 101.752C20.3458 100.091 20.4001 98.4259 20.4707 96.7572C20.487 96.2962 20.5087 95.8324 20.5332 95.3741C20.544 95.1084 20.5576 94.8426 20.5739 94.5768C20.6228 93.6168 20.6807 92.6631 20.7477 91.7158Z" fill="#4665AF"/>
<path opacity="0.1" d="M75.5951 56.7542V90.5551H54.8773V56.7542H57.8312V45.3101H69.9561V56.7542H75.5951Z" fill="#4665AF"/>
<path opacity="0.1" d="M75.5924 91.7131H54.8773V129.227H75.5924V91.7131Z" fill="#4665AF"/>
<path opacity="0.1" d="M54.88 130.39H75.5951V161.577C73.1515 162.279 70.6611 162.808 68.1425 163.158C67.9362 163.187 67.7326 163.212 67.5262 163.233C67.2222 163.269 66.9208 163.301 66.6194 163.328L65.7099 163.402H65.6176L65.2158 163.423H65.0774C64.9145 163.423 64.7543 163.442 64.5914 163.445H64.5778C64.3443 163.445 64.1136 163.461 63.8801 163.467H63.5814C63.3507 163.467 63.1199 163.467 62.8837 163.467H62.3733H61.9579C61.7814 163.467 61.6077 163.467 61.4312 163.445C61.1525 163.434 60.8701 163.418 60.5841 163.396L60.0601 163.358C59.8429 163.342 59.6257 163.32 59.4113 163.299C58.9552 163.259 58.5027 163.207 58.0538 163.144L57.5108 163.068L57.2393 163.03C56.7859 162.962 56.3352 162.886 55.8818 162.8C55.5452 162.74 55.214 162.672 54.88 162.602V130.39Z" fill="#4665AF"/>
<path opacity="0.1" d="M205.101 52.7624H188.018V90.5524H205.101V52.7624Z" fill="#4665AF"/>
<path opacity="0.1" d="M205.103 91.7131V129.229H120.313V113.047H165.476V122.593H188.018V91.7131H205.103Z" fill="#4665AF"/>
<path opacity="0.1" d="M205.372 170.615C205.283 170.615 205.193 170.615 205.101 170.599V195.209C202.04 194.958 198.99 194.606 195.951 194.154C182.264 192.161 168.918 188.282 156.297 182.629C152.653 180.987 149.084 179.198 145.589 177.262C139.752 174.031 134.16 170.377 128.857 166.33C127.521 165.311 126.205 164.269 124.909 163.204C124.011 162.461 123.12 161.701 122.213 160.966C121.589 160.459 120.956 159.958 120.313 159.48V130.39H187.796C187.747 130.216 187.703 130.046 187.654 129.872C187.706 130.046 187.755 130.216 187.798 130.39H205.103V170.596C205.193 170.599 205.283 170.607 205.372 170.615Z" fill="#4665AF"/>
<path opacity="0.1" d="M249.656 49.9474H238.524V46.4925H243.512V36.2009C243.944 36.36 244.375 36.5227 244.804 36.689V46.4925H249.653L249.656 49.9474Z" fill="#4665AF"/>
<path opacity="0.1" d="M276.477 90.5551H221.825C221.83 90.5564 221.836 90.5564 221.841 90.5551H221.817H211.685V52.765H214.557V80.6974H227.681V64.1549H238.527V51.1027H249.659V64.1631H260.499V80.7055H276.479L276.477 90.5551Z" fill="#4665AF"/>
<path opacity="0.1" d="M211.685 91.7158V129.229H276.48V91.7158H211.685ZM294.059 173.384L294.151 143.689H276.48V130.401H211.685V195.63C216.996 195.85 222.316 195.786 227.621 195.437H227.714C230.248 195.274 232.77 195.043 235.28 194.743H235.337C248.734 193.185 261.833 189.69 274.223 184.367" fill="#4665AF"/>
<path opacity="0.1" d="M301.875 130.39H316.989C316.859 138.008 315.328 145.49 311.975 152.4C309.189 158.141 305.315 163.16 300.735 167.545V143.681H301.875V130.39Z" fill="#4665AF"/>
<path opacity="0.1" d="M317 129.229H301.875V97.8772H310.061C314.293 107.757 316.986 118.604 317 129.229Z" fill="#4665AF"/>
<path opacity="0.1" d="M205.103 63.2682H195.951V75.1164H205.103V63.2682Z" fill="#4665AF"/>
<path opacity="0.1" d="M205.103 87.827H195.951V90.5551H205.103V87.827Z" fill="#4665AF"/>
<path opacity="0.1" d="M205.103 91.7131H195.951V99.6725H205.103V91.7131Z" fill="#4665AF"/>
<path opacity="0.1" d="M205.103 112.386H195.951V124.234H205.103V112.386Z" fill="#4665AF"/>
<path opacity="0.1" d="M205.103 136.945H195.951V148.793H205.103V136.945Z" fill="#4665AF"/>
<path opacity="0.1" d="M205.103 170.596C205.193 170.596 205.283 170.596 205.375 170.615C205.285 170.615 205.196 170.615 205.103 170.599V173.351H195.951V161.503H205.103V170.596Z" fill="#4665AF"/>
<path opacity="0.1" d="M205.103 186.059V195.209C202.041 194.958 198.99 194.606 195.951 194.154V186.059H205.103Z" fill="#4665AF"/>
<path opacity="0.1" d="M159.536 128.359H120.313V129.229H159.536V128.359Z" fill="#4665AF"/>
<path opacity="0.1" d="M159.536 130.387H120.313V133.723H159.536V130.387Z" fill="#4665AF"/>
<path opacity="0.1" d="M159.536 144.657H120.313V150.021H159.536V144.657Z" fill="#4665AF"/>
<path opacity="0.1" d="M159.536 160.956V166.32H128.857C127.521 165.304 126.205 164.26 124.909 163.19C124.008 162.45 123.117 161.69 122.213 160.956H159.536Z" fill="#4665AF"/>
<path opacity="0.1" d="M159.536 177.251V182.629H156.297C152.653 180.987 149.084 179.198 145.589 177.262L159.536 177.251Z" fill="#4665AF"/>
<path opacity="0.1" d="M235.343 95.3497H227.621V103.062H235.343V95.3497Z" fill="#4665AF"/>
<path opacity="0.1" d="M68.1614 59.4146H60.4401V67.1272H68.1614V59.4146Z" fill="#4665AF"/>
<path opacity="0.1" d="M68.1614 77.3292H60.4401V85.0418H68.1614V77.3292Z" fill="#4665AF"/>
<path opacity="0.1" d="M68.1614 95.244H60.4401V102.957H68.1614V95.244Z" fill="#4665AF"/>
<path opacity="0.1" d="M68.1614 113.156H60.4401V120.869H68.1614V113.156Z" fill="#4665AF"/>
<path opacity="0.1" d="M68.1614 131.071H60.4401V138.783H68.1614V131.071Z" fill="#4665AF"/>
<path opacity="0.1" d="M68.1614 148.985H60.4401V156.698H68.1614V148.985Z" fill="#4665AF"/>
<path opacity="0.1" d="M264.819 95.3497H257.097V103.062H264.819V95.3497Z" fill="#4665AF"/>
<path opacity="0.1" d="M235.343 114.374H227.621V122.086H235.343V114.374Z" fill="#4665AF"/>
<path opacity="0.1" d="M264.819 114.374H257.097V122.086H264.819V114.374Z" fill="#4665AF"/>
<path opacity="0.1" d="M235.343 133.395H227.621V141.107H235.343V133.395Z" fill="#4665AF"/>
<path opacity="0.1" d="M264.819 133.395H257.097V141.107H264.819V133.395Z" fill="#4665AF"/>
<path opacity="0.1" d="M235.343 152.419H227.621V160.131H235.343V152.419Z" fill="#4665AF"/>
<path opacity="0.1" d="M264.819 152.419H257.097V160.131H264.819V152.419Z" fill="#4665AF"/>
<path opacity="0.1" d="M235.343 171.442H227.621V179.155H235.343V171.442Z" fill="#4665AF"/>
<path opacity="0.1" d="M264.819 171.442H257.097V179.155H264.819V171.442Z" fill="#4665AF"/>
<path opacity="0.1" d="M227.621 195.437V190.464H235.34V194.729L227.621 195.437Z" fill="#4665AF"/>
<path opacity="0.1" d="M21.877 80.9089V85.3212H48.2989V80.9089H21.877ZM24.5078 85.0446H22.3359V81.1883H24.5078V85.0446ZM27.1386 85.0446H24.9666V81.1883H27.1386V85.0446ZM29.764 85.0446H27.592V81.1883H29.764V85.0446ZM32.3947 85.0446H30.2228V81.1883H32.3947V85.0446ZM35.0228 85.0446H32.8508V81.1883H35.0228V85.0446ZM37.6536 85.0446H35.4816V81.1883H37.6536V85.0446ZM40.2844 85.0446H38.1124V81.1883H40.2844V85.0446ZM42.9124 85.0446H40.7405V81.1883H42.9124V85.0446ZM45.5405 85.0446H43.3686V81.1883H45.5405V85.0446ZM48.1713 85.0446H45.9993V81.1883H48.1713V85.0446Z" fill="#4665AF"/>
<path opacity="0.1" d="M21.877 93.7524V98.1646H48.2989V93.7524H21.877ZM24.5078 97.888H22.3359V94.0317H24.5078V97.888ZM27.1386 97.888H24.9666V94.0317H27.1386V97.888ZM29.764 97.888H27.592V94.0317H29.764V97.888ZM32.3947 97.888H30.2228V94.0317H32.3947V97.888ZM35.0228 97.888H32.8508V94.0317H35.0228V97.888ZM37.6536 97.888H35.4816V94.0317H37.6536V97.888ZM40.2844 97.888H38.1124V94.0317H40.2844V97.888ZM42.9124 97.888H40.7405V94.0317H42.9124V97.888ZM45.5405 97.888H43.3686V94.0317H45.5405V97.888ZM48.1713 97.888H45.9993V94.0317H48.1713V97.888Z" fill="#4665AF"/>
<path opacity="0.1" d="M21.877 106.599V111.008H48.2989V106.599H21.877ZM24.5078 110.729H22.3359V106.872H24.5078V110.729ZM27.1386 110.729H24.9666V106.872H27.1386V110.729ZM29.764 110.729H27.592V106.872H29.764V110.729ZM32.3947 110.729H30.2228V106.872H32.3947V110.729ZM35.0228 110.729H32.8508V106.872H35.0228V110.729ZM37.6536 110.729H35.4816V106.872H37.6536V110.729ZM40.2844 110.729H38.1124V106.872H40.2844V110.729ZM42.9124 110.729H40.7405V106.872H42.9124V110.729ZM45.5405 110.729H43.3686V106.872H45.5405V110.729ZM48.1713 110.729H45.9993V106.872H48.1713V110.729Z" fill="#4665AF"/>
<path opacity="0.1" d="M21.877 119.442V123.852H48.2989V119.442H21.877ZM24.5078 123.575H22.3359V119.713H24.5078V123.575ZM27.1386 123.575H24.9666V119.713H27.1386V123.575ZM29.764 123.575H27.592V119.713H29.764V123.575ZM32.3947 123.575H30.2228V119.713H32.3947V123.575ZM35.0228 123.575H32.8508V119.713H35.0228V123.575ZM37.6536 123.575H35.4816V119.713H37.6536V123.575ZM40.2844 123.575H38.1124V119.713H40.2844V123.575ZM42.9124 123.575H40.7405V119.713H42.9124V123.575ZM45.5405 123.575H43.3686V119.713H45.5405V123.575ZM48.1713 123.575H45.9993V119.713H48.1713V123.575Z" fill="#4665AF"/>
<path opacity="0.1" d="M22.0047 132.28C22.1078 132.698 22.23 133.11 22.3549 133.519V132.559H24.5269V136.413H23.3621C23.3947 136.505 23.43 136.6 23.468 136.684H48.3098V132.28H22.0047ZM27.1631 136.413H24.9911V132.559H27.1631V136.413ZM29.7884 136.413H27.6165V132.559H29.7884V136.413ZM32.4192 136.413H30.2472V132.559H32.4192V136.413ZM35.0473 136.413H32.8753V132.559H35.0473V136.413ZM37.6781 136.413H35.5061V132.559H37.6781V136.413ZM40.3088 136.413H38.1369V132.559H40.3088V136.413ZM42.9369 136.413H40.765V132.559H42.9369V136.413ZM45.565 136.413H43.393V132.559H45.565V136.413ZM48.1958 136.413H46.0238V132.559H48.1958V136.413Z" fill="#4665AF"/>
<path opacity="0.1" d="M28.1242 145.124C28.1947 145.21 28.2599 145.308 28.3278 145.395H29.764V147.247L30.2282 147.789V145.384H32.4002V149.273H31.507C31.5939 149.362 31.678 149.457 31.7785 149.544H48.2935V145.124H28.1242ZM35.0364 149.273H32.8645V145.4H35.0364V149.273ZM37.6672 149.273H35.4952V145.4H37.6672V149.273ZM40.298 149.273H38.126V145.4H40.298V149.273ZM42.9261 149.273H40.7541V145.4H42.9261V149.273ZM45.5541 149.273H43.3822V145.4H45.5541V149.273ZM48.1849 149.273H46.013V145.4H48.1849V149.273Z" fill="#4665AF"/>
<path opacity="0.1" d="M42.6192 157.967C42.869 158.108 43.1215 158.238 43.374 158.377V158.241H45.546V159.464C45.7034 159.532 45.8527 159.605 46.0075 159.676V158.241H48.1795V160.589C48.2208 160.608 48.2634 160.623 48.3071 160.636V157.967H42.6192Z" fill="#4665AF"/>
<path opacity="0.1" d="M205.101 170.596H205.372H205.101ZM187.652 129.872C187.703 130.045 187.75 130.219 187.796 130.39C187.755 130.219 187.706 130.045 187.652 129.872ZM57.842 49.9474V51.1027H69.9697V49.942L57.842 49.9474ZM205.103 170.596H205.375H205.103ZM187.652 129.872C187.703 130.045 187.75 130.219 187.796 130.39C187.755 130.219 187.706 130.045 187.652 129.872ZM205.101 170.596H205.372H205.101ZM187.652 129.872C187.703 130.045 187.75 130.219 187.796 130.39C187.755 130.219 187.706 130.045 187.652 129.872Z" fill="#4665AF"/>
<path opacity="0.1" d="M238.761 234C253.371 234 265.215 232.1 265.215 229.756C265.215 227.412 253.371 225.512 238.761 225.512C224.15 225.512 212.306 227.412 212.306 229.756C212.306 232.1 224.15 234 238.761 234Z" fill="#4665AF"/>
<path opacity="0.1" d="M119.45 229.756C134.06 229.756 145.904 227.856 145.904 225.512C145.904 223.168 134.06 221.268 119.45 221.268C104.839 221.268 92.9951 223.168 92.9951 225.512C92.9951 227.856 104.839 229.756 119.45 229.756Z" fill="#4665AF"/>
<path d="M149.906 113.289C149.899 113.262 149.885 113.237 149.865 113.218C149.461 112.82 144.302 105.533 144.302 105.533C144.302 105.533 144.031 104.719 143.591 103.662C143.732 103.479 143.838 103.272 143.903 103.051C143.927 102.958 143.944 102.863 143.955 102.767C143.955 102.737 143.976 102.712 143.985 102.683C144.079 102.315 144.069 101.928 143.957 101.565C143.927 101.658 143.89 101.749 143.846 101.837C143.744 101.521 143.607 101.217 143.439 100.931C142.755 99.7538 141.777 98.7613 141.058 97.6141C139.968 95.8318 139.535 93.7258 139.833 91.6588C139.833 91.7646 139.833 91.8731 139.833 91.9788C139.861 91.5689 139.915 91.1612 139.996 90.7585C140.11 90.3001 140.261 89.852 140.45 89.4188C141.096 87.9409 142.141 86.6527 142.776 85.1693C142.99 84.669 143.152 84.1483 143.26 83.6154C143.484 82.7253 143.565 81.8055 143.501 80.89C143.501 81.1069 143.466 81.3239 143.433 81.5381C143.365 79.3369 142.475 77.2409 140.938 75.6615C138.72 73.435 135.536 72.5699 132.489 72.1143C131.209 71.9651 129.987 71.4991 128.933 70.7584C127.763 70.0018 126.251 69.8201 124.882 69.9855C123.31 70.1553 121.848 70.877 120.758 72.0221C119.311 73.6113 118.684 75.8621 116.995 77.2018C115.972 78.0154 114.674 78.395 113.482 78.9483C112.29 79.5015 111.164 80.3042 110.781 81.492C110.781 81.492 110.781 81.4757 110.781 81.4676V81.5354L110.764 81.5788C110.368 82.9835 111.134 84.4127 111.533 85.8147C111.948 87.2656 111.975 88.7978 111.997 90.2975C112.027 92.1307 112.054 93.9667 112.024 95.8026C112.011 96.524 111.986 97.2534 111.932 97.9721C111.289 98.1662 110.665 98.4166 110.067 98.7206C109.459 99.1165 107.183 101.571 107.183 101.571L102.734 118.553L102.793 118.62L102.734 118.851L102.959 118.799C103.589 119.477 105.47 121.408 107.501 122.612L107.691 125.942C107.691 125.942 107.919 129.283 110.995 130.664C111.066 131.822 111.286 136.524 110.268 138.387C109.563 139.748 109.231 141.272 109.307 142.802C109.307 142.802 109.662 145.628 109.258 147.114C109.021 148.107 109.004 149.14 109.206 150.141C109.206 150.141 109.206 150.469 109.206 151.033C109.206 154.04 109.241 163.678 109.206 164.768C109.154 166.057 109.206 185.108 109.206 185.108C109.206 185.108 108.954 194.629 108.145 197.208C107.335 199.787 107.539 208.327 107.539 208.327C107.539 208.327 107.031 218.499 108.826 220.506C108.826 220.595 108.81 220.687 108.807 220.777C108.807 220.818 108.807 220.864 108.807 220.904C108.785 221.677 108.935 222.499 109.6 222.751C110.957 223.272 112.752 224.834 113.091 225.281C113.431 225.729 115.404 226.843 117.978 226.545C119.59 226.364 121.213 226.29 122.835 226.323C122.835 226.323 123.851 226.138 123.522 224.877C123.31 224.091 122.517 222.881 121.953 222.087C122.056 222.114 122.156 222.136 122.251 222.155L122.349 222.174H122.425C122.467 222.176 122.508 222.176 122.55 222.174H122.604C122.655 222.178 122.706 222.178 122.756 222.174C123.438 222.108 125.979 223.291 126.432 224.072C126.886 224.853 128.485 225.447 129.69 225.596C130.407 225.683 132.215 225.536 133.733 225.341C134.497 225.262 135.254 225.124 135.997 224.929C136.356 224.793 136.432 224.359 136.328 223.871C136.207 223.251 135.875 222.692 135.389 222.287C134.949 221.976 134.368 221.154 133.939 220.481L133.825 220.3C134.583 219.578 135.951 217.219 136.366 216.731C136.871 216.137 135.552 194.417 135.552 194.417V183.529L137.575 173.224L138.989 167.77L140.203 159.537C140.203 159.537 142.326 149.921 141.671 148.977C141.671 148.958 141.128 139.057 140.558 136.679C140.311 135.618 140.374 133.232 140.52 130.911C140.674 130.759 140.78 130.566 140.828 130.356C140.876 130.146 140.864 129.926 140.792 129.723C140.751 129.584 140.699 129.449 140.634 129.319C140.634 129.278 140.634 129.235 140.634 129.194C141.807 128.655 143.033 128.239 144.291 127.952C146.314 127.556 145.809 126.515 145.809 126.515C145.809 126.515 146.265 125.622 146.566 125.077C146.868 124.532 146.618 119.721 146.566 119.325C146.547 119.165 146.423 118.281 146.279 117.278C146.928 116.817 147.772 116.245 148.692 115.702C150.443 114.666 150.05 113.574 149.906 113.289ZM123.517 182.043C123.517 182.043 121.999 185.91 122.607 186.9C123.215 187.89 122.507 191.565 122.507 191.565L121.999 197.018C121.999 197.018 120.584 207.133 121.089 209.512C121.486 211.378 121.632 216.95 121.679 219.275C121.644 219.288 121.61 219.304 121.578 219.323L121.51 219.359C121.744 218.445 121.646 216.595 120.487 212.874L120.389 197.506C120.389 197.506 120.21 179.754 121.613 177.769C123.017 175.784 123.514 172.413 123.514 172.413C123.514 172.413 123.21 177.276 123.012 178.564C122.813 179.852 123.517 182.043 123.517 182.043ZM120.69 220.243C120.677 220.275 120.66 220.308 120.65 220.338L120.574 220.24C120.612 220.244 120.651 220.245 120.69 220.243Z" fill="url(#paint0_linear)"/>
<path d="M136.168 226.333C135.384 226.635 131.129 227.147 129.94 227.003C128.751 226.86 127.176 226.258 126.728 225.471C126.28 224.685 123.769 223.497 123.096 223.573C122.82 223.581 122.544 223.543 122.281 223.459C121.817 223.318 121.363 223.144 120.924 222.938C120.862 222.596 120.873 222.245 120.954 221.908C120.969 221.84 120.989 221.773 121.013 221.707C121.172 221.262 121.5 220.898 121.926 220.693L122.023 220.647C122.212 220.565 122.408 220.505 122.61 220.468C124.744 220.058 133.548 220.88 133.548 220.88C133.548 220.88 133.795 221.322 134.135 221.87C134.558 222.548 135.134 223.375 135.568 223.687C136.049 224.098 136.376 224.66 136.494 225.281C136.597 225.761 136.521 226.201 136.168 226.333Z" fill="white"/>
<path opacity="0.1" d="M136.168 226.334C135.384 226.635 131.132 227.147 129.943 227.003C128.754 226.86 127.179 226.255 126.728 225.471C126.278 224.687 123.772 223.497 123.098 223.573C122.425 223.649 120.926 222.938 120.926 222.938C120.926 222.938 120.693 221.854 121.372 221.113L122.729 222.076C122.729 222.076 126.362 223.201 127.035 224.245C127.708 225.289 128.936 225.873 130.708 225.978C132.033 226.065 135.077 225.55 136.502 225.292C136.597 225.761 136.524 226.201 136.168 226.334Z" fill="black"/>
<path d="M123.172 227.717C121.57 227.685 119.969 227.761 118.377 227.942C115.828 228.24 113.881 227.128 113.542 226.67C113.202 226.211 111.446 224.663 110.097 224.121C109.437 223.866 109.282 223.036 109.312 222.26C109.312 222.22 109.312 222.173 109.312 222.133C109.337 221.642 109.41 221.154 109.529 220.677L120.093 220.451L121.008 221.691L121.149 221.881L121.706 222.637C121.706 222.637 121.958 222.968 122.289 223.451C122.849 224.264 123.631 225.466 123.84 226.26C124.174 227.532 123.172 227.717 123.172 227.717Z" fill="white"/>
<path opacity="0.1" d="M123.172 227.717C121.57 227.685 119.969 227.761 118.377 227.942C115.831 228.24 113.881 227.128 113.545 226.67C113.208 226.211 111.446 224.649 110.097 224.126C109.437 223.871 109.282 223.041 109.312 222.266C110.067 222.442 111.652 222.892 112.274 223.676C113.088 224.723 114.546 226.483 116.618 226.594C118.29 226.683 122.363 226.385 123.856 226.266C124.176 227.532 123.172 227.717 123.172 227.717Z" fill="black"/>
<path opacity="0.1" d="M121.915 220.682C121.793 221.588 121.415 221.832 121.144 221.886C121.077 221.899 121.009 221.899 120.943 221.886C120.907 221.883 120.872 221.878 120.837 221.87C120.837 221.87 111.351 223.963 109.434 222.268C109.385 222.225 109.34 222.178 109.298 222.127C109.323 221.636 109.396 221.148 109.516 220.671L120.079 220.446L120.994 221.685C121.153 221.24 121.481 220.876 121.907 220.671L121.915 220.682Z" fill="black"/>
<path opacity="0.1" d="M134.132 221.859C133.92 222.092 133.744 222.225 133.632 222.179C133.133 221.978 129.039 221.281 127.738 221.881C126.438 222.48 122.037 221.978 122.037 221.978C122.037 221.978 122.037 221.458 122.013 220.622C122.201 220.541 122.397 220.481 122.599 220.443C124.733 220.034 133.537 220.856 133.537 220.856C133.537 220.856 133.795 221.311 134.132 221.859Z" fill="black"/>
<path d="M140.328 160.516L139.128 168.798L137.732 174.287L135.734 184.663V195.646C135.734 195.646 137.032 217.498 136.532 218.095C136.032 218.691 134.135 222.089 133.635 221.891C133.136 221.693 129.041 220.994 127.741 221.59C126.441 222.187 122.04 221.691 122.04 221.691C122.04 221.691 121.939 213.211 121.44 210.816C120.94 208.422 122.338 198.244 122.338 198.244L122.838 192.758C122.838 192.758 123.538 189.064 122.938 188.066C122.338 187.068 123.837 183.185 123.837 183.185C123.837 183.185 123.139 180.985 123.34 179.689C123.541 178.393 123.837 173.503 123.837 173.503C123.837 173.503 123.34 176.899 121.953 178.892C120.565 180.885 120.742 198.748 120.742 198.748L120.84 214.206C123.34 222.39 120.84 221.59 120.84 221.59C120.84 221.59 111.354 223.687 109.437 221.989C107.52 220.291 108.068 209.607 108.068 209.607C108.068 209.607 107.87 201.026 108.668 198.434C109.467 195.841 109.719 186.26 109.719 186.26C109.719 186.26 109.668 167.101 109.719 165.807C109.757 164.722 109.719 155.011 109.719 151.976C109.719 151.412 109.719 151.079 109.719 151.079L110.865 148.237L124.44 146.539H130.934C130.934 146.539 140.708 148.833 141.718 149.823C141.739 149.84 141.758 149.86 141.772 149.883C142.426 150.84 140.328 160.516 140.328 160.516Z" fill="#4665AF"/>
<path opacity="0.1" d="M123.845 204.02C123.845 204.02 126.832 211.204 128.241 211.703C129.65 212.202 123.845 204.02 123.845 204.02Z" fill="black"/>
<path opacity="0.1" d="M124.95 214.596C124.95 214.596 135.033 215.095 134.933 216.194C134.832 217.292 124.95 214.596 124.95 214.596Z" fill="black"/>
<path opacity="0.1" d="M111.459 211.725C111.859 212.102 119.151 212.809 118.551 213.498C117.951 214.187 112.059 215.527 112.059 215.527L111.459 211.725Z" fill="black"/>
<path opacity="0.1" d="M110.262 199.331C110.262 199.63 111.761 208.91 112.163 209.308C112.564 209.707 115.858 210.106 115.858 210.106L110.262 199.331Z" fill="black"/>
<path d="M121.136 72.4858C119.705 74.0831 119.086 76.3476 117.419 77.6981C116.406 78.5116 115.125 78.8994 113.946 79.4527C112.768 80.0059 111.601 80.8493 111.25 82.1022C110.859 83.5123 111.614 84.9523 112.011 86.3625C112.421 87.8215 112.445 89.3456 112.469 90.8724C112.497 92.7192 112.526 94.566 112.494 96.4128C112.445 99.2901 112.206 102.3 110.678 104.738C116.197 106.493 122.067 106.731 127.855 106.957C128.967 107.036 130.085 107.008 131.192 106.872C132.151 106.682 133.1 106.442 134.034 106.154C135.882 105.665 137.786 105.422 139.698 105.43C140.531 105.43 141.381 105.481 142.184 105.264C142.988 105.047 143.762 104.491 143.979 103.689C144.172 102.967 143.889 102.2 143.52 101.552C142.847 100.369 141.891 99.3823 141.169 98.2162C140.432 96.9844 139.994 95.597 139.892 94.1655C139.79 92.7341 140.025 91.2986 140.58 89.9747C141.221 88.4859 142.252 87.1897 142.882 85.6981C143.527 84.0967 143.699 82.344 143.377 80.6481C143.054 78.9522 142.251 77.3843 141.063 76.1306C138.872 73.8906 135.728 73.0228 132.72 72.5618C131.454 72.4123 130.245 71.9459 129.207 71.2058C128.053 70.4465 126.557 70.2621 125.205 70.4302C123.645 70.6048 122.201 71.3345 121.136 72.4858Z" fill="#3F3D56"/>
<g opacity="0.1">
<path opacity="0.1" d="M140.664 88.41C140.111 89.7168 139.873 91.1355 139.972 92.5511C140.033 91.5388 140.267 90.5445 140.664 89.6114C141.302 88.1226 142.334 86.8263 142.964 85.3348C143.479 84.0893 143.695 82.7409 143.596 81.3971C143.54 82.339 143.327 83.2649 142.964 84.1361C142.334 85.6276 141.302 86.9212 140.664 88.41Z" fill="black"/>
<path opacity="0.1" d="M112.551 90.5036C112.567 91.5667 112.583 92.6324 112.586 93.6955C112.586 92.2311 112.573 90.7694 112.551 89.3077C112.529 87.7917 112.502 86.2568 112.092 84.7951C111.821 83.8676 111.419 82.9266 111.278 81.991C111.036 83.3198 111.723 84.6677 112.092 85.9938C112.502 87.4419 112.529 88.9877 112.551 90.5036Z" fill="black"/>
<path opacity="0.1" d="M142.277 103.713C141.462 103.933 140.626 103.884 139.793 103.879C137.883 103.866 135.98 104.105 134.132 104.589C133.197 104.876 132.248 105.115 131.289 105.305C130.182 105.442 129.063 105.472 127.95 105.392C122.357 105.172 116.686 104.936 111.329 103.339C111.17 103.694 110.989 104.038 110.786 104.369C116.306 106.121 122.175 106.363 127.961 106.588C129.074 106.667 130.193 106.638 131.3 106.501C132.256 106.312 133.201 106.074 134.132 105.788C135.976 105.302 137.875 105.061 139.782 105.069C140.615 105.069 141.462 105.121 142.266 104.901C143.07 104.681 143.843 104.131 144.061 103.328C144.152 102.956 144.143 102.567 144.033 102.2C143.792 102.959 143.045 103.488 142.277 103.713Z" fill="black"/>
</g>
<path d="M134.235 100.5C134.034 100.95 133.187 104.839 132.986 105.237C132.785 105.636 131.689 112.017 131.588 112.375C131.488 112.733 124.358 110.878 124.358 110.878L120.066 107.285L115.654 102.9C115.654 102.9 115.524 98.943 118.774 97.6738C118.994 97.5872 119.221 97.5165 119.452 97.4623C123.394 96.5158 122.998 84.5429 122.998 84.5429L131.089 88.0331C131.089 88.0331 129.59 95.0189 129.641 96.3667C129.655 96.8196 130.011 97.1016 130.475 97.2724C131.193 97.4764 131.94 97.5571 132.685 97.5111C132.685 97.5111 134.436 100.052 134.235 100.5Z" fill="#A0616A"/>
<path d="M148.719 113.62L149.868 113.921C149.868 113.921 150.718 115.211 148.719 116.413C147.451 117.183 146.233 118.033 145.073 118.959L139.168 120.755L138.031 117.188L143.526 113.023L148.719 113.62Z" fill="#4665AF"/>
<path opacity="0.1" d="M148.719 113.62L149.868 113.921C149.868 113.921 150.718 115.211 148.719 116.413C147.451 117.183 146.233 118.033 145.073 118.959L139.168 120.755L138.031 117.188L143.526 113.023L148.719 113.62Z" fill="black"/>
<path d="M105.625 117.064L103.328 119.309C103.328 119.309 107.471 124.098 110.659 124.397C113.846 124.695 115.901 120.755 115.901 120.755L113.143 116.416L105.625 117.064Z" fill="#4665AF"/>
<path opacity="0.1" d="M105.625 117.064L103.328 119.309C103.328 119.309 107.471 124.098 110.659 124.397C113.846 124.695 115.901 120.755 115.901 120.755L113.143 116.416L105.625 117.064Z" fill="black"/>
<path opacity="0.1" d="M127.442 92.3666C131.855 92.3666 135.432 88.7934 135.432 84.3856C135.432 79.9778 131.855 76.4045 127.442 76.4045C123.03 76.4045 119.452 79.9778 119.452 84.3856C119.452 88.7934 123.03 92.3666 127.442 92.3666Z" fill="black"/>
<path d="M127.442 91.7673C131.855 91.7673 135.432 88.1941 135.432 83.7862C135.432 79.3784 131.855 75.8052 127.442 75.8052C123.03 75.8052 119.452 79.3784 119.452 83.7862C119.452 88.1941 123.03 91.7673 127.442 91.7673Z" fill="#A0616A"/>
<path opacity="0.1" d="M141.777 150.789C139.958 150.997 138.166 151.398 136.432 151.985C133.445 152.977 110.042 152.001 109.716 151.985C109.716 151.421 109.716 151.087 109.716 151.087L110.862 148.245L124.437 146.547H130.931C130.931 146.547 140.705 148.842 141.715 149.831C141.756 150.428 141.777 150.789 141.777 150.789Z" fill="black"/>
<path opacity="0.1" d="M134.235 100.5C134.034 100.95 133.187 104.839 132.986 105.237C132.785 105.636 131.689 112.017 131.588 112.375C131.488 112.733 124.358 110.878 124.358 110.878L120.066 107.285L115.654 102.9C115.654 102.9 115.524 98.943 118.774 97.6738L126.842 106.94L130.475 97.2724C131.193 97.4764 131.94 97.5571 132.685 97.5111C132.685 97.5111 134.436 100.052 134.235 100.5Z" fill="black"/>
<path d="M126.842 107.239L118.584 97.747C118.1 97.4387 117.548 97.2553 116.976 97.2132C116.404 97.171 115.83 97.2715 115.307 97.5056C113.458 98.3056 111.161 98.9538 110.561 99.3524C109.961 99.7511 107.713 102.219 107.713 102.219L114.408 119.713L111.459 131.236C111.459 131.236 111.91 137.123 110.762 139.269C110.062 140.64 109.735 142.171 109.812 143.708C109.812 143.708 110.162 146.553 109.763 148.047C109.529 149.046 109.512 150.083 109.711 151.09C109.711 151.09 133.437 152.088 136.432 151.09C138.165 150.501 139.958 150.1 141.777 149.894C141.777 149.894 141.234 139.914 140.691 137.519C140.148 135.125 141.142 125.997 141.142 125.997L140.493 116.218L144.386 106.184C144.386 106.184 142.277 99.7511 140.078 99.1029C140.078 99.1029 136.084 98.1538 135.234 97.7063C134.385 97.2588 131.887 96.8575 131.887 96.8575L130.575 97.2968L126.842 107.239Z" fill="#4665AF"/>
<path opacity="0.1" d="M138.365 115.887L120.986 114.707C120.546 114.677 120.166 115.009 120.136 115.448L118.27 142.856C118.24 143.296 118.572 143.676 119.012 143.706L136.391 144.886C136.831 144.916 137.212 144.584 137.242 144.145L139.107 116.737C139.137 116.298 138.805 115.917 138.365 115.887Z" fill="black"/>
<path d="M138.964 115.292L121.585 114.112C121.145 114.082 120.764 114.414 120.734 114.853L118.868 142.261C118.838 142.701 119.171 143.081 119.611 143.111L136.989 144.291C137.429 144.321 137.81 143.989 137.84 143.55L139.706 116.142C139.736 115.702 139.403 115.322 138.964 115.292Z" fill="#3F3D56"/>
<path d="M138.39 117.441L121.862 116.318L120.163 141.269L136.691 142.392L138.39 117.441Z" fill="white"/>
<path opacity="0.1" d="M136.908 123.809L123.407 122.865L123.143 126.624L136.645 127.568L136.908 123.809Z" fill="black"/>
<path opacity="0.1" d="M136.42 138.746L134.277 138.601L134.144 140.559L136.286 140.705L136.42 138.746Z" fill="black"/>
<path opacity="0.1" d="M134.306 134.018L123.339 133.273L123.205 135.232L134.173 135.977L134.306 134.018Z" fill="black"/>
<path d="M136.344 116.508L124.925 115.732L124.72 118.743L136.139 119.519L136.344 116.508Z" fill="#3F3D56"/>
<path opacity="0.1" d="M136.344 116.508L124.925 115.732L124.72 118.743L136.139 119.519L136.344 116.508Z" fill="black"/>
<path opacity="0.1" d="M127.841 150.238C127.841 150.238 127.741 165.007 123.845 173.487C123.845 173.487 128.542 162.311 128.542 161.864C128.542 161.417 131.137 156.725 130.442 155.328C129.747 153.932 127.841 150.238 127.841 150.238Z" fill="black"/>
<path opacity="0.1" d="M128.053 81.7903C127.904 80.4831 128.224 79.1655 128.957 78.0723C128.87 79.168 129.18 80.2585 129.831 81.1446C130.482 82.0308 131.431 82.6537 132.503 82.8995C132.412 82.8201 132.346 82.715 132.316 82.5978C132.285 82.4807 132.291 82.357 132.332 82.2432C132.889 82.8723 133.315 83.6181 133.945 84.1713C134.575 84.7246 135.519 85.0554 136.261 84.6622C137.268 84.1198 137.279 82.6906 137.018 81.5788C136.459 79.2109 135.311 77.0219 133.681 75.214C133.275 74.6675 132.747 74.2225 132.139 73.9138C131.532 73.6052 130.861 73.4413 130.179 73.435C128.637 73.3157 127.035 73.4513 125.653 74.1428C124.876 74.5667 124.147 75.0751 123.481 75.6587L119.68 78.7557C119.315 79.0189 119.002 79.3482 118.757 79.7266C118.594 80.0429 118.496 80.3887 118.47 80.7435C118.372 81.7578 118.56 82.779 119.012 83.6925C119.464 84.6061 120.162 85.3757 121.027 85.9151C121.009 85.1134 121.229 84.3245 121.661 83.6484C122.093 82.9724 122.716 82.4398 123.451 82.1184C123.567 82.2147 123.66 82.3344 123.725 82.4695C123.79 82.6047 123.825 82.7522 123.829 82.9022L124.63 81.4757C124.749 81.2162 124.937 80.9939 125.173 80.833C125.667 80.5618 126.283 80.8818 126.704 81.2642C127.125 81.6466 127.535 82.1239 128.099 82.1835L128.121 80.0601" fill="black"/>
<path d="M128.053 81.492C127.904 80.1839 128.224 78.8653 128.957 77.7713C128.713 79.9408 130.35 82.1808 132.506 82.5985C132.414 82.5198 132.349 82.4151 132.318 82.2983C132.288 82.1816 132.293 82.0583 132.335 81.9449C132.891 82.5741 133.317 83.3171 133.947 83.873C134.577 84.429 135.522 84.7571 136.263 84.3612C137.27 83.8188 137.281 82.3896 137.021 81.2805C136.461 78.9126 135.314 76.7237 133.684 74.9157C133.178 74.3 132.541 73.8051 131.819 73.4676C131.296 73.2744 130.747 73.1628 130.19 73.1367C128.648 73.0174 127.046 73.1503 125.664 73.8418C124.887 74.2676 124.159 74.7768 123.492 75.3605L119.691 78.4574C119.325 78.7199 119.012 79.0493 118.768 79.4283C118.605 79.7445 118.507 80.0904 118.48 80.4452C118.383 81.4591 118.571 82.4799 119.023 83.3929C119.475 84.306 120.173 85.0752 121.038 85.6141C121.02 84.8126 121.241 84.0239 121.673 83.348C122.104 82.6721 122.727 82.1394 123.462 81.8174C123.577 81.914 123.67 82.0338 123.735 82.1689C123.8 82.304 123.836 82.4513 123.84 82.6012L124.638 81.1801C124.756 80.9201 124.944 80.6977 125.181 80.5374C125.675 80.2662 126.291 80.5862 126.712 80.9686C127.133 81.351 127.543 81.8256 128.107 81.8879L128.129 79.7618" fill="#3F3D56"/>
<path d="M131.838 131.833C131.14 131.48 119.602 133.278 119.602 133.278C119.602 133.278 117.701 132.736 113.107 131.982C108.514 131.228 108.221 126.742 108.221 126.742L107.718 117.763L109.269 116.407L115.909 120.746C115.909 120.746 116.012 122.94 115.909 123.336C115.844 123.607 115.67 123.93 115.687 124.15C115.692 124.209 115.716 124.266 115.756 124.31C115.797 124.354 115.85 124.383 115.909 124.394C116.36 124.508 122.501 125.5 122.501 125.5C122.501 125.5 136.736 124.527 140.284 129.316C140.565 129.668 140.778 130.069 140.911 130.498C141.791 133.772 132.47 132.144 131.838 131.833Z" fill="#A0616A"/>
<path opacity="0.1" d="M140.919 130.517C140.376 130.759 140.04 130.932 140.04 130.932C140.04 130.932 134.947 130.783 132.085 129.747C129.223 128.711 125.746 128.896 125.746 128.896C125.746 128.896 113.822 126.846 115.67 124.169C115.675 124.228 115.7 124.285 115.74 124.329C115.78 124.373 115.834 124.402 115.893 124.413C116.344 124.527 122.485 125.519 122.485 125.519C122.485 125.519 136.719 124.546 140.268 129.335C140.558 129.685 140.779 130.086 140.919 130.517Z" fill="black"/>
<path d="M145.871 114.718C145.871 114.718 146.572 119.656 146.621 120.058C146.67 120.459 146.922 125.294 146.621 125.845C146.319 126.395 145.871 127.29 145.871 127.29C145.871 127.29 146.371 128.337 144.373 128.738C142.374 129.14 140.029 130.333 140.029 130.333C140.029 130.333 134.933 130.184 132.088 129.137C129.242 128.09 125.745 128.288 125.745 128.288C125.745 128.288 110.61 125.693 117.104 122.525C123.598 119.358 128.192 123.648 128.192 123.648L135.432 123.201C135.432 123.201 138.131 121.552 138.88 121.704C139.409 121.771 139.947 121.684 140.428 121.454L140.479 116.215L145.871 114.718Z" fill="#A0616A"/>
<path opacity="0.1" d="M109.154 102.596L107.705 102.52L103.312 119.605C103.312 119.605 108.055 118.406 110.099 119.605C112.144 120.803 115.893 121.05 115.893 121.05L114.495 107.431L109.154 102.596Z" fill="black"/>
<path d="M109.154 102.295L107.705 102.219L103.312 119.304C103.312 119.304 108.055 118.105 110.099 119.304C112.144 120.502 115.893 120.749 115.893 120.749L114.495 107.13L109.154 102.295Z" fill="#4665AF"/>
<path opacity="0.1" d="M142.377 106.037L144.373 106.487C144.373 106.487 149.469 113.809 149.868 114.219C150.267 114.628 147.967 116.117 147.02 116.117C146.072 116.117 141.427 116.66 140.078 117.913C138.728 119.165 139.29 112.86 139.29 112.717C139.29 112.573 140.966 108.595 140.966 108.595L142.377 106.037Z" fill="black"/>
<path d="M142.377 105.739L144.373 106.186C144.373 106.186 149.469 113.522 149.868 113.921C150.267 114.319 147.967 115.819 147.02 115.819C146.072 115.819 141.427 116.361 140.078 117.614C138.728 118.867 139.29 112.562 139.29 112.418C139.29 112.275 140.976 108.283 140.976 108.283L142.377 105.739Z" fill="#4665AF"/>
<g opacity="0.1">
<path opacity="0.1" d="M128.944 77.7957C128.932 77.5878 128.936 77.3792 128.957 77.172C128.544 77.7916 128.26 78.4879 128.121 79.2195V79.8486C128.121 79.8486 128.121 79.8351 128.121 79.8269V79.9761C128.121 80.4154 128.121 80.8574 128.107 81.2968H128.069V81.5001C128.069 81.4296 128.069 81.3618 128.056 81.2913C127.513 81.2046 127.125 80.749 126.72 80.3856C126.316 80.0222 125.683 79.6751 125.189 79.9544C124.952 80.1147 124.764 80.3371 124.646 80.5971L123.84 82.0181C123.836 81.8686 123.801 81.7215 123.735 81.5868C123.67 81.4521 123.577 81.3329 123.462 81.2371C122.727 81.5585 122.104 82.091 121.672 82.7671C121.24 83.4431 121.019 84.2321 121.038 85.0337C120.296 84.5695 119.675 83.9356 119.227 83.1844C118.779 82.4332 118.517 81.5863 118.461 80.7137C118.414 81.6881 118.628 82.6574 119.081 83.5216C119.534 84.3859 120.209 85.1138 121.038 85.6303C121.02 84.8288 121.241 84.0402 121.673 83.3643C122.104 82.6884 122.727 82.1557 123.462 81.8337C123.577 81.9303 123.67 82.0501 123.735 82.1852C123.8 82.3202 123.836 82.4676 123.84 82.6174L124.638 81.1964C124.756 80.9364 124.944 80.714 125.181 80.5537C125.675 80.2825 126.291 80.6025 126.712 80.9849C127.133 81.3673 127.543 81.8418 128.107 81.9042C128.107 81.21 128.115 80.5176 128.129 79.8269C128.262 79.1024 128.539 78.4118 128.944 77.7957Z" fill="black"/>
<path opacity="0.1" d="M128.026 80.5266C128.04 80.3422 128.061 80.1578 128.088 79.9842L128.118 79.2357C128.037 79.6609 128.006 80.0942 128.026 80.5266Z" fill="black"/>
<path opacity="0.1" d="M136.263 83.7619C135.522 84.1578 134.577 83.8269 133.947 83.2737C133.317 82.7205 132.891 81.9747 132.335 81.3456C132.293 81.4594 132.288 81.5831 132.318 81.7002C132.349 81.8174 132.414 81.9225 132.506 82.0019C132.451 82.0019 132.4 81.9747 132.348 81.9612C132.891 82.5849 133.323 83.3171 133.947 83.8595C134.572 84.4019 135.522 84.7436 136.263 84.3476C137.004 83.9517 137.216 83.0242 137.151 82.1212C137.102 82.8317 136.847 83.4473 136.263 83.7619Z" fill="black"/>
<path opacity="0.1" d="M132.332 81.9558C131.424 81.7086 130.613 81.1902 130.009 80.4699C129.404 79.7496 129.034 78.862 128.949 77.9259C128.794 80.0547 130.402 82.189 132.506 82.5985C132.416 82.5207 132.352 82.4181 132.321 82.3036C132.29 82.1891 132.294 82.068 132.332 81.9558Z" fill="black"/>
</g>
<path d="M262.715 126.279C262.715 126.279 261.645 126.13 261.645 124.576C261.645 123.022 260.879 120.112 260.879 120.112C260.879 120.112 260.217 115.049 259.302 114.246C258.387 113.443 257.211 108.73 257.211 108.73C257.211 108.73 257.011 106.173 256.601 105.622C256.191 105.072 255.637 103.724 254.82 101.801C254.002 99.8786 250.603 98.5606 250.603 98.5606C250.603 98.5606 244.443 94.9917 242.697 93.8283C242.538 93.7319 242.388 93.6192 242.252 93.4921C241.948 93.0961 240.623 93.088 240.623 93.088C240.485 92.2121 240.352 91.2087 240.308 90.3002C240.308 90.2026 240.308 90.1049 240.308 90.0073C242.255 88.858 243.721 87.0458 244.438 84.9036C244.47 84.8005 244.497 84.6947 244.527 84.589C244.646 84.5523 244.756 84.4907 244.85 84.4085C244.943 84.3262 245.019 84.225 245.07 84.1117C245.225 83.7619 245.23 83.3551 245.426 83.0269C245.654 82.6418 246.088 82.4357 246.43 82.1483C247.294 81.4134 247.516 80.1795 247.476 79.0595C247.448 78.1483 247.302 77.2316 247.359 76.3286C247.359 76.2527 247.359 76.1767 247.375 76.1008C247.391 75.9679 247.41 75.8296 247.435 75.6994C247.568 75.0269 247.858 74.3923 248.021 73.7252C248.184 73.0581 248.201 72.3069 247.82 71.732C247.264 70.8886 246.105 70.7204 245.086 70.6472C243.933 70.5496 242.914 70.6743 242.162 69.717C241.817 69.217 241.429 68.7487 241 68.3177C240.848 68.1767 239.371 67.2736 239.371 67.2167C237.926 66.5456 236.287 66.4194 234.756 66.8614C233.988 67.0838 233.268 67.4472 232.489 67.6289C230.817 68.0248 228.889 67.5963 227.466 68.5536C226.674 69.096 226.199 69.9611 225.753 70.7991C225.391 71.4897 225.024 72.1812 224.651 72.8737C224.048 74.0099 223.44 75.1652 223.188 76.4235C223.135 76.6983 223.101 76.9765 223.087 77.2561C223.087 77.3564 223.087 77.4567 223.087 77.5571C223.087 77.6005 223.087 77.6439 223.087 77.6872C223.087 77.7794 223.087 77.8716 223.104 77.9584C223.12 78.0452 223.104 78.0696 223.123 78.1266C223.142 78.1835 223.147 78.311 223.163 78.3978C223.18 78.4845 223.212 78.6391 223.245 78.7557C223.245 78.8072 223.277 78.8561 223.294 78.9076C223.31 78.9591 223.353 79.0893 223.389 79.1788C223.424 79.2683 223.427 79.2737 223.448 79.3198C223.489 79.4147 223.538 79.5069 223.587 79.591C223.609 79.6262 223.625 79.6615 223.647 79.6967C223.721 79.8237 223.804 79.9451 223.896 80.0601C224.475 80.7842 225.333 81.2452 225.965 81.9232C225.965 81.9503 225.965 81.9774 225.965 82.0046C225.965 82.0778 225.965 82.151 225.965 82.2269C226.004 83.7391 226.412 85.2189 227.154 86.5376C227.896 87.8562 228.949 88.9738 230.222 89.7931C230.222 89.8961 230.236 90.0019 230.241 90.1076C230.294 90.9117 230.284 91.7187 230.211 92.5212C230.1 92.3915 229.962 92.2881 229.806 92.2186C229.65 92.1492 229.481 92.1154 229.31 92.1199C229.193 92.1141 229.076 92.1241 228.962 92.1497L228.938 92.1307V92.1551C228.341 92.3016 227.605 92.9226 226.902 94.688C226.902 94.688 224.762 97.0962 223.133 96.9958C221.504 96.8955 217.38 99.5043 217.38 99.5043C217.38 99.5043 213.357 102.11 212.494 104.768C212.011 106.275 211.431 107.75 210.759 109.183L205.771 119.412L204.856 127.548C204.856 127.548 205.364 131.157 205.264 131.711C205.163 132.264 207.351 137.227 207.351 137.227C207.351 137.227 214.581 149.913 217.535 150.564L217.747 150.417C217.874 150.481 218.008 150.53 218.146 150.564L218.754 150.138C218.792 150.615 218.775 151.094 218.705 151.567C218.301 152.823 218.86 160.996 219.571 162.599C220.283 164.202 220.03 185.219 220.03 185.219L219.93 187.071C219.93 187.071 219.93 187.131 219.954 187.234L219.93 187.673L220.003 187.711C220.079 188.3 220.054 188.898 219.93 189.479C219.675 190.293 219.571 192.59 219.571 192.59C219.571 192.59 217.535 205.574 218.502 208.183C219.468 210.792 220.285 213.65 220.285 213.65C220.285 213.65 221.304 216.904 220.334 217.447C219.365 217.989 216.62 218.952 217.18 220.305C217.695 221.558 219.653 224.915 219.943 225.406L219.919 225.677L219.52 229.997C219.584 230.568 219.739 231.124 219.979 231.646C220.416 232.59 221.263 233.563 222.881 233.458C223.152 233.439 223.465 233.409 223.771 233.368C226.728 232.969 230.366 231.652 230.366 231.652C230.177 231.532 230.005 231.389 229.853 231.226C229.708 231.085 229.592 230.916 229.514 230.73C229.437 230.543 229.397 230.343 229.4 230.141C229.443 229.352 227.969 225.607 227.599 224.682L227.515 224.476C227.515 224.476 230.876 220.964 230.317 217.856C230.317 217.856 226.598 215.687 227.822 214.493C229.047 213.3 231.235 209.883 231.235 209.883C231.235 209.883 231.335 197.097 231.235 195.19C231.13 193.864 231.193 192.53 231.422 191.22C231.463 191.025 231.512 190.832 231.563 190.64C233.258 190.895 234.97 191.025 236.684 191.028C237.31 191.028 237.943 191.015 238.584 190.99C238.584 191.17 238.592 191.366 238.609 191.575C238.75 194.743 239.013 200.299 239.228 202.363C239.532 205.319 241.212 213.295 241.212 213.295C241.212 213.295 238.006 215.348 241.771 220.416C241.771 220.416 241.772 222.249 241.522 222.518C241.255 223.388 241.04 224.272 240.878 225.167C240.721 226.119 240.656 227.087 240.911 227.586C241.522 228.785 245.187 228.687 245.187 228.687C245.216 228.681 245.246 228.676 245.277 228.674C245.968 228.601 246.668 228.666 247.334 228.867C248 229.067 248.62 229.398 249.156 229.84C250.549 230.957 255.832 230.469 258.696 230.111C259.818 229.967 260.567 229.84 260.567 229.84C260.603 229.713 260.616 229.581 260.605 229.449C260.575 228.747 260.024 227.207 256.288 225.832C256.288 225.832 252.775 223.473 252.824 221.417H252.745H252.341C252.596 221.409 252.775 221.409 252.775 221.409C252.775 221.409 251.399 216.395 251.961 215.985C252.523 215.576 250.839 210.019 250.839 210.019C250.839 210.019 249.876 200.69 249.821 200.039C249.825 199.478 249.911 198.921 250.077 198.385L249.821 193.268C249.821 193.268 249.772 191.567 249.821 191.014C249.816 190.534 249.778 190.054 249.707 189.579C249.683 189.39 249.658 189.192 249.631 188.996C250.948 188.663 251.803 188.356 251.803 188.356L251.651 170.553C252.77 168.383 252.976 163.621 252.971 160.248C252.971 158.078 252.873 156.473 252.873 156.473L254.401 153.981C254.401 153.981 254.754 150.998 254.195 150.344C253.948 150.048 254.059 149.742 254.263 149.49C254.37 149.402 254.484 149.322 254.602 149.251C254.589 149.232 254.577 149.212 254.567 149.191C254.674 149.102 254.787 149.022 254.906 148.95C254.906 148.95 254.363 148.109 254.849 147.754C255.306 148.063 255.713 148.31 256.022 148.486C256.001 148.684 255.979 148.798 255.979 148.798L256.109 148.527C256.408 148.695 256.59 148.798 256.59 148.798C256.59 148.798 258.984 144.033 258.933 143.334C258.881 142.634 260.562 139.673 260.562 139.673C260.562 139.673 260.765 138.116 261.683 137.465C262.601 136.814 262.394 132.098 262.394 132.098C262.394 132.098 262.649 129.641 263.26 128.641C263.871 127.64 262.715 126.279 262.715 126.279ZM216.897 124.188L216.943 125.324C216.672 124.888 216.476 124.576 216.476 124.576L216.897 124.188Z" fill="url(#paint1_linear)"/>
<path d="M256.731 146.737L256.144 149.232C256.144 149.232 251.448 146.832 250.603 143.795C249.759 140.757 252.018 139.599 252.018 139.599L256.397 141.449L256.731 146.737Z" fill="white"/>
<path opacity="0.1" d="M256.731 146.737L256.144 149.232C256.144 149.232 251.448 146.832 250.603 143.795C249.759 140.757 252.018 139.599 252.018 139.599L256.397 141.449L256.731 146.737Z" fill="black"/>
<path d="M230.372 231.649C230.372 231.649 226.028 233.243 223.041 233.444C221.456 233.55 220.622 232.579 220.193 231.643C219.96 231.127 219.808 230.579 219.743 230.016L220.136 225.718L220.343 223.432L226.687 221.783L227.586 224.53L227.67 224.736C228.029 225.656 229.478 229.382 229.435 230.16C229.431 230.361 229.469 230.561 229.545 230.748C229.621 230.934 229.734 231.103 229.877 231.245C230.024 231.4 230.19 231.536 230.372 231.649Z" fill="white"/>
<path d="M260.029 229.463C260.041 229.594 260.028 229.727 259.991 229.854C259.991 229.854 250.701 231.399 248.8 229.854C248.266 229.402 247.644 229.067 246.972 228.869C246.301 228.672 245.596 228.616 244.902 228.706C244.902 228.706 241.307 228.804 240.707 227.622C240.457 227.125 240.523 226.163 240.677 225.216C240.835 224.326 241.046 223.446 241.307 222.58L241.451 222.466L242.306 221.78L252.319 221.485H252.395C252.346 223.529 255.791 225.875 255.791 225.875C259.459 227.231 260 228.763 260.029 229.463Z" fill="white"/>
<path opacity="0.1" d="M260.032 229.463C260.042 229.595 260.028 229.727 259.992 229.854C259.992 229.854 250.701 231.399 248.803 229.854C248.269 229.402 247.646 229.066 246.974 228.869C246.302 228.671 245.596 228.616 244.902 228.706C244.902 228.706 241.305 228.804 240.705 227.622C240.458 227.125 240.52 226.163 240.675 225.214C242.059 225.352 244.245 225.696 245.103 226.521C246.401 227.768 248.6 229.016 249.946 229.116C251.011 229.181 257.339 229.382 260.032 229.463Z" fill="black"/>
<path opacity="0.1" d="M230.371 231.649C230.371 231.649 226.028 233.243 223.041 233.444C221.456 233.55 220.622 232.579 220.193 231.643C221.301 232.015 222.835 232.403 223.641 232.047C224.597 231.622 227.985 231.35 229.885 231.234C230.029 231.393 230.192 231.532 230.371 231.649Z" fill="black"/>
<path d="M236.817 103.136C233.233 101.744 228.623 97.1477 229.774 94.9999C230.029 94.4574 230.181 93.8727 230.222 93.2751C230.296 92.4636 230.307 91.6476 230.255 90.8344C230.174 89.5017 230.014 88.1751 229.774 86.8615C229.774 86.8615 240.963 87.1137 240.311 88.7598C240.121 89.2453 240.088 90.0832 240.143 91.0188C240.197 91.9544 240.33 93.0202 240.471 93.9178C240.664 95.1463 240.862 96.0873 240.862 96.0873C240.862 96.0873 240.175 97.0446 239.776 97.0962C239.377 97.1477 241.959 105.129 236.817 103.136Z" fill="#CF6F80"/>
<path opacity="0.1" d="M227.659 224.723L227.575 224.815C224.23 220.774 220.185 225.813 220.185 225.813L220.125 225.704L220.331 223.418L226.676 221.769L227.575 224.517L227.659 224.723Z" fill="black"/>
<path opacity="0.1" d="M252.401 221.769C252.401 221.769 249.957 221.721 248.654 222.87C247.351 224.02 241.052 223.117 241.324 222.87C241.403 222.745 241.451 222.603 241.465 222.456L242.32 221.769L252.333 221.474C252.371 221.664 252.401 221.769 252.401 221.769Z" fill="black"/>
<path d="M231.821 190.038C231.64 190.487 231.501 190.953 231.409 191.429C231.182 192.732 231.119 194.059 231.221 195.377C231.322 197.276 231.221 209.997 231.221 209.997C231.221 209.997 229.074 213.39 227.874 214.586C226.674 215.782 230.317 217.929 230.317 217.929C230.86 221.024 227.57 224.517 227.57 224.517C224.225 220.476 220.18 225.512 220.18 225.512C220.18 225.512 217.98 221.715 217.432 220.359C216.884 219.003 219.58 218.068 220.527 217.514C221.475 216.961 220.478 213.718 220.478 213.718C220.478 213.718 219.68 210.873 218.73 208.278C217.78 205.683 219.778 192.766 219.778 192.766C219.778 192.766 219.881 190.469 220.128 189.669C220.251 189.091 220.276 188.497 220.201 187.912C220.185 187.714 220.166 187.551 220.152 187.437C220.139 187.323 220.128 187.274 220.128 187.274L220.166 187.209L221.523 184.682C221.523 184.682 232.473 188.446 231.821 190.038Z" fill="#4665AF"/>
<path d="M252.401 221.471C252.401 221.471 249.957 221.42 248.654 222.556C247.351 223.692 241.052 222.805 241.324 222.556C241.595 222.306 241.571 220.462 241.571 220.462C237.876 215.421 241.028 213.376 241.028 213.376C241.028 213.376 239.38 205.444 239.081 202.502C238.872 200.449 238.614 194.908 238.476 191.771C238.416 190.415 238.381 189.479 238.381 189.479L241.372 188.885L241.761 188.809L249.042 187.348C249.042 187.348 249.243 188.703 249.379 189.813C249.448 190.286 249.485 190.763 249.49 191.242C249.444 191.784 249.49 193.485 249.49 193.485L249.74 198.572C249.579 199.106 249.495 199.66 249.49 200.218C249.542 200.869 250.489 210.146 250.489 210.146C250.489 210.146 252.137 215.684 251.575 216.083C251.013 216.481 252.401 221.471 252.401 221.471Z" fill="#4665AF"/>
<path opacity="0.1" d="M240.311 88.768C240.121 89.2534 240.088 90.0914 240.143 91.027C238.644 91.9284 236.921 92.3893 235.172 92.3567C233.423 92.324 231.719 91.7993 230.255 90.8426C230.174 89.5099 230.013 88.1832 229.774 86.8697C229.774 86.8697 240.963 87.1219 240.311 88.768Z" fill="black"/>
<path d="M244.63 82.7801C244.66 85.2406 243.71 87.6121 241.989 89.3728C240.268 91.1335 237.917 92.1392 235.454 92.1687C232.991 92.1981 230.616 91.249 228.854 89.53C227.091 87.811 226.084 85.463 226.055 83.0025C226.055 82.9266 226.055 82.8561 226.055 82.7801C226.055 80.3189 227.034 77.9585 228.776 76.2182C230.518 74.4778 232.881 73.5001 235.345 73.5001C237.809 73.5001 240.172 74.4778 241.915 76.2182C243.657 77.9585 244.636 80.3189 244.636 82.7801H244.63Z" fill="#CF6F80"/>
<path opacity="0.1" d="M236.817 103.136C233.233 101.744 228.623 97.1477 229.774 94.9999C230.029 94.4574 230.181 93.8727 230.222 93.2751L235.128 97.305L238.163 99.7918L240.471 93.926C240.664 95.1545 240.862 96.0955 240.862 96.0955C240.862 96.0955 240.175 97.0528 239.776 97.1043C239.377 97.1558 241.959 105.129 236.817 103.136Z" fill="black"/>
<path d="M249.504 120.944L245.407 189.691L240.064 190.04L226.226 150.179L228.496 102.853L228.976 92.8548L235.128 97.9016L238.163 100.388L240.539 94.349L244.956 98.1945L249.504 120.944Z" fill="#4665AF"/>
<path opacity="0.1" d="M231.821 190.038C231.64 190.487 231.501 190.953 231.409 191.429C227.517 190.83 223.737 189.652 220.196 187.933L220.123 187.895L220.147 187.459V187.231L221.504 184.703C221.504 184.703 232.473 188.446 231.821 190.038Z" fill="black"/>
<path opacity="0.1" d="M241.462 191.44C240.468 191.609 239.466 191.724 238.459 191.784C238.4 190.428 238.364 189.493 238.364 189.493L241.373 188.885L241.462 191.44Z" fill="black"/>
<path opacity="0.1" d="M249.39 189.813C247.459 190.314 244.476 190.878 241.81 190.526L241.772 188.809L249.053 187.348C249.053 187.348 249.246 188.693 249.39 189.813Z" fill="black"/>
<path opacity="0.1" d="M241.761 190.84C230.629 192.739 220.435 187.296 220.435 187.296L220.532 185.452C220.532 185.452 220.785 164.546 220.084 162.943C219.384 161.341 218.838 153.224 219.235 151.985C219.631 150.745 217.788 132.033 217.788 132.033L217.489 124.44L206.55 120.001L211.437 109.823C212.097 108.396 212.665 106.929 213.137 105.43C213.987 102.786 217.932 100.19 217.932 100.19C217.932 100.19 221.977 97.5979 223.576 97.6955C225.175 97.7931 227.271 95.4012 227.271 95.4012C228.818 91.4609 230.219 93.2317 230.219 93.2317C230.219 93.4216 230.219 93.2317 230.143 93.8148C229.6 98.1402 238.923 111.808 239.057 112.052L239.955 133.655L240.854 160.993L241.761 190.84Z" fill="black"/>
<path d="M241.462 190.84C230.331 192.739 220.133 187.296 220.133 187.296L220.234 185.452C220.234 185.452 220.484 164.546 219.783 162.943C219.083 161.341 218.537 153.216 218.936 151.966C219.335 150.715 217.481 132.022 217.481 132.022L217.18 124.429L206.244 119.99L211.131 109.812C211.789 108.386 212.357 106.919 212.83 105.422C213.68 102.786 217.638 100.188 217.638 100.188C217.638 100.188 221.684 97.5951 223.28 97.6928C224.876 97.7904 226.983 95.4012 226.983 95.4012C228.533 91.4609 230.241 93.2317 230.241 93.2317C230.241 93.4216 230.078 93.5029 230.165 93.8148C231.36 98.0101 238.647 111.808 238.78 112.052L239.678 133.655L240.558 161.007L241.462 190.84Z" fill="white"/>
<path opacity="0.1" d="M238.462 112.662C237.265 112.163 230.922 104.931 230.922 104.931V103.285C230.692 102.742 229.318 103.073 228.208 103.453L228.685 93.4541L229.228 93.9043C230.415 98.0968 238.332 112.421 238.462 112.662Z" fill="black"/>
<path d="M238.763 112.066C237.563 111.564 231.221 104.334 231.221 104.334V102.685C230.99 102.143 229.619 102.474 228.506 102.853L228.976 92.8656L229.519 93.3131C230.716 97.5002 238.63 111.822 238.763 112.066Z" fill="white"/>
<path opacity="0.1" d="M220.435 148.134C220.584 148.134 228.175 147.336 228.175 147.336C228.175 147.336 232.771 156.367 232.47 158.561C232.169 160.755 231.623 162.702 229.774 162.358C227.925 162.013 219.824 162.629 219.824 162.629L220.435 148.134Z" fill="black"/>
<path d="M220.134 147.534C220.286 147.534 227.877 146.737 227.877 146.737C227.877 146.737 232.47 155.781 232.172 157.951C231.873 160.12 231.322 162.092 229.476 161.747C227.629 161.403 219.523 162.019 219.523 162.019L220.134 147.534Z" fill="white"/>
<path d="M225.854 143.307C225.854 143.307 232.82 147.049 232.97 148.188C233.119 149.327 229.424 147.689 228.626 147.488C228.1 147.364 227.565 147.28 227.027 147.239L221.703 147.383L225.854 143.307Z" fill="#CF6F80"/>
<path opacity="0.1" d="M236.515 113.129C236.92 113.129 237.249 112.801 237.249 112.397C237.249 111.992 236.92 111.664 236.515 111.664C236.111 111.664 235.782 111.992 235.782 112.397C235.782 112.801 236.111 113.129 236.515 113.129Z" fill="black"/>
<path d="M236.515 112.83C236.92 112.83 237.249 112.503 237.249 112.098C237.249 111.694 236.92 111.366 236.515 111.366C236.111 111.366 235.782 111.694 235.782 112.098C235.782 112.503 236.111 112.83 236.515 112.83Z" fill="#3F3D56"/>
<path opacity="0.1" d="M237.865 144.825C238.27 144.825 238.598 144.497 238.598 144.093C238.598 143.689 238.27 143.361 237.865 143.361C237.46 143.361 237.132 143.689 237.132 144.093C237.132 144.497 237.46 144.825 237.865 144.825Z" fill="black"/>
<path d="M237.865 144.524C238.27 144.524 238.598 144.196 238.598 143.792C238.598 143.388 238.27 143.06 237.865 143.06C237.46 143.06 237.132 143.388 237.132 143.792C237.132 144.196 237.46 144.524 237.865 144.524Z" fill="#3F3D56"/>
<path opacity="0.1" d="M237.248 128.977C237.653 128.977 237.981 128.649 237.981 128.245C237.981 127.84 237.653 127.513 237.248 127.513C236.843 127.513 236.515 127.84 236.515 128.245C236.515 128.649 236.843 128.977 237.248 128.977Z" fill="black"/>
<path d="M237.248 128.679C237.653 128.679 237.981 128.351 237.981 127.947C237.981 127.542 237.653 127.214 237.248 127.214C236.843 127.214 236.515 127.542 236.515 127.947C236.515 128.351 236.843 128.679 237.248 128.679Z" fill="#3F3D56"/>
<path d="M254.146 147.087C254.146 147.087 254.646 147.835 254.146 148.172C253.647 148.508 254.195 149.37 254.195 149.37C254.195 149.37 252.949 150.097 253.497 150.756C254.046 151.415 253.698 154.374 253.698 154.374L252.199 156.866C252.199 156.866 252.289 158.463 252.294 160.622C252.294 163.99 252.096 168.725 250.999 170.884L251.146 188.595C251.146 188.595 245.898 190.512 241.505 189.927L240.854 161.506C240.854 161.506 241.804 145.389 242.154 142.298C242.359 140.693 242.443 139.075 242.404 137.457C242.404 137.457 242.255 132.619 241.752 130.376C241.752 130.376 241.209 120.646 241.155 117.953C241.131 116.665 241.199 112.906 241.275 109.332C241.359 105.424 241.454 101.739 241.454 101.739L240.463 93.9043C240.463 93.9043 241.454 93.8066 241.752 94.2026C241.886 94.3274 242.032 94.4391 242.187 94.5361C243.9 95.6914 249.943 99.244 249.943 99.244C249.943 99.244 253.288 100.573 254.089 102.477C254.89 104.38 255.447 105.731 255.835 106.273C256.223 106.816 256.435 109.365 256.435 109.365C256.435 109.365 257.586 114.056 258.485 114.851C259.383 115.645 260.029 120.69 260.029 120.69L252.088 126.927C252.088 126.927 251.39 137.302 251.241 137.704C251.092 138.105 254.146 147.087 254.146 147.087Z" fill="white"/>
<path d="M254.448 147.087C254.448 147.087 254.944 147.835 254.448 148.172C253.951 148.508 254.494 149.37 254.494 149.37C254.494 149.37 253.248 150.097 253.796 150.756C254.344 151.415 253.997 154.374 253.997 154.374L252.504 156.866C252.504 156.866 252.593 158.463 252.601 160.622C252.601 163.99 252.403 168.725 251.306 170.884L251.456 188.595C251.456 188.595 246.208 190.512 241.815 189.927L241.166 161.506C241.166 161.506 242.114 145.389 242.467 142.298C242.672 140.693 242.754 139.075 242.714 137.457C242.714 137.457 242.564 132.619 242.065 130.376C242.065 130.376 241.522 120.646 241.465 117.953C241.44 116.665 241.508 112.906 241.584 109.332C241.668 105.424 241.763 101.739 241.763 101.739L240.455 93.7985C240.455 93.7985 241.763 93.7985 242.065 94.2026C242.197 94.3289 242.343 94.4407 242.499 94.5362C244.21 95.6914 250.253 99.244 250.253 99.244C250.253 99.244 253.59 100.573 254.404 102.477C255.219 104.38 255.762 105.731 256.15 106.273C256.538 106.816 256.75 109.365 256.75 109.365C256.75 109.365 257.901 114.056 258.8 114.851C259.698 115.645 260.347 120.69 260.347 120.69L252.406 126.927C252.406 126.927 251.708 137.303 251.556 137.704C251.404 138.105 254.448 147.087 254.448 147.087Z" fill="white"/>
<path opacity="0.1" d="M244.937 104.041L245.657 106.129L241.88 109.926C241.964 106.018 242.059 102.333 242.059 102.333L240.751 94.3951C240.751 94.3951 242.059 94.3951 242.361 94.7992C242.493 94.9255 242.639 95.0373 242.795 95.1328L246.004 104.378L244.937 104.041Z" fill="black"/>
<path d="M244.63 103.442L245.35 105.527L241.576 109.324C241.658 105.416 241.755 101.731 241.755 101.731L240.444 93.7904C240.444 93.7904 241.755 93.7904 242.054 94.1944C242.187 94.32 242.333 94.4317 242.488 94.528L245.716 103.781L244.63 103.442Z" fill="white"/>
<path opacity="0.1" d="M244.63 82.7801C244.631 83.7573 244.478 84.7284 244.174 85.6574C244.123 85.666 244.071 85.6641 244.021 85.652C243.97 85.6399 243.923 85.6178 243.881 85.5869C243.808 83.1462 242.608 80.852 241.128 78.9022C240.712 78.314 240.208 77.7928 239.635 77.3564C239.054 76.9211 238.332 76.7172 237.61 76.7842C236.795 76.8954 236.076 77.4486 235.253 77.5191C234.167 77.6086 233.195 76.8574 232.117 76.8221C231.679 76.8258 231.247 76.923 230.849 77.1073C230.451 77.2916 230.098 77.5587 229.812 77.8906C229.245 78.5583 228.825 79.337 228.577 80.1767C228.15 81.4509 227.918 82.782 227.887 84.1252C227.874 84.8846 227.8 85.8364 227.095 86.113C227.148 85.555 227.085 84.992 226.908 84.4597C226.732 83.9275 226.447 83.4377 226.071 83.0215L226.055 83.0025C226.055 82.9266 226.055 82.8561 226.055 82.7801C226.055 80.3189 227.034 77.9585 228.776 76.2182C230.518 74.4778 232.881 73.5001 235.345 73.5001C237.809 73.5001 240.172 74.4778 241.915 76.2182C243.657 77.9585 244.636 80.3189 244.636 82.7801H244.63Z" fill="black"/>
<path d="M239.2 68.0465C237.79 67.3836 236.185 67.2583 234.688 67.694C233.936 67.9163 233.227 68.277 232.465 68.4587C230.836 68.8519 228.935 68.4262 227.537 69.3781C226.76 69.9204 226.293 70.7774 225.859 71.6126L224.773 73.6764C224.181 74.8072 223.584 75.9571 223.337 77.2018C223.09 78.4466 223.239 79.8405 224.029 80.8439C224.602 81.5707 225.455 82.029 226.079 82.7151C226.454 83.1334 226.739 83.6247 226.914 84.1582C227.09 84.6917 227.153 85.2557 227.1 85.8148C227.806 85.5436 227.876 84.5863 227.893 83.827C227.923 82.4837 228.156 81.1527 228.582 79.8785C228.83 79.0387 229.251 78.2601 229.817 77.5923C230.103 77.26 230.456 76.9925 230.854 76.8078C231.252 76.623 231.684 76.5253 232.122 76.5212C233.208 76.5591 234.183 77.3103 235.258 77.2181C236.073 77.1503 236.795 76.5971 237.615 76.4859C238.338 76.4176 239.06 76.6217 239.64 77.0581C240.214 77.4931 240.717 78.0146 241.131 78.6039C242.613 80.5564 243.816 82.8398 243.886 85.2887C244.193 85.511 244.636 85.2181 244.788 84.871C244.94 84.5239 244.945 84.1171 245.138 83.7863C245.361 83.4039 245.787 83.1978 246.121 82.9103C246.968 82.1808 247.18 80.9524 247.147 79.8378C247.114 78.7232 246.897 77.5923 247.109 76.4967C247.237 75.8269 247.524 75.195 247.682 74.5306C247.839 73.8662 247.858 73.1204 247.486 72.5482C246.943 71.7103 245.8 71.5421 244.804 71.4635C243.672 71.3659 242.659 71.4906 241.937 70.5387C241.597 70.0427 241.216 69.5763 240.797 69.1448C240.647 69.0011 239.2 68.1062 239.2 68.0465Z" fill="#512E4E"/>
<path opacity="0.1" d="M209.684 125.235L206.849 119.998L205.95 128.079C205.95 128.079 206.45 131.67 206.35 132.22C206.249 132.771 208.397 137.707 208.397 137.707C208.397 137.707 215.491 150.33 218.388 150.978L228.161 143.993L225.566 140.7C225.566 140.7 224.667 140.351 224.442 140.7C224.442 140.7 219.62 132.418 219.123 131.822C218.627 131.225 218.722 130.024 218.722 130.024C218.722 130.024 217.972 129.227 218.222 128.478C218.472 127.73 216.789 125.137 216.789 125.137L218.336 123.692L209.684 125.235Z" fill="black"/>
<path d="M206.998 119.399L206.249 119.998L205.35 128.079C205.35 128.079 205.85 131.67 205.75 132.22C205.649 132.771 207.799 137.707 207.799 137.707C207.799 137.707 214.891 150.33 217.788 150.978L227.578 143.993L224.98 140.7C224.98 140.7 224.081 140.351 223.856 140.7C223.856 140.7 219.037 132.418 218.537 131.822C218.037 131.225 218.138 130.024 218.138 130.024C218.138 130.024 217.389 129.227 217.638 128.478C217.888 127.73 216.189 125.137 216.189 125.137L217.736 123.692L206.998 119.399Z" fill="white"/>
<path opacity="0.1" d="M253.497 151.068C254.04 151.727 253.698 154.688 253.698 154.688L252.2 157.164C252.2 157.164 252.289 158.764 252.295 160.923L249.775 161.709C249.547 161.78 249.305 161.796 249.07 161.755C248.835 161.713 248.613 161.617 248.423 161.472C248.232 161.328 248.08 161.14 247.977 160.925C247.874 160.709 247.824 160.473 247.831 160.234L248.268 146.241L254.146 148.484C253.647 148.831 254.195 149.682 254.195 149.682C254.195 149.682 252.949 150.409 253.497 151.068Z" fill="black"/>
<path d="M253.796 150.77C254.339 151.426 253.997 154.387 253.997 154.387L252.504 156.866C252.504 156.866 252.593 158.463 252.601 160.622L250.036 161.422C249.813 161.492 249.577 161.507 249.347 161.467C249.117 161.427 248.9 161.333 248.714 161.192C248.528 161.051 248.378 160.867 248.277 160.657C248.177 160.446 248.128 160.215 248.135 159.982L248.572 145.94L254.448 148.188C253.945 148.535 254.494 149.387 254.494 149.387C254.494 149.387 253.248 150.111 253.796 150.77Z" fill="white"/>
<path d="M255.745 144.093C255.745 144.093 255.346 146.64 254.347 146.789C253.348 146.938 252.9 150.908 251.904 150.77C250.907 150.631 251.567 147.076 251.602 146.387C251.638 145.698 250.516 142.846 251.353 142.197C252.189 141.549 254.849 142.197 254.849 142.197L255.745 144.093Z" fill="#CF6F80"/>
<path opacity="0.1" d="M257.858 124.486L259.739 120.689C259.739 120.689 260.491 123.583 260.491 125.129C260.491 126.675 261.539 126.826 261.539 126.826C261.539 126.826 262.688 128.182 262.082 129.172C261.477 130.162 261.235 132.614 261.235 132.614C261.235 132.614 261.433 137.302 260.535 137.951C259.636 138.599 259.435 140.147 259.435 140.147C259.435 140.147 257.787 143.09 257.839 143.789C257.89 144.489 255.542 149.227 255.542 149.227C255.542 149.227 256.69 143.339 249.998 140.795C249.998 140.795 249.946 138.799 250.446 138.252C250.945 137.704 251.725 137.438 251.236 134.683C250.747 131.928 251.095 128.605 251.095 127.941C251.095 127.277 252.593 123.136 252.593 123.136L257.858 124.486Z" fill="black"/>
<path d="M258.694 120.147L260.339 120.689C260.339 120.689 261.091 123.583 261.091 125.129C261.091 126.675 262.139 126.826 262.139 126.826C262.139 126.826 263.288 128.182 262.682 129.172C262.077 130.162 261.832 132.614 261.832 132.614C261.832 132.614 262.033 137.302 261.135 137.951C260.236 138.599 260.049 140.147 260.049 140.147C260.049 140.147 258.401 143.09 258.452 143.789C258.504 144.489 256.153 149.227 256.153 149.227C256.153 149.227 257.301 143.339 250.609 140.795C250.609 140.795 250.56 138.799 251.059 138.252C251.559 137.704 252.338 137.438 251.849 134.683C251.361 131.928 251.708 128.605 251.708 127.941C251.708 127.277 253.207 123.136 253.207 123.136L258.694 120.147Z" fill="white"/>
<path opacity="0.1" d="M222.346 218.553C222.346 218.553 224.969 216.907 226.69 218.103C228.411 219.299 222.346 218.553 222.346 218.553Z" fill="black"/>
<path opacity="0.1" d="M242.73 213.463C242.73 213.463 245.051 213.165 247.001 215.261C248.95 217.357 242.73 213.463 242.73 213.463Z" fill="black"/>
<g opacity="0.1">
<path opacity="0.1" d="M246.121 82.3137C245.787 82.6039 245.358 82.8072 245.135 83.1896C244.945 83.5178 244.94 83.9245 244.788 84.2744C244.636 84.6242 244.193 84.9144 243.884 84.692C243.813 82.2513 242.61 79.9598 241.131 78.0072C240.717 77.4188 240.214 76.8982 239.64 76.4642C239.059 76.0268 238.336 75.8218 237.612 75.8892C236.798 76.0004 236.081 76.5537 235.258 76.6242C234.172 76.7137 233.198 75.9625 232.12 75.9272C231.682 75.9305 231.25 76.0276 230.853 76.2119C230.455 76.3963 230.102 76.6635 229.818 76.9957C229.251 77.6634 228.83 78.4421 228.582 79.2818C228.156 80.556 227.923 81.8871 227.893 83.2303C227.876 83.9869 227.806 84.9306 227.105 85.2127C227.122 85.4139 227.122 85.6162 227.105 85.8174C227.814 85.5462 227.884 84.5889 227.901 83.8296C227.931 82.4864 228.164 81.1553 228.59 79.8811C228.838 79.0414 229.259 78.2627 229.826 77.595C230.111 77.2629 230.464 76.9955 230.861 76.8108C231.258 76.626 231.69 76.5282 232.128 76.5238C233.214 76.5618 234.191 77.313 235.266 77.2208C236.081 77.153 236.803 76.5998 237.62 76.4886C238.344 76.4203 239.067 76.6244 239.648 77.0608C240.222 77.4958 240.725 78.0173 241.139 78.6066C242.618 80.5591 243.821 82.8425 243.892 85.2913C244.201 85.5137 244.644 85.2208 244.796 84.8737C244.948 84.5266 244.953 84.1198 245.143 83.7889C245.366 83.4066 245.795 83.2005 246.129 82.913C246.976 82.1835 247.188 80.955 247.155 79.8405C247.155 79.8052 247.155 79.7727 247.155 79.7374C247.101 80.7083 246.843 81.6927 246.121 82.3137Z" fill="black"/>
<path opacity="0.1" d="M226.076 82.1238C225.455 81.4377 224.602 80.9767 224.029 80.2499C223.545 79.6084 223.27 78.8343 223.239 78.0316C223.154 79.0352 223.435 80.0358 224.029 80.8493C224.602 81.576 225.455 82.0344 226.076 82.7205C226.677 83.3912 227.038 84.2419 227.102 85.1395C227.143 84.5937 227.073 84.0453 226.897 83.5272C226.721 83.009 226.442 82.5317 226.076 82.1238Z" fill="black"/>
<path opacity="0.1" d="M247.682 73.934C247.522 74.5984 247.237 75.2303 247.106 75.9001C247.028 76.353 247 76.8132 247.022 77.2723C247.031 77.013 247.059 76.7546 247.106 76.4994C247.237 75.8296 247.522 75.1977 247.682 74.5333C247.774 74.1666 247.804 73.7872 247.771 73.4106C247.754 73.5869 247.724 73.7618 247.682 73.934Z" fill="black"/>
</g>
<path opacity="0.1" d="M36.0354 227.494C50.6458 227.494 62.4899 225.594 62.4899 223.25C62.4899 220.906 50.6458 219.006 36.0354 219.006C21.4251 219.006 9.58099 220.906 9.58099 223.25C9.58099 225.594 21.4251 227.494 36.0354 227.494Z" fill="#4665AF"/>
<path d="M36.888 141.945H35.1857V180.229H36.888V141.945Z" fill="#535461"/>
<path d="M47.5876 180.115L47.479 181.84L47.3297 184.28L47.2672 185.295L47.1152 187.735L47.05 188.75L46.9007 191.19L45.1821 218.87C45.1089 220.061 44.5835 221.18 43.7133 221.997C42.843 222.814 41.6934 223.269 40.4989 223.269H31.5748C30.377 223.27 29.2244 222.812 28.3535 221.991C27.4826 221.169 26.9595 220.046 26.8915 218.851L25.173 191.171L25.0237 188.731L24.9612 187.716L24.8065 185.276L24.744 184.261L24.5947 181.821L24.4861 180.096C24.4673 179.765 24.5161 179.434 24.6294 179.123C24.7427 178.812 24.9183 178.527 25.1453 178.286C25.3724 178.045 25.6462 177.852 25.9501 177.72C26.2541 177.588 26.5818 177.519 26.9133 177.517H45.1631C45.4961 177.519 45.8252 177.589 46.1301 177.722C46.4351 177.856 46.7095 178.05 46.9366 178.293C47.1636 178.537 47.3385 178.824 47.4504 179.137C47.5624 179.45 47.6091 179.783 47.5876 180.115Z" fill="#3F3D56"/>
<path d="M47.479 181.837L47.327 184.272H24.744L24.592 181.837H47.479Z" fill="#9D9CB5"/>
<path d="M47.2645 185.286L47.1152 187.722H24.9585L24.8064 185.286H47.2645Z" fill="#9D9CB5"/>
<path d="M47.0501 188.739L46.9008 191.171H25.1731L25.021 188.739H47.0501Z" fill="#9D9CB5"/>
<path d="M22.0047 156.297C31.9197 163.461 36.0491 174.667 36.0491 174.667C36.0491 174.667 24.1033 174.257 14.1856 167.092C4.26791 159.928 0.133049 148.73 0.133049 148.73C0.133049 148.73 12.0788 149.132 22.0047 156.297Z" fill="#4665AF"/>
<path d="M0.133049 148.73C0.133049 148.73 12.5322 155.605 16.5096 161.297C20.487 166.989 36.0382 174.672 36.0382 174.672" stroke="#535461" stroke-width="2" stroke-miterlimit="10"/>
<path d="M28.393 141.864C33.7903 145.761 36.0383 151.86 36.0383 151.86C36.0383 151.86 29.5224 151.638 24.1386 147.741C18.7549 143.844 16.4933 137.742 16.4933 137.742C16.4933 137.742 22.9984 137.964 28.393 141.864Z" fill="#4665AF"/>
<path d="M16.4933 137.742C16.4933 137.742 23.2427 141.484 25.4092 144.581C27.5758 147.678 36.0383 151.86 36.0383 151.86" stroke="#535461" stroke-width="2" stroke-miterlimit="10"/>
<path d="M43.879 151.551C37.6807 158.355 36.3694 167.247 36.3694 167.247C36.3694 167.247 45.1088 165.105 51.3016 158.298C57.4944 151.491 58.8112 142.602 58.8112 142.602C58.8112 142.602 50.0772 144.747 43.879 151.551Z" fill="#4665AF"/>
<path d="M58.8166 142.604C58.8166 142.604 50.7423 149.579 48.6898 154.385C46.6373 159.19 36.3694 167.247 36.3694 167.247" stroke="#535461" stroke-width="2" stroke-miterlimit="10"/>
</g>
<defs>
<linearGradient id="paint0_linear" x1="126.389" y1="226.594" x2="126.389" y2="69.9421" gradientUnits="userSpaceOnUse">
<stop stop-color="#808080" stop-opacity="0.25"/>
<stop offset="0.54" stop-color="#808080" stop-opacity="0.12"/>
<stop offset="1" stop-color="#808080" stop-opacity="0.1"/>
</linearGradient>
<linearGradient id="paint1_linear" x1="51659.8" y1="146808" x2="51659.8" y2="44130.2" gradientUnits="userSpaceOnUse">
<stop stop-color="#808080" stop-opacity="0.25"/>
<stop offset="0.54" stop-color="#808080" stop-opacity="0.12"/>
<stop offset="1" stop-color="#808080" stop-opacity="0.1"/>
</linearGradient>
<clipPath id="clip0">
<rect width="317" height="234" fill="white"/>
</clipPath>
</defs>
</svg>
