<svg width="486" height="429" viewBox="0 0 486 429" fill="none" xmlns="http://www.w3.org/2000/svg">
<path d="M468.246 40.4092L467.801 40.9426L471.976 44.4129L472.422 43.8794L468.246 40.4092Z" fill="white"/>
<path d="M469.013 47.4301L468.426 47.8029L475.733 59.2548L476.321 58.8821L469.013 47.4301Z" fill="white"/>
<path d="M149.817 52.5382L105.648 59.9976C104.557 60.1832 103.435 59.9586 102.501 59.3672C101.566 58.7759 100.885 57.8597 100.588 56.7961C97.3973 45.3099 90.7254 30.3257 97.2031 22.8036C97.5331 19.6392 99.0742 16.7235 101.506 14.6637C103.937 12.6039 107.071 11.5586 110.256 11.7454C118.146 -0.572267 131.289 1.27715 140.172 8.97006C149.111 12.0464 152.482 17.5116 151.303 24.9281C155.165 28.2994 157.19 32.0968 157.617 36.2648C157.819 38.5841 157.523 40.9199 156.749 43.1162C155.974 45.3125 154.739 47.3188 153.125 49.0012L149.817 52.5382Z" fill="#2F2E41"/>
<path d="M142.95 87.2167L108.709 85.208C112.065 77.527 113.405 70.1305 112.066 63.1123H137.579C137.521 68.5009 140.21 77.8221 142.95 87.2167Z" fill="#9F616A"/>
<path d="M101.733 402.753L100.329 421.9C100.265 422.767 100.388 423.637 100.69 424.452C100.991 425.268 101.464 426.01 102.076 426.628C102.688 427.246 103.426 427.727 104.24 428.037C105.054 428.348 105.925 428.482 106.794 428.429L116.656 427.833C117.113 427.806 117.558 427.678 117.96 427.459C118.362 427.241 118.71 426.936 118.981 426.568C119.252 426.2 119.438 425.777 119.526 425.329C119.614 424.881 119.602 424.419 119.491 423.976L114.017 402.14L101.733 402.753Z" fill="#E6E6E6"/>
<path d="M133.66 402.14L128.186 423.976C128.075 424.419 128.063 424.881 128.151 425.329C128.239 425.777 128.425 426.2 128.696 426.568C128.966 426.936 129.315 427.241 129.717 427.459C130.119 427.678 130.564 427.806 131.021 427.833L140.883 428.429C141.752 428.482 142.623 428.348 143.437 428.037C144.251 427.727 144.989 427.246 145.601 426.628C146.213 426.01 146.686 425.268 146.987 424.452C147.289 423.637 147.412 422.767 147.348 421.9L145.944 402.753L133.66 402.14Z" fill="#E6E6E6"/>
<path d="M146.58 405.411L133.272 404.079L120.023 262.84L115.015 403.624L101.941 403.157L79.9036 208.178H164.097L146.58 405.411Z" fill="#4665AF"/>
<path d="M125.495 71.2404C139.539 71.2404 150.923 59.887 150.923 45.8819C150.923 31.8768 139.539 20.5234 125.495 20.5234C111.452 20.5234 100.068 31.8768 100.068 45.8819C100.068 59.887 111.452 71.2404 125.495 71.2404Z" fill="#9F616A"/>
<path d="M154.153 33.7681C143.833 31.9757 133.687 31.7296 123.823 34.0031C117.54 36.0544 109.994 35.8654 101.603 34.1752V17.0745L146.905 17.8888L154.153 33.7681Z" fill="#2F2E41"/>
<path d="M142.417 66.229C131.293 70.8435 119.629 70.6561 107.489 66.229C111.021 60.2154 105.741 55.5056 103.03 49.435L148.363 48.0914C144.896 53.3651 139.781 59.5958 142.417 66.229Z" fill="white"/>
<path d="M99.9087 45.9719L99.4629 46.5054L103.922 50.2108L104.367 49.6774L99.9087 45.9719Z" fill="white"/>
<path d="M149.184 53.464L141.379 65.6918L141.966 66.0646L149.771 53.8368L149.184 53.464Z" fill="white"/>
<path d="M100.722 53.4636L100.134 53.8363L107.937 66.0653L108.525 65.6926L100.722 53.4636Z" fill="white"/>
<path d="M77.1534 161.538L57.6831 149.486L74.2878 100.986C76.1398 95.9819 79.687 91.7799 84.3162 89.1071L89.9098 85.8776L90.3962 134.805L77.1534 161.538Z" fill="#4665AF"/>
<path d="M161.313 185.094L158.432 160.488C158.278 147.5 160.494 134.943 165.777 123.373L168.462 87.2167L138.921 75.1646C138.831 75.7649 138.754 76.3649 138.667 76.9651L124.822 83.8689L111.319 80.8085L111.394 76.5037L84.5387 88.5559C93.4198 129.733 88.5759 172.493 73.3035 223.001L108.683 232.649L108.977 215.706L140.508 213.46C140.833 218.957 141.094 224.356 141.246 229.636C159.038 236.168 159.649 236.06 175.86 226.706C169.404 213.17 164.292 199.085 161.313 185.094Z" fill="#4665AF"/>
<path d="M206.731 155.512L188.604 149.487L159.608 115.823L168.462 87.2173L208.745 143.461L206.731 155.512Z" fill="#4665AF"/>
<path d="M149.92 181.574C150.217 182.872 151.017 184 152.147 184.71C153.276 185.421 154.641 185.655 155.944 185.363L171.331 181.888L169.107 172.092L153.719 175.567C152.417 175.861 151.285 176.66 150.572 177.786C149.86 178.913 149.625 180.275 149.92 181.574V181.574Z" fill="#E6E6E6"/>
<path d="M163.763 170.243L172.491 186.312C187.171 182.229 199.894 169.356 212.103 154.173L208.746 143.46L187.933 148.817L163.763 170.243Z" fill="#4665AF"/>
<path d="M49.962 119.836L66.7176 122.82L105.016 177.128L84.6703 172.354L49.962 119.836Z" fill="#E6E6E6"/>
<path d="M46.9902 119.171C46.7349 119.175 46.4853 119.247 46.2675 119.38C46.0497 119.513 45.8718 119.702 45.7523 119.927C45.6328 120.152 45.5761 120.405 45.5881 120.66C45.6002 120.914 45.6806 121.16 45.8209 121.373L81.6199 175.542C81.8196 175.844 82.1282 176.059 82.4821 176.142L99.1383 180.05C99.4191 180.116 99.7134 180.096 99.9821 179.991C100.251 179.886 100.481 179.702 100.643 179.464C100.804 179.226 100.89 178.944 100.887 178.656C100.884 178.368 100.794 178.088 100.628 177.853L61.3228 122.118C61.2162 121.966 61.0807 121.837 60.9239 121.737C60.7671 121.638 60.5922 121.57 60.4092 121.538L47.2587 119.195C47.1701 119.18 47.0803 119.172 46.9902 119.171Z" fill="#3F3D56"/>
<path d="M69.3214 157.901L70.3164 167.896L86.0166 166.342C87.3456 166.21 88.5677 165.557 89.4142 164.527C90.2606 163.497 90.6621 162.174 90.5302 160.848C90.3983 159.523 89.7439 158.304 88.7109 157.46C87.6779 156.616 86.351 156.216 85.022 156.347L69.3214 157.901Z" fill="#E6E6E6"/>
<path d="M55.6693 156.744C55.6921 160.152 57.0646 163.413 59.4876 165.816C61.9106 168.219 65.1878 169.57 68.605 169.573H71.1867L73.0661 153.953L57.5045 148.366L55.6693 156.744Z" fill="#4665AF"/>
<path d="M147.122 49.8194L146.63 49.3287L147.373 48.5875L151.814 43.4188L152.342 43.87L147.883 49.058L147.122 49.8194Z" fill="white"/>
<path d="M417.568 427.612H41.7567V429H417.568V427.612Z" fill="#3F3D56"/>
<path d="M235.926 426.918H382.075V250.13C382.075 240.769 372.829 233.154 361.465 233.154H256.536C245.171 233.154 235.926 240.769 235.926 250.13V426.918Z" fill="#E6E6E6"/>
<path d="M247.061 419.607H370.939V269.759C370.939 261.824 363.102 255.369 353.47 255.369H264.53C254.897 255.369 247.061 261.824 247.061 269.759V419.607Z" fill="white"/>
<path d="M234.822 219.395C231.209 219.395 228.27 221.816 228.27 224.792V240.369C228.27 243.345 231.209 245.766 234.822 245.766H383.179C386.791 245.766 389.73 243.345 389.73 240.369V224.792C389.73 221.816 386.791 219.395 383.179 219.395H234.822Z" fill="#3F3D56"/>
<path d="M265.281 400.393C263.585 400.398 261.96 401.072 260.761 402.268C259.562 403.464 258.886 405.084 258.881 406.776V406.776C258.886 408.467 259.562 410.088 260.761 411.284C261.96 412.48 263.585 413.154 265.281 413.159H277.261V400.393H265.281Z" fill="#3F3D56"/>
<path d="M288.257 400.393H276.605V413.159H288.257C289.953 413.154 291.578 412.48 292.777 411.284C293.976 410.088 294.652 408.467 294.657 406.776V406.776C294.652 405.084 293.976 403.464 292.777 402.268C291.578 401.072 289.953 400.398 288.257 400.393V400.393Z" fill="#4665AF"/>
<path opacity="0.2" d="M292.433 401.956C293.442 403.11 293.999 404.59 294.001 406.121V406.121C293.996 407.813 293.32 409.433 292.121 410.629C290.921 411.825 289.296 412.499 287.6 412.504H276.605V413.159H288.257C289.953 413.154 291.578 412.48 292.777 411.284C293.976 410.088 294.652 408.467 294.657 406.776C294.656 405.86 294.456 404.956 294.072 404.124C293.689 403.292 293.129 402.553 292.433 401.956V401.956Z" fill="black"/>
<path d="M319.343 304.248C318.176 303.021 316.569 302.304 314.874 302.254C313.179 302.204 311.533 302.825 310.295 303.982V303.982C309.065 305.145 308.346 306.748 308.296 308.438C308.246 310.129 308.869 311.77 310.028 313.005L318.246 321.698L327.561 312.942L319.343 304.248Z" fill="#3F3D56"/>
<path d="M335.102 320.921L327.11 312.465L317.795 321.222L325.788 329.678C326.955 330.905 328.561 331.622 330.256 331.672C331.952 331.722 333.598 331.101 334.835 329.944V329.944C336.066 328.78 336.785 327.178 336.835 325.488C336.885 323.797 336.262 322.155 335.102 320.921V320.921Z" fill="#4665AF"/>
<path opacity="0.2" d="M336.827 325.024C336.677 326.548 335.979 327.967 334.863 329.019V329.019C333.625 330.175 331.979 330.796 330.284 330.747C328.589 330.697 326.982 329.98 325.815 328.752L318.273 320.773L317.795 321.222L325.788 329.678C326.955 330.905 328.561 331.622 330.256 331.672C331.952 331.722 333.598 331.101 334.835 329.944C335.502 329.315 336.025 328.55 336.369 327.701C336.713 326.852 336.869 325.939 336.827 325.024V325.024Z" fill="black"/>
<path d="M285.241 324.375C284.074 323.148 282.468 322.431 280.773 322.381C279.077 322.331 277.431 322.952 276.194 324.109V324.109C274.963 325.273 274.244 326.875 274.194 328.566C274.144 330.256 274.767 331.898 275.927 333.132L284.144 341.826L293.459 333.069L285.241 324.375Z" fill="#3F3D56"/>
<path d="M301.001 341.049L293.009 332.593L283.694 341.35L291.687 349.806C292.853 351.033 294.46 351.75 296.155 351.8C297.85 351.85 299.497 351.229 300.734 350.072V350.072C301.965 348.908 302.684 347.306 302.734 345.615C302.784 343.925 302.161 342.283 301.001 341.049V341.049Z" fill="#4665AF"/>
<path opacity="0.2" d="M302.725 345.152C302.576 346.676 301.878 348.095 300.762 349.146V349.146C299.524 350.303 297.878 350.924 296.183 350.874C294.487 350.824 292.881 350.107 291.714 348.88L284.172 340.901L283.694 341.35L291.687 349.805C292.853 351.033 294.46 351.75 296.155 351.8C297.85 351.85 299.497 351.228 300.734 350.072V350.072C301.401 349.443 301.924 348.678 302.268 347.828C302.612 346.979 302.768 346.066 302.725 345.152Z" fill="black"/>
<path d="M319.343 343.115C318.176 341.888 316.569 341.171 314.874 341.121C313.179 341.071 311.533 341.692 310.295 342.849V342.849C309.065 344.013 308.346 345.615 308.296 347.305C308.246 348.996 308.869 350.638 310.028 351.872L318.246 360.566L327.561 351.809L319.343 343.115Z" fill="#3F3D56"/>
<path d="M335.102 359.788L327.11 351.333L317.795 360.089L325.788 368.545C326.955 369.772 328.561 370.489 330.256 370.539C331.952 370.589 333.598 369.968 334.835 368.811V368.811C336.066 367.648 336.785 366.045 336.835 364.355C336.885 362.664 336.262 361.022 335.102 359.788V359.788Z" fill="#4665AF"/>
<path opacity="0.2" d="M336.827 363.891C336.677 365.416 335.979 366.834 334.863 367.886C333.625 369.042 331.979 369.664 330.284 369.614C328.589 369.564 326.982 368.847 325.815 367.619L318.273 359.64L317.795 360.089L325.788 368.545C326.955 369.772 328.561 370.489 330.256 370.539C331.952 370.589 333.598 369.968 334.835 368.811V368.811C335.502 368.182 336.025 367.417 336.369 366.568C336.713 365.719 336.869 364.806 336.827 363.891V363.891Z" fill="black"/>
<path d="M340.147 383C341.363 381.822 342.062 380.211 342.092 378.52C342.121 376.829 341.478 375.195 340.304 373.975V373.975C339.122 372.762 337.507 372.064 335.811 372.035C334.115 372.006 332.477 372.647 331.254 373.818L322.636 382.118L331.529 391.301L340.147 383Z" fill="#3F3D56"/>
<path d="M323.621 398.919L332.002 390.846L323.109 381.664L314.728 389.736C313.511 390.915 312.812 392.526 312.782 394.217C312.753 395.908 313.396 397.542 314.57 398.762V398.762C315.752 399.975 317.367 400.673 319.063 400.702C320.759 400.731 322.397 400.09 323.621 398.919V398.919Z" fill="#4665AF"/>
<path opacity="0.2" d="M319.528 400.688C317.997 400.557 316.566 399.879 315.499 398.778V398.778C314.324 397.558 313.681 395.924 313.711 394.233C313.74 392.542 314.439 390.931 315.656 389.753L323.565 382.134L323.109 381.664L314.727 389.736C313.511 390.915 312.812 392.526 312.782 394.217C312.753 395.908 313.396 397.542 314.57 398.762V398.762C315.209 399.42 315.983 399.932 316.838 400.264C317.694 400.597 318.611 400.741 319.528 400.688Z" fill="black"/>
<path d="M294.214 362.873C295.43 361.694 296.13 360.084 296.159 358.392C296.189 356.701 295.546 355.067 294.371 353.847C293.189 352.634 291.574 351.937 289.878 351.907C288.183 351.878 286.544 352.519 285.321 353.691L276.704 361.991L285.597 371.173L294.214 362.873Z" fill="#3F3D56"/>
<path d="M277.688 378.791L286.069 370.718L277.176 361.536L268.795 369.609C267.578 370.788 266.879 372.398 266.85 374.089C266.82 375.781 267.463 377.415 268.638 378.635V378.635C269.819 379.848 271.435 380.545 273.13 380.574C274.826 380.604 276.464 379.963 277.688 378.791V378.791Z" fill="#4665AF"/>
<path opacity="0.2" d="M273.595 380.561C272.065 380.43 270.634 379.751 269.566 378.651C268.391 377.431 267.748 375.797 267.778 374.106C267.807 372.414 268.507 370.804 269.723 369.625L277.632 362.007L277.176 361.536L268.795 369.609C267.578 370.788 266.879 372.398 266.85 374.09C266.82 375.781 267.463 377.415 268.638 378.635V378.635C269.277 379.292 270.05 379.805 270.906 380.137C271.761 380.469 272.678 380.614 273.595 380.561V380.561Z" fill="black"/>
<path d="M359.633 338.581C360.849 337.402 361.549 335.792 361.578 334.101C361.608 332.41 360.965 330.775 359.79 329.555V329.555C358.608 328.342 356.993 327.645 355.298 327.616C353.602 327.586 351.963 328.227 350.74 329.399L342.123 337.699L351.016 346.881L359.633 338.581Z" fill="#3F3D56"/>
<path d="M343.107 354.499L351.488 346.426L342.595 337.244L334.214 345.317C332.998 346.496 332.298 348.106 332.269 349.798C332.239 351.489 332.882 353.123 334.057 354.343V354.343C335.239 355.556 336.854 356.253 338.549 356.282C340.245 356.312 341.884 355.671 343.107 354.499Z" fill="#4665AF"/>
<path opacity="0.2" d="M339.014 356.268C337.484 356.137 336.053 355.459 334.985 354.359V354.359C333.81 353.139 333.168 351.505 333.197 349.813C333.226 348.122 333.926 346.512 335.142 345.333L343.051 337.715L342.595 337.244L334.214 345.317C332.998 346.496 332.298 348.106 332.269 349.797C332.239 351.489 332.882 353.123 334.057 354.342V354.342C334.696 355 335.469 355.512 336.325 355.845C337.18 356.177 338.097 356.322 339.014 356.268Z" fill="black"/>
<path d="M345.093 388.923C343.926 387.696 342.319 386.979 340.624 386.929C338.929 386.879 337.283 387.5 336.045 388.657V388.657C334.814 389.82 334.096 391.422 334.046 393.113C333.995 394.804 334.618 396.445 335.778 397.68L343.996 406.373L353.31 397.617L345.093 388.923Z" fill="#3F3D56"/>
<path d="M360.852 405.596L352.86 397.14L343.545 405.897L351.538 414.353C352.704 415.58 354.311 416.297 356.006 416.347C357.702 416.397 359.348 415.776 360.585 414.619V414.619C361.816 413.455 362.535 411.853 362.585 410.162C362.635 408.472 362.012 406.83 360.852 405.596Z" fill="#4665AF"/>
<path opacity="0.2" d="M362.577 409.699C362.427 411.223 361.729 412.642 360.613 413.694V413.694C359.375 414.85 357.729 415.471 356.034 415.422C354.338 415.372 352.732 414.655 351.565 413.427L344.023 405.448L343.545 405.897L351.538 414.353C352.704 415.58 354.311 416.297 356.006 416.347C357.702 416.397 359.348 415.776 360.585 414.619V414.619C361.252 413.99 361.775 413.225 362.119 412.376C362.463 411.527 362.619 410.614 362.577 409.699V409.699Z" fill="black"/>
<path d="M299.856 388.229C298.69 387.002 297.083 386.285 295.388 386.235C293.693 386.185 292.046 386.806 290.809 387.963V387.963C289.578 389.126 288.859 390.728 288.809 392.419C288.759 394.11 289.382 395.751 290.542 396.986L298.759 405.679L308.074 396.923L299.856 388.229Z" fill="#3F3D56"/>
<path d="M315.616 404.902L307.624 396.446L298.309 405.203L306.301 413.659C307.468 414.886 309.075 415.603 310.77 415.653C312.465 415.703 314.111 415.082 315.349 413.925V413.925C316.58 412.761 317.298 411.159 317.349 409.468C317.399 407.778 316.776 406.136 315.616 404.902V404.902Z" fill="#4665AF"/>
<path opacity="0.2" d="M317.34 409.005C317.19 410.53 316.493 411.948 315.376 413V413C314.139 414.156 312.493 414.778 310.797 414.728C309.102 414.678 307.496 413.961 306.329 412.733L298.787 404.754L298.309 405.203L306.301 413.659C307.468 414.886 309.075 415.603 310.77 415.653C312.465 415.703 314.111 415.082 315.349 413.925V413.925C316.016 413.296 316.539 412.531 316.883 411.682C317.226 410.833 317.382 409.92 317.34 409.005Z" fill="black"/>
<path d="M312.589 365.33C312.59 367.452 311.855 369.509 310.509 371.153C309.164 372.797 307.29 373.926 305.205 374.351C303.987 374.596 302.731 374.596 301.513 374.351C299.428 373.926 297.555 372.796 296.209 371.152C294.863 369.508 294.129 367.451 294.129 365.329C294.129 363.207 294.863 361.151 296.209 359.507C297.555 357.863 299.428 356.733 301.513 356.308C302.731 356.063 303.987 356.063 305.205 356.308C307.29 356.733 309.164 357.862 310.509 359.506C311.855 361.15 312.59 363.207 312.589 365.33V365.33Z" fill="#4665AF"/>
<path opacity="0.2" d="M305.205 356.308V374.351C303.987 374.596 302.731 374.596 301.513 374.351V356.308C302.731 356.063 303.987 356.063 305.205 356.308Z" fill="black"/>
<path d="M316.765 328.545C316.766 330.667 316.031 332.724 314.685 334.368C313.34 336.012 311.466 337.141 309.381 337.566C308.163 337.811 306.907 337.811 305.689 337.566C303.604 337.141 301.73 336.011 300.385 334.367C299.039 332.723 298.304 330.667 298.304 328.545C298.304 326.423 299.039 324.366 300.385 322.722C301.73 321.078 303.604 319.948 305.689 319.523C306.907 319.278 308.163 319.278 309.381 319.523C311.466 319.948 313.34 321.078 314.685 322.721C316.031 324.365 316.766 326.422 316.765 328.545V328.545Z" fill="#4665AF"/>
<path opacity="0.2" d="M309.381 319.523V337.566C308.162 337.811 306.907 337.811 305.689 337.566V319.523C306.907 319.278 308.162 319.278 309.381 319.523Z" fill="black"/>
<path d="M316.765 381.293C316.766 383.415 316.031 385.472 314.685 387.116C313.34 388.76 311.466 389.89 309.381 390.314C308.163 390.56 306.907 390.56 305.689 390.314C303.604 389.889 301.73 388.76 300.385 387.116C299.039 385.472 298.304 383.415 298.304 381.293C298.304 379.171 299.039 377.114 300.385 375.47C301.73 373.826 303.604 372.697 305.689 372.272C306.907 372.026 308.163 372.026 309.381 372.272C311.466 372.696 313.34 373.826 314.685 375.47C316.031 377.114 316.766 379.171 316.765 381.293V381.293Z" fill="#4665AF"/>
<path opacity="0.2" d="M309.381 372.272V390.314C308.162 390.56 306.907 390.56 305.689 390.314V372.272C306.907 372.026 308.162 372.026 309.381 372.272Z" fill="black"/>
<path d="M339.731 406.973C339.732 409.095 338.997 411.152 337.651 412.796C336.306 414.44 334.432 415.57 332.347 415.994C331.129 416.239 329.873 416.239 328.655 415.994C326.57 415.569 324.697 414.439 323.351 412.795C322.005 411.152 321.271 409.095 321.271 406.973C321.271 404.851 322.005 402.794 323.351 401.15C324.697 399.506 326.57 398.376 328.655 397.951C329.873 397.706 331.129 397.706 332.347 397.951C334.432 398.376 336.306 399.506 337.651 401.15C338.997 402.794 339.732 404.851 339.731 406.973V406.973Z" fill="#4665AF"/>
<path opacity="0.2" d="M332.347 397.951V415.994C331.129 416.239 329.874 416.239 328.655 415.994V397.951C329.874 397.706 331.129 397.706 332.347 397.951Z" fill="black"/>
<path d="M360.019 359.725C361.552 361.197 362.527 363.152 362.78 365.259C363.033 367.366 362.548 369.496 361.408 371.288C360.739 372.333 359.868 373.234 358.845 373.939C357.092 375.141 354.976 375.702 352.855 375.527C350.735 375.353 348.74 374.453 347.208 372.98C345.676 371.508 344.701 369.553 344.448 367.446C344.195 365.339 344.679 363.209 345.819 361.418C346.488 360.372 347.359 359.471 348.382 358.766C350.135 357.564 352.251 357.002 354.372 357.177C356.492 357.352 358.488 358.252 360.019 359.725V359.725Z" fill="#4665AF"/>
<path opacity="0.2" d="M348.382 358.766L361.408 371.287C360.739 372.333 359.868 373.234 358.846 373.938L345.819 361.417C346.488 360.372 347.359 359.471 348.382 358.766V358.766Z" fill="black"/>
<path d="M362.804 379.852C364.336 381.325 365.311 383.28 365.564 385.387C365.817 387.494 365.332 389.623 364.192 391.415C363.524 392.46 362.653 393.362 361.63 394.066C359.876 395.268 357.76 395.829 355.64 395.655C353.519 395.48 351.524 394.581 349.992 393.108C348.46 391.635 347.485 389.68 347.232 387.573C346.979 385.466 347.464 383.337 348.604 381.545C349.272 380.5 350.143 379.598 351.166 378.894C352.919 377.691 355.035 377.13 357.156 377.305C359.277 377.479 361.272 378.379 362.804 379.852V379.852Z" fill="#4665AF"/>
<path opacity="0.2" d="M351.166 378.894L364.192 391.415C363.523 392.46 362.652 393.361 361.629 394.066L348.603 381.545C349.272 380.5 350.143 379.598 351.166 378.894V378.894Z" fill="black"/>
<path d="M279.986 384.711C281.518 386.183 282.493 388.138 282.746 390.245C282.999 392.352 282.514 394.482 281.374 396.273C280.706 397.319 279.834 398.22 278.812 398.924C277.058 400.127 274.942 400.688 272.822 400.513C270.701 400.339 268.706 399.439 267.174 397.966C265.642 396.494 264.667 394.538 264.414 392.432C264.161 390.325 264.646 388.195 265.786 386.403C266.454 385.358 267.325 384.457 268.348 383.752C270.101 382.55 272.217 381.988 274.338 382.163C276.459 382.338 278.454 383.238 279.986 384.711V384.711Z" fill="#4665AF"/>
<path opacity="0.2" d="M268.348 383.752L281.374 396.273C280.706 397.318 279.834 398.22 278.812 398.924L265.786 386.403C266.454 385.358 267.325 384.457 268.348 383.752V383.752Z" fill="black"/>
<path opacity="0.2" d="M250.192 219.395H246.713V245.075H250.192V219.395Z" fill="black"/>
<path opacity="0.2" d="M270.375 219.395H266.895V245.075H270.375V219.395Z" fill="black"/>
<path opacity="0.2" d="M290.557 219.395H287.078V245.075H290.557V219.395Z" fill="black"/>
<path opacity="0.2" d="M310.74 219.395H307.26V245.075H310.74V219.395Z" fill="black"/>
<path opacity="0.2" d="M330.922 219.395H327.443V245.075H330.922V219.395Z" fill="black"/>
<path opacity="0.2" d="M351.105 219.395H347.625V245.075H351.105V219.395Z" fill="black"/>
<path opacity="0.2" d="M371.287 219.395H367.807V245.075H371.287V219.395Z" fill="black"/>
</svg>
