<svg width="306" height="195" viewBox="0 0 306 195" fill="none" xmlns="http://www.w3.org/2000/svg">
<path d="M279.104 194.423L270.365 168.501C270.365 168.501 279.978 177.949 279.978 185.702L278.252 167.774C278.252 167.774 283.182 174.315 282.689 184.248C282.196 194.181 279.104 194.423 279.104 194.423Z" fill="#E6E6E6"/>
<path d="M91.4208 170.82L82.8912 145.52C82.8912 145.52 92.2732 154.741 92.2732 162.308L90.5892 144.811C90.5892 144.811 95.4005 151.195 94.9194 160.889C94.4383 170.583 91.4208 170.82 91.4208 170.82Z" fill="#E6E6E6"/>
<path d="M224.552 182.494C224.567 199.137 190.983 194.017 149.869 194.052C108.755 194.087 75.6791 199.263 75.6645 182.62C75.6499 165.978 109.221 162.33 150.335 162.295C191.449 162.26 224.537 165.852 224.552 182.494Z" fill="#E6E6E6"/>
<path d="M306 194.043H0V194.804H306V194.043Z" fill="#3F3D56"/>
<path d="M195.738 160.019H190.363L187.805 139.641H195.738V160.019Z" fill="#A0616A"/>
<path d="M185.926 158.509H196.89V164.924H179.996V164.337C179.996 162.792 180.621 161.309 181.733 160.216C182.845 159.123 184.354 158.509 185.926 158.509Z" fill="#2F2E41"/>
<path d="M235.247 190.094H229.871L227.313 169.717H235.247V190.094Z" fill="#A0616A"/>
<path d="M225.435 188.585H236.399V195H219.505V194.413C219.505 192.867 220.13 191.385 221.242 190.292C222.354 189.199 223.862 188.585 225.435 188.585Z" fill="#2F2E41"/>
<path d="M260.04 129.557C260.412 129.114 260.68 128.597 260.826 128.041C260.972 127.485 260.992 126.904 260.885 126.34C260.778 125.775 260.547 125.241 260.207 124.774C259.867 124.307 259.427 123.919 258.918 123.637L246.434 73.6531L238.452 77.0286L253.301 125.359C252.876 126.23 252.791 127.225 253.062 128.154C253.334 129.083 253.942 129.882 254.773 130.4C255.604 130.917 256.599 131.118 257.569 130.962C258.54 130.807 259.419 130.307 260.04 129.557Z" fill="#A0616A"/>
<path d="M250.303 28.539C249.858 28.0812 249.315 27.725 248.715 27.4955C248.114 27.266 247.469 27.1687 246.826 27.2105C246.183 27.2523 245.557 27.4322 244.992 27.7376C244.428 28.0429 243.938 28.4662 243.558 28.9777L224.235 31.1581L227.174 38.4834L244.747 35.2508C245.664 35.8218 246.762 36.0424 247.833 35.8709C248.904 35.6995 249.873 35.1478 250.558 34.3205C251.243 33.4932 251.595 32.4476 251.548 31.3821C251.501 30.3165 251.058 29.3049 250.303 28.539Z" fill="#A0616A"/>
<path d="M218.461 124.374L226.892 186.571L237.387 184.447C237.387 184.447 235.844 139.15 241.091 133.69C246.338 128.229 234.342 118.663 234.342 118.663L218.461 124.374Z" fill="#2F2E41"/>
<path d="M221.947 107.242L218.073 112.952C218.073 112.952 188.248 100.77 188.248 120.186C188.248 139.601 186.541 152.778 185.924 153.688C185.307 154.598 193.066 156.96 196.77 156.353C196.77 156.353 201.339 125.052 201.03 123.231C201.03 123.231 230.288 137.33 235.844 136.117C241.399 134.903 242.712 130.608 243.638 128.181C244.564 125.754 243.251 106.48 243.251 106.48L224.732 100.926L221.947 107.242Z" fill="#2F2E41"/>
<path d="M222.469 72.9555L221.365 71.6533C221.365 71.6533 209 44.308 213.858 36.9291C218.716 29.5502 239.913 28.4651 240.576 28.8991C241.238 29.3332 238.994 34.9686 240.539 37.5729C240.539 37.5729 224.118 41.0721 223.014 41.5061C221.91 41.9402 231.523 57.9806 231.523 57.9806L230.419 67.7468L222.469 72.9555Z" fill="#CCCCCC"/>
<path d="M244.109 59.4998C244.109 59.4998 232.627 60.802 232.185 60.802C231.743 60.802 231.523 57.9806 231.523 57.9806L221.365 71.6533C221.365 71.6533 216.361 111.319 217.686 110.668C219.011 110.017 243.446 113.756 243.667 112.02C243.888 110.284 243.446 101.603 244.109 101.169C244.771 100.735 255.591 73.8235 255.591 73.8235C255.591 73.8235 254.487 68.1809 250.733 66.2276C246.979 64.2744 244.109 59.4998 244.109 59.4998Z" fill="#CCCCCC"/>
<path d="M252.058 70.1341L255.591 73.8236C255.591 73.8236 260.84 116.219 257.97 117.521C255.099 118.823 249.448 118.663 249.448 118.663L243.888 98.5646L252.058 70.1341Z" fill="#CCCCCC"/>
<path d="M233.075 56.815C238.688 56.815 243.238 52.3426 243.238 46.8257C243.238 41.3088 238.688 36.8365 233.075 36.8365C227.462 36.8365 222.912 41.3088 222.912 46.8257C222.912 52.3426 227.462 56.815 233.075 56.815Z" fill="#A0616A"/>
<path d="M230.69 48.3845C230.553 46.3117 227.892 46.2407 225.779 46.2211C223.666 46.2015 221.139 46.2756 219.944 44.563C219.153 43.4311 219.304 41.8598 219.957 40.6463C220.61 39.4328 221.684 38.4995 222.74 37.6017C225.468 35.2836 228.279 32.984 231.553 31.5003C234.828 30.0166 238.665 29.4171 242.061 30.6081C246.233 32.0712 251.872 39.6026 252.359 43.9296C252.846 48.2567 251.087 52.6678 248.121 55.9012C245.155 59.1347 238.367 57.83 234.095 58.9803C236.692 55.3676 234.98 48.8031 230.82 47.1161L230.69 48.3845Z" fill="#2F2E41"/>
<path d="M140.11 177.596C153.585 177.596 164.508 166.86 164.508 153.616C164.508 140.372 153.585 129.636 140.11 129.636C126.635 129.636 115.712 140.372 115.712 153.616C115.712 166.86 126.635 177.596 140.11 177.596Z" fill="#F54444"/>
<path d="M123.816 127.932C120.435 127.932 117.126 126.969 114.29 125.159C111.454 123.349 109.212 120.77 107.836 117.734L69.1206 32.0407C67.8382 29.2021 67.1599 26.1357 67.1275 23.03C67.0951 19.9242 67.7093 16.8448 68.9323 13.981C70.1553 11.1171 71.9613 8.52938 74.2393 6.37678C76.5173 4.22418 79.2191 2.55222 82.1787 1.46366C85.1383 0.375092 88.2931 -0.107073 91.4493 0.046802C94.6054 0.200677 97.6962 0.98734 100.532 2.35844C103.367 3.72953 105.887 5.6561 107.937 8.0197C109.987 10.3833 111.524 13.134 112.453 16.1028L140.487 105.725C141.29 108.291 141.469 111.005 141.011 113.651C140.552 116.297 139.469 118.8 137.848 120.959C136.227 123.119 134.113 124.875 131.676 126.086C129.239 127.297 126.547 127.929 123.816 127.932H123.816Z" fill="#F54444"/>
</svg>
