<?xml version="1.0" encoding="utf-8"?>
<!-- Generator: Adobe Illustrator 21.0.0, SVG Export Plug-In . SVG Version: 6.00 Build 0)  -->
<svg version="1.1" id="Layer_1" xmlns="http://www.w3.org/2000/svg" xmlns:xlink="http://www.w3.org/1999/xlink" x="0px" y="0px"
	 viewBox="0 0 441 157.4" style="enable-background:new 0 0 441 157.4;" xml:space="preserve">
<style type="text/css">
	.st0{fill:#4665AF;}
	.st1{fill:#FFFFFF;}
	.st2{fill:#FFFFFF;stroke:#EC1C24;stroke-width:0.25;stroke-miterlimit:10;}
</style>
<g>
	<path class="st0" d="M108.7,65.1v29.8H66.9c-2.4,0-4.4-2-4.4-4.4V76.3h5.2v12.7c0,0.4,0.3,0.7,0.7,0.7h35.2V65.5
		c0-6.4-5.2-11.7-11.7-11.7H48.7v-5.2h43.6C101.3,48.7,108.7,56,108.7,65.1"/>
	<path class="st0" d="M48.7,92.2V62.5h41.9c2.4,0,4.4,2,4.4,4.4v14.2h-5.2V68.3c0-0.4-0.3-0.7-0.7-0.7H53.8v24.2
		c0,6.4,5.2,11.7,11.7,11.7h43.2v5.2H65.1C56,108.7,48.7,101.3,48.7,92.2"/>
	<g>
		<polygon class="st0" points="128.7,62.5 150.2,62.5 150.2,67.5 134.5,67.5 134.5,75.7 149.4,75.7 149.4,80.6 134.5,80.6 
			134.5,89.8 151.1,89.8 151.1,94.9 128.7,94.9 		"/>
		<polygon class="st0" points="156.7,62.5 162.5,62.5 162.5,89.8 176.2,89.8 176.2,94.9 156.7,94.9 		"/>
		<path class="st0" d="M196.6,69.2c-0.6-0.8-1.5-1.5-2.6-2c-1.1-0.5-2.2-0.8-3.4-0.8c-0.7,0-1.3,0.1-2,0.3c-0.7,0.2-1.3,0.4-1.8,0.8
			c-0.6,0.4-1,0.8-1.4,1.4c-0.4,0.6-0.5,1.2-0.5,2c0,0.7,0.2,1.4,0.5,1.9c0.3,0.5,0.7,1,1.3,1.3c0.5,0.4,1.2,0.7,1.9,1
			c0.8,0.3,1.6,0.5,2.5,0.8c1,0.3,2.1,0.7,3.2,1.1c1.1,0.4,2.1,1,3.1,1.7c0.9,0.7,1.7,1.6,2.3,2.7c0.6,1.1,0.9,2.4,0.9,4
			c0,1.7-0.3,3.3-1,4.6c-0.6,1.3-1.5,2.4-2.6,3.2c-1.1,0.9-2.3,1.5-3.8,1.9c-1.4,0.4-3,0.6-4.5,0.6c-2.1,0-4.2-0.4-6.2-1.2
			c-2-0.8-3.7-1.9-4.9-3.5l4.1-3.8c0.8,1.1,1.9,2,3.2,2.6c1.3,0.6,2.6,1,3.9,1c0.7,0,1.4-0.1,2.1-0.3c0.7-0.2,1.3-0.4,1.9-0.8
			c0.6-0.4,1-0.9,1.4-1.5s0.5-1.3,0.5-2.2c0-0.9-0.2-1.6-0.6-2.1c-0.4-0.6-0.9-1.1-1.6-1.5c-0.7-0.4-1.5-0.8-2.4-1.1
			c-0.9-0.3-1.9-0.6-2.9-1c-1-0.3-2-0.7-2.9-1.1c-1-0.4-1.9-1-2.6-1.7c-0.8-0.7-1.4-1.6-1.9-2.6c-0.5-1-0.7-2.3-0.7-3.8
			c0-1.6,0.3-3.1,1-4.3c0.7-1.2,1.6-2.2,2.7-3c1.1-0.8,2.4-1.4,3.8-1.7c1.4-0.4,2.9-0.6,4.3-0.6c1.6,0,3.3,0.3,5,0.9
			c1.7,0.6,3.2,1.5,4.4,2.6L196.6,69.2z"/>
		<path class="st0" d="M216.6,62.5h5l14,32.4h-6.6l-3-7.4h-14.1l-2.9,7.4h-6.5L216.6,62.5z M223.9,82.5l-5-13.2l-5.1,13.2H223.9z"/>
		<polygon class="st0" points="262.8,94.9 262.8,78.6 241,78.6 241,94.9 240,94.9 240,62.5 241,62.5 241,77.7 262.8,77.7 
			262.8,62.5 263.8,62.5 263.8,94.9 		"/>
		<polygon class="st0" points="272.4,94.9 272.4,62.5 291.3,62.5 291.3,63.4 273.4,63.4 273.4,77.6 290.3,77.6 290.3,78.5 
			273.4,78.5 273.4,94 292.1,94 292.1,94.9 		"/>
		<path class="st0" d="M322,94.9l-3.8-9.3h-18.8l-4,9.3h-1.1l14.1-32.4h1.3l13.5,32.4H322z M308.9,63.1l-9.2,21.6h18.1L308.9,63.1z"
			/>
		<polygon class="st0" points="329.8,94.9 329.8,62.5 330.8,62.5 330.8,94 346.9,94 346.9,94.9 		"/>
		<polygon class="st0" points="352.9,63.4 352.9,94.9 351.9,94.9 351.9,63.4 340.9,63.4 340.9,62.5 364,62.5 364,63.4 		"/>
		<polygon class="st0" points="391.3,94.9 391.3,78.6 369.5,78.6 369.5,94.9 368.5,94.9 368.5,62.5 369.5,62.5 369.5,77.7 
			391.3,77.7 391.3,62.5 392.3,62.5 392.3,94.9 		"/>
	</g>
</g>
</svg>
